Pavanam-Regular.ufo
<glyph name="exclam" format="1">
  <advance width="199"/>
  <unicode hex="0021"/>
  <outline>
    <contour>
      <point x="88" y="142" type="line"/>
      <point x="64" y="679" type="line"/>
      <point x="142" y="679" type="line"/>
      <point x="116" y="142" type="line"/>
    </contour>
    <contour>
      <point x="64" y="91" type="line"/>
      <point x="140" y="91" type="line"/>
      <point x="140" y="0" type="line"/>
      <point x="64" y="0" type="line"/>
    </contour>
  </outline>
</glyph>
<glyph name="quotedbl" format="1">
  <advance width="310"/>
  <unicode hex="0022"/>
  <outline>
    <contour>
      <point x="194" y="697" type="line"/>
      <point x="251" y="697" type="line"/>
      <point x="247" y="603" type="line"/>
      <point x="247" y="472" type="line"/>
      <point x="194" y="472" type="line"/>
    </contour>
    <contour>
      <point x="62" y="697" type="line"/>
      <point x="119" y="697" type="line"/>
      <point x="119" y="608" type="line"/>
      <point x="118" y="585"/>
      <point x="118" y="563"/>
      <point x="117" y="540" type="curve" smooth="yes"/>
      <point x="116" y="517"/>
      <point x="115" y="495"/>
      <point x="114" y="472" type="curve"/>
      <point x="62" y="472" type="line"/>
    </contour>
  </outline>
</glyph>
<glyph name="numbersign" format="1">
  <advance width="566"/>
  <unicode hex="0023"/>
  <outline>
    <contour>
      <point x="215" y="418" type="line"/>
      <point x="191" y="301" type="line"/>
      <point x="342" y="301" type="line"/>
      <point x="366" y="418" type="line"/>
    </contour>
    <contour>
      <point x="129" y="0" type="line"/>
      <point x="66" y="0" type="line"/>
      <point x="119" y="256" type="line"/>
      <point x="24" y="256" type="line"/>
      <point x="37" y="301" type="line"/>
      <point x="127" y="301" type="line"/>
      <point x="151" y="418" type="line"/>
      <point x="56" y="418" type="line"/>
      <point x="69" y="464" type="line"/>
      <point x="161" y="464" type="line"/>
      <point x="204" y="678" type="line"/>
      <point x="269" y="679" type="line"/>
      <point x="224" y="464" type="line"/>
      <point x="375" y="464" type="line"/>
      <point x="418" y="678" type="line"/>
      <point x="483" y="679" type="line"/>
      <point x="438" y="464" type="line"/>
      <point x="545" y="464" type="line"/>
      <point x="532" y="418" type="line"/>
      <point x="429" y="418" type="line"/>
      <point x="405" y="301" type="line"/>
      <point x="513" y="301" type="line"/>
      <point x="500" y="256" type="line"/>
      <point x="396" y="256" type="line"/>
      <point x="343" y="0" type="line"/>
      <point x="281" y="0" type="line"/>
      <point x="332" y="256" type="line"/>
      <point x="181" y="256" type="line"/>
    </contour>
  </outline>
</glyph>
<glyph name="dollar" format="1">
  <advance width="478"/>
  <unicode hex="0024"/>
  <outline>
    <contour>
      <point x="417" y="562" type="line"/>
      <point x="418" y="562" type="line"/>
    </contour>
    <contour>
      <point x="430" y="613" type="line"/>
      <point x="429" y="612"/>
      <point x="429" y="611"/>
      <point x="430" y="611" type="curve"/>
      <point x="430" y="610"/>
      <point x="430" y="610"/>
      <point x="429" y="609" type="curve"/>
      <point x="430" y="609"/>
      <point x="430" y="609"/>
      <point x="430" y="609" type="curve"/>
      <point x="430" y="608"/>
      <point x="430" y="608"/>
      <point x="431" y="608" type="curve" smooth="yes"/>
      <point x="432" y="608"/>
      <point x="433" y="608"/>
      <point x="434" y="607" type="curve" smooth="yes"/>
      <point x="435" y="606"/>
      <point x="435" y="606"/>
      <point x="436" y="606" type="curve"/>
    </contour>
    <contour>
      <point x="65" y="82" type="line"/>
      <point x="66" y="82"/>
      <point x="66" y="82"/>
      <point x="67" y="81" type="curve"/>
      <point x="67" y="80"/>
      <point x="67" y="80"/>
      <point x="68" y="80" type="curve"/>
      <point x="67" y="80" type="line"/>
      <point x="69" y="79" type="line"/>
      <point x="71" y="86" type="line"/>
    </contour>
    <contour>
      <point x="55" y="27" type="line"/>
      <point x="56" y="31" type="line"/>
      <point x="55" y="31"/>
      <point x="52" y="33"/>
      <point x="51" y="34" type="curve" smooth="yes"/>
      <point x="50" y="35"/>
      <point x="50" y="35"/>
      <point x="49" y="35" type="curve"/>
    </contour>
    <contour>
      <point x="274" y="-94" type="line"/>
      <point x="236" y="-94" type="line"/>
      <point x="236" y="-6" type="line"/>
      <point x="159" y="-4"/>
      <point x="99" y="8"/>
      <point x="56" y="31" type="curve"/>
      <point x="69" y="79" type="line"/>
      <point x="111" y="63" type="line" smooth="yes"/>
      <point x="116" y="61"/>
      <point x="123" y="59"/>
      <point x="131" y="57" type="curve" smooth="yes"/>
      <point x="139" y="55"/>
      <point x="149" y="52"/>
      <point x="161" y="49" type="curve"/>
      <point x="184" y="45"/>
      <point x="209" y="43"/>
      <point x="236" y="43" type="curve"/>
      <point x="236" y="305" type="line"/>
      <point x="191" y="318" type="line"/>
      <point x="148" y="333"/>
      <point x="110" y="353"/>
      <point x="89" y="376" type="curve" smooth="yes"/>
      <point x="67" y="400"/>
      <point x="56" y="432"/>
      <point x="56" y="473" type="curve" smooth="yes"/>
      <point x="56" y="525"/>
      <point x="73" y="568"/>
      <point x="104" y="596" type="curve"/>
      <point x="135" y="622"/>
      <point x="179" y="637"/>
      <point x="236" y="640" type="curve"/>
      <point x="236" y="721" type="line"/>
      <point x="274" y="721" type="line"/>
      <point x="274" y="640" type="line"/>
      <point x="336" y="637"/>
      <point x="388" y="626"/>
      <point x="429" y="609" type="curve"/>
      <point x="417" y="562" type="line"/>
      <point x="372" y="579"/>
      <point x="325" y="590"/>
      <point x="274" y="591" type="curve"/>
      <point x="274" y="350" type="line"/>
      <point x="298" y="341"/>
      <point x="318" y="333"/>
      <point x="333" y="328" type="curve"/>
      <point x="348" y="322"/>
      <point x="358" y="318"/>
      <point x="361" y="317" type="curve"/>
      <point x="400" y="296"/>
      <point x="426" y="267"/>
      <point x="437" y="228" type="curve" smooth="yes"/>
      <point x="442" y="211"/>
      <point x="444" y="192"/>
      <point x="444" y="171" type="curve" smooth="yes"/>
      <point x="444" y="119"/>
      <point x="431" y="79"/>
      <point x="400" y="48" type="curve" smooth="yes"/>
      <point x="384" y="31"/>
      <point x="357" y="12"/>
      <point x="326" y="5" type="curve"/>
      <point x="311" y="1"/>
      <point x="294" y="-2"/>
      <point x="274" y="-5" type="curve"/>
    </contour>
    <contour>
      <point x="311" y="279"/>
      <point x="294" y="285"/>
      <point x="274" y="291" type="curve"/>
      <point x="274" y="42" type="line"/>
      <point x="311" y="49"/>
      <point x="338" y="62"/>
      <point x="356" y="82" type="curve"/>
      <point x="375" y="105"/>
      <point x="385" y="132"/>
      <point x="385" y="171" type="curve" smooth="yes"/>
      <point x="385" y="206"/>
      <point x="375" y="233"/>
      <point x="356" y="250" type="curve"/>
      <point x="348" y="258"/>
      <point x="335" y="268"/>
      <point x="324" y="272" type="curve"/>
    </contour>
    <contour>
      <point x="236" y="365" type="line"/>
      <point x="236" y="594" type="line"/>
      <point x="156" y="585"/>
      <point x="116" y="547"/>
      <point x="116" y="480" type="curve" smooth="yes"/>
      <point x="116" y="425"/>
      <point x="133" y="401"/>
      <point x="210" y="372" type="curve"/>
    </contour>
  </outline>
</glyph>
<glyph name="percent" format="1">
  <advance width="733"/>
  <unicode hex="0025"/>
  <outline>
    <contour>
      <point x="549" y="657" type="line"/>
      <point x="503" y="547"/>
      <point x="455" y="434"/>
      <point x="405" y="319" type="curve" smooth="yes"/>
      <point x="261" y="-21" type="line"/>
      <point x="220" y="-6" type="line"/>
      <point x="504" y="672" type="line"/>
    </contour>
    <contour>
      <point x="48" y="432"/>
      <point x="35" y="466"/>
      <point x="35" y="508" type="curve" smooth="yes"/>
      <point x="35" y="588"/>
      <point x="92" y="643"/>
      <point x="165" y="643" type="curve" smooth="yes"/>
      <point x="238" y="643"/>
      <point x="296" y="589"/>
      <point x="296" y="508" type="curve" smooth="yes"/>
      <point x="296" y="467"/>
      <point x="283" y="433"/>
      <point x="257" y="407" type="curve"/>
      <point x="230" y="384"/>
      <point x="199" y="372"/>
      <point x="165" y="372" type="curve" smooth="yes"/>
      <point x="131" y="372"/>
      <point x="100" y="384"/>
      <point x="73" y="407" type="curve"/>
    </contour>
    <contour>
      <point x="80" y="451"/>
      <point x="117" y="412"/>
      <point x="165" y="412" type="curve" smooth="yes"/>
      <point x="214" y="412"/>
      <point x="250" y="449"/>
      <point x="250" y="508" type="curve" smooth="yes"/>
      <point x="250" y="565"/>
      <point x="216" y="602"/>
      <point x="165" y="602" type="curve" smooth="yes"/>
      <point x="116" y="602"/>
      <point x="80" y="564"/>
      <point x="80" y="508" type="curve" smooth="yes"/>
    </contour>
    <contour>
      <point x="448" y="169"/>
      <point x="461" y="203"/>
      <point x="487" y="227" type="curve"/>
      <point x="514" y="250"/>
      <point x="545" y="262"/>
      <point x="580" y="262" type="curve" smooth="yes"/>
      <point x="652" y="262"/>
      <point x="708" y="209"/>
      <point x="708" y="126" type="curve" smooth="yes"/>
      <point x="708" y="46"/>
      <point x="653" y="-9"/>
      <point x="580" y="-9" type="curve" smooth="yes"/>
      <point x="503" y="-9"/>
      <point x="448" y="45"/>
      <point x="448" y="126" type="curve" smooth="yes"/>
    </contour>
    <contour>
      <point x="494" y="69"/>
      <point x="529" y="31"/>
      <point x="580" y="31" type="curve" smooth="yes"/>
      <point x="629" y="31"/>
      <point x="663" y="67"/>
      <point x="663" y="126" type="curve" smooth="yes"/>
      <point x="663" y="183"/>
      <point x="628" y="220"/>
      <point x="580" y="220" type="curve" smooth="yes"/>
      <point x="529" y="220"/>
      <point x="494" y="183"/>
      <point x="494" y="126" type="curve" smooth="yes"/>
    </contour>
  </outline>
</glyph>
<glyph name="ampersand" format="1">
  <advance width="537"/>
  <unicode hex="0026"/>
  <outline>
    <contour>
      <point x="507" y="238" type="line"/>
      <point x="507" y="237"/>
      <point x="507" y="237"/>
      <point x="507" y="237" type="curve" smooth="yes"/>
      <point x="506" y="237"/>
      <point x="506" y="237"/>
      <point x="506" y="236" type="curve"/>
      <point x="512" y="235" type="line"/>
      <point x="508" y="241" type="line"/>
    </contour>
    <contour>
      <point x="449" y="254" type="line"/>
      <point x="455" y="252" type="line"/>
      <point x="456" y="253"/>
      <point x="456" y="253"/>
      <point x="456" y="254" type="curve"/>
      <point x="455" y="254"/>
      <point x="455" y="254"/>
      <point x="456" y="255" type="curve"/>
      <point x="456" y="256"/>
      <point x="456" y="257"/>
      <point x="457" y="258" type="curve"/>
      <point x="457" y="259"/>
      <point x="457" y="259"/>
      <point x="457" y="260" type="curve"/>
    </contour>
    <contour>
      <point x="409" y="134" type="line"/>
      <point x="428" y="170"/>
      <point x="444" y="209"/>
      <point x="455" y="252" type="curve"/>
      <point x="506" y="236" type="line"/>
      <point x="493" y="179"/>
      <point x="473" y="129"/>
      <point x="444" y="88" type="curve"/>
      <point x="452" y="77"/>
      <point x="461" y="66"/>
      <point x="470" y="55" type="curve" smooth="yes"/>
      <point x="479" y="44"/>
      <point x="487" y="32"/>
      <point x="495" y="21" type="curve"/>
      <point x="451" y="-13" type="line"/>
      <point x="406" y="47" type="line"/>
      <point x="361" y="10"/>
      <point x="309" y="-9"/>
      <point x="249" y="-9" type="curve" smooth="yes"/>
      <point x="189" y="-9"/>
      <point x="142" y="5"/>
      <point x="109" y="29" type="curve"/>
      <point x="77" y="56"/>
      <point x="61" y="92"/>
      <point x="61" y="139" type="curve" smooth="yes"/>
      <point x="61" y="182"/>
      <point x="74" y="220"/>
      <point x="101" y="253" type="curve"/>
      <point x="113" y="272"/>
      <point x="126" y="284"/>
      <point x="139" y="295" type="curve" smooth="yes"/>
      <point x="187" y="338" type="line"/>
      <point x="154" y="385" type="line" smooth="yes"/>
      <point x="120" y="433"/>
      <point x="103" y="476"/>
      <point x="103" y="515" type="curve" smooth="yes"/>
      <point x="103" y="560"/>
      <point x="121" y="592"/>
      <point x="146" y="613" type="curve" smooth="yes"/>
      <point x="171" y="633"/>
      <point x="205" y="643"/>
      <point x="240" y="643" type="curve" smooth="yes"/>
      <point x="321" y="643"/>
      <point x="379" y="599"/>
      <point x="379" y="514" type="curve" smooth="yes"/>
      <point x="379" y="446"/>
      <point x="340" y="404"/>
      <point x="311" y="373" type="curve" smooth="yes"/>
      <point x="296" y="358"/>
      <point x="280" y="342"/>
      <point x="262" y="326" type="curve"/>
    </contour>
    <contour>
      <point x="229" y="367" type="line"/>
      <point x="257" y="394"/>
      <point x="278" y="415"/>
      <point x="295" y="438" type="curve" smooth="yes"/>
      <point x="310" y="459"/>
      <point x="318" y="484"/>
      <point x="318" y="511" type="curve" smooth="yes"/>
      <point x="318" y="567"/>
      <point x="293" y="595"/>
      <point x="243" y="595" type="curve" smooth="yes"/>
      <point x="191" y="595"/>
      <point x="163" y="568"/>
      <point x="163" y="517" type="curve" smooth="yes"/>
      <point x="163" y="494"/>
      <point x="167" y="473"/>
      <point x="175" y="453" type="curve" smooth="yes"/>
      <point x="183" y="434"/>
      <point x="194" y="412"/>
      <point x="213" y="389" type="curve"/>
    </contour>
    <contour>
      <point x="221" y="300" type="line"/>
      <point x="202" y="285"/>
      <point x="186" y="270"/>
      <point x="170" y="253" type="curve" smooth="yes"/>
      <point x="155" y="238"/>
      <point x="145" y="223"/>
      <point x="136" y="203" type="curve"/>
      <point x="125" y="183"/>
      <point x="120" y="163"/>
      <point x="120" y="143" type="curve" smooth="yes"/>
      <point x="120" y="74"/>
      <point x="165" y="40"/>
      <point x="256" y="40" type="curve" smooth="yes"/>
      <point x="301" y="40"/>
      <point x="340" y="56"/>
      <point x="375" y="89" type="curve"/>
    </contour>
  </outline>
</glyph>
<glyph name="quotesingle" format="1">
  <advance width="130"/>
  <unicode hex="0027"/>
  <outline>
    <contour>
      <point x="80" y="464" type="line"/>
      <point x="57" y="464" type="line"/>
      <point x="32" y="679" type="line"/>
      <point x="104" y="679" type="line"/>
    </contour>
  </outline>
</glyph>
<glyph name="parenleft" format="1">
  <advance width="254"/>
  <unicode hex="0028"/>
  <outline>
    <contour>
      <point x="193" y="799" type="line"/>
      <point x="190" y="795" type="line"/>
      <point x="191" y="795" type="line"/>
      <point x="190" y="794" type="line"/>
      <point x="186" y="799" type="line"/>
    </contour>
    <contour>
      <point x="50" y="152"/>
      <point x="37" y="236"/>
      <point x="37" y="318" type="curve" smooth="yes"/>
      <point x="37" y="491"/>
      <point x="90" y="659"/>
      <point x="190" y="794" type="curve"/>
      <point x="226" y="759" type="line"/>
      <point x="142" y="632"/>
      <point x="99" y="477"/>
      <point x="99" y="316" type="curve" smooth="yes"/>
      <point x="99" y="157"/>
      <point x="142" y="5"/>
      <point x="226" y="-122" type="curve"/>
      <point x="190" y="-156" type="line"/>
      <point x="143" y="-93"/>
      <point x="105" y="-19"/>
      <point x="76" y="66" type="curve"/>
    </contour>
    <contour>
      <point x="226" y="759" type="line"/>
      <point x="227" y="759" type="line"/>
      <point x="226" y="758" type="line"/>
    </contour>
    <contour>
      <point x="226" y="-121" type="line"/>
      <point x="226" y="-120" type="line"/>
      <point x="227" y="-121" type="line"/>
    </contour>
    <contour>
      <point x="226" y="-122" type="line"/>
      <point x="226" y="-121" type="line"/>
      <point x="227" y="-123" type="line"/>
    </contour>
    <contour>
      <point x="191" y="-157" type="line"/>
      <point x="191" y="-169" type="line"/>
      <point x="182" y="-165" type="line"/>
      <point x="190" y="-156" type="line"/>
    </contour>
  </outline>
</glyph>
<glyph name="parenright" format="1">
  <advance width="254"/>
  <unicode hex="0029"/>
  <outline>
    <contour>
      <point x="67" y="795" type="line"/>
      <point x="64" y="799" type="line"/>
      <point x="72" y="799" type="line"/>
      <point x="67" y="794" type="line"/>
      <point x="66" y="794"/>
      <point x="66" y="794"/>
      <point x="66" y="795" type="curve"/>
    </contour>
    <contour>
      <point x="67" y="794" type="line"/>
      <point x="167" y="662"/>
      <point x="221" y="493"/>
      <point x="221" y="318" type="curve" smooth="yes"/>
      <point x="221" y="146"/>
      <point x="164" y="-28"/>
      <point x="67" y="-156" type="curve"/>
      <point x="32" y="-122" type="line"/>
      <point x="116" y="5"/>
      <point x="159" y="157"/>
      <point x="159" y="316" type="curve" smooth="yes"/>
      <point x="159" y="477"/>
      <point x="115" y="631"/>
      <point x="31" y="759" type="curve"/>
    </contour>
    <contour>
      <point x="32" y="-122" type="line"/>
      <point x="31" y="-123" type="line"/>
      <point x="31" y="-121" type="line"/>
    </contour>
    <contour>
      <point x="76" y="-165" type="line"/>
      <point x="66" y="-169" type="line"/>
      <point x="66" y="-157" type="line" smooth="yes"/>
      <point x="66" y="-156"/>
      <point x="66" y="-156"/>
      <point x="67" y="-156" type="curve"/>
    </contour>
  </outline>
</glyph>
<glyph name="asterisk" format="1">
  <advance width="450"/>
  <unicode hex="002A"/>
  <outline>
    <contour>
      <point x="390" y="603" type="line"/>
      <point x="400" y="564" type="line"/>
      <point x="261" y="517" type="line"/>
      <point x="349" y="397" type="line"/>
      <point x="336" y="389"/>
      <point x="327" y="383"/>
      <point x="315" y="372" type="curve"/>
      <point x="228" y="491" type="line"/>
      <point x="215" y="472"/>
      <point x="200" y="453"/>
      <point x="184" y="432" type="curve" smooth="yes"/>
      <point x="168" y="411"/>
      <point x="153" y="391"/>
      <point x="140" y="372" type="curve"/>
      <point x="133" y="377"/>
      <point x="127" y="382"/>
      <point x="122" y="386" type="curve"/>
      <point x="117" y="389"/>
      <point x="112" y="393"/>
      <point x="106" y="397" type="curve"/>
      <point x="194" y="517" type="line"/>
      <point x="55" y="563" type="line"/>
      <point x="65" y="603" type="line"/>
      <point x="206" y="557" type="line"/>
      <point x="206" y="705" type="line"/>
      <point x="248" y="705" type="line"/>
      <point x="248" y="557" type="line"/>
    </contour>
  </outline>
</glyph>
<glyph name="plus" format="1">
  <advance width="399"/>
  <unicode hex="002B"/>
  <outline>
    <contour>
      <point x="33" y="313" type="line"/>
      <point x="33" y="358" type="line"/>
      <point x="175" y="358" type="line"/>
      <point x="175" y="510" type="line"/>
      <point x="221" y="510" type="line"/>
      <point x="221" y="358" type="line"/>
      <point x="361" y="358" type="line"/>
      <point x="361" y="313" type="line"/>
      <point x="221" y="313" type="line"/>
      <point x="221" y="162" type="line"/>
      <point x="175" y="162" type="line"/>
      <point x="175" y="313" type="line"/>
    </contour>
  </outline>
</glyph>
<glyph name="comma" format="1">
  <advance width="239"/>
  <unicode hex="002C"/>
  <outline>
    <contour>
      <point x="101" y="-141" type="line"/>
      <point x="100" y="-141"/>
      <point x="99" y="-142"/>
      <point x="99" y="-143" type="curve"/>
      <point x="100" y="-143" type="line"/>
      <point x="97" y="-146" type="line"/>
      <point x="104" y="-146" type="line"/>
    </contour>
    <contour>
      <point x="167" y="13" type="line" smooth="yes"/>
      <point x="167" y="-19"/>
      <point x="161" y="-45"/>
      <point x="150" y="-68" type="curve"/>
      <point x="150" y="-67" type="line"/>
      <point x="140" y="-88"/>
      <point x="124" y="-113"/>
      <point x="101" y="-141" type="curve"/>
      <point x="79" y="-116" type="line"/>
      <point x="106" y="-73"/>
      <point x="119" y="-40"/>
      <point x="124" y="-4" type="curve"/>
      <point x="74" y="-4" type="line"/>
      <point x="74" y="97" type="line"/>
      <point x="167" y="97" type="line"/>
    </contour>
  </outline>
</glyph>
<glyph name="hyphen" format="1">
  <advance width="336"/>
  <unicode hex="002D"/>
  <outline>
    <contour>
      <point x="47" y="185" type="line"/>
      <point x="47" y="238" type="line"/>
      <point x="278" y="238" type="line"/>
      <point x="278" y="185" type="line"/>
    </contour>
  </outline>
</glyph>
<glyph name="period" format="1">
  <advance width="221"/>
  <unicode hex="002E"/>
  <outline>
    <contour>
      <point x="162" y="-4" type="line"/>
      <point x="68" y="-4" type="line"/>
      <point x="68" y="109" type="line"/>
      <point x="162" y="109" type="line"/>
    </contour>
  </outline>
</glyph>
<glyph name="slash" format="1">
  <advance width="275"/>
  <unicode hex="002F"/>
  <outline>
    <contour>
      <point x="70" y="-16" type="line"/>
      <point x="20" y="-4" type="line"/>
      <point x="213" y="712" type="line"/>
      <point x="267" y="699" type="line"/>
    </contour>
  </outline>
</glyph>
<glyph name="zero" format="1">
  <advance width="510"/>
  <unicode hex="0030"/>
  <outline>
    <contour>
      <point x="295" y="587"/>
      <point x="278" y="590"/>
      <point x="258" y="590" type="curve" smooth="yes"/>
      <point x="202" y="590"/>
      <point x="169" y="566"/>
      <point x="150" y="526" type="curve"/>
      <point x="138" y="498"/>
      <point x="132" y="475"/>
      <point x="128" y="434" type="curve" smooth="yes"/>
      <point x="124" y="395"/>
      <point x="123" y="364"/>
      <point x="123" y="317" type="curve" smooth="yes"/>
      <point x="123" y="254"/>
      <point x="124" y="217"/>
      <point x="131" y="173" type="curve" smooth="yes"/>
      <point x="138" y="128"/>
      <point x="148" y="103"/>
      <point x="168" y="78" type="curve" smooth="yes"/>
      <point x="185" y="57"/>
      <point x="218" y="44"/>
      <point x="257" y="44" type="curve" smooth="yes"/>
      <point x="297" y="44"/>
      <point x="328" y="59"/>
      <point x="346" y="76" type="curve" smooth="yes"/>
      <point x="364" y="92"/>
      <point x="377" y="130"/>
      <point x="383" y="157" type="curve" smooth="yes"/>
      <point x="386" y="170"/>
      <point x="388" y="188"/>
      <point x="390" y="210" type="curve"/>
      <point x="393" y="230"/>
      <point x="393" y="249"/>
      <point x="393" y="264" type="curve" smooth="yes"/>
      <point x="393" y="317" type="line" smooth="yes"/>
      <point x="393" y="378"/>
      <point x="392" y="417"/>
      <point x="385" y="462" type="curve"/>
      <point x="378" y="522"/>
      <point x="354" y="566"/>
      <point x="311" y="582" type="curve"/>
    </contour>
    <contour>
      <point x="69" y="385"/>
      <point x="72" y="433"/>
      <point x="83" y="484" type="curve" smooth="yes"/>
      <point x="98" y="556"/>
      <point x="127" y="608"/>
      <point x="186" y="628" type="curve" smooth="yes"/>
      <point x="208" y="635"/>
      <point x="232" y="639"/>
      <point x="258" y="639" type="curve" smooth="yes"/>
      <point x="305" y="639"/>
      <point x="347" y="627"/>
      <point x="377" y="597" type="curve" smooth="yes"/>
      <point x="407" y="567"/>
      <point x="426" y="524"/>
      <point x="435" y="473" type="curve" smooth="yes"/>
      <point x="440" y="447"/>
      <point x="443" y="420"/>
      <point x="444" y="392" type="curve" smooth="yes"/>
      <point x="445" y="369"/>
      <point x="446" y="344"/>
      <point x="446" y="317" type="curve" smooth="yes"/>
      <point x="446" y="290"/>
      <point x="445" y="266"/>
      <point x="444" y="243" type="curve" smooth="yes"/>
      <point x="443" y="223"/>
      <point x="441" y="200"/>
      <point x="437" y="176" type="curve" smooth="yes"/>
      <point x="430" y="129"/>
      <point x="420" y="97"/>
      <point x="401" y="66" type="curve" smooth="yes"/>
      <point x="366" y="7"/>
      <point x="303" y="-5"/>
      <point x="258" y="-5" type="curve" smooth="yes"/>
      <point x="235" y="-5"/>
      <point x="213" y="-3"/>
      <point x="194" y="4" type="curve"/>
      <point x="155" y="16"/>
      <point x="133" y="36"/>
      <point x="114" y="67" type="curve" smooth="yes"/>
      <point x="79" y="127"/>
      <point x="69" y="217"/>
      <point x="69" y="317" type="curve" smooth="yes"/>
    </contour>
  </outline>
</glyph>
<glyph name="one" format="1">
  <advance width="275"/>
  <unicode hex="0031"/>
  <outline>
    <contour>
      <point x="47" y="579" type="line"/>
      <point x="27" y="633" type="line"/>
      <point x="142" y="679" type="line"/>
      <point x="201" y="679" type="line"/>
      <point x="201" y="0" type="line"/>
      <point x="134" y="0" type="line"/>
      <point x="134" y="616" type="line"/>
    </contour>
  </outline>
</glyph>
<glyph name="two" format="1">
  <advance width="527"/>
  <unicode hex="0032"/>
  <outline>
    <contour>
      <point x="26" y="529" type="line"/>
      <point x="77" y="642"/>
      <point x="153" y="693"/>
      <point x="260" y="693" type="curve" smooth="yes"/>
      <point x="320" y="693"/>
      <point x="373" y="677"/>
      <point x="415" y="645" type="curve" smooth="yes"/>
      <point x="457" y="613"/>
      <point x="483" y="559"/>
      <point x="483" y="492" type="curve" smooth="yes"/>
      <point x="483" y="436"/>
      <point x="460" y="383"/>
      <point x="425" y="342" type="curve" smooth="yes"/>
      <point x="390" y="301"/>
      <point x="347" y="262"/>
      <point x="300" y="226" type="curve" smooth="yes"/>
      <point x="252" y="189"/>
      <point x="209" y="156"/>
      <point x="172" y="116" type="curve" smooth="yes"/>
      <point x="153" y="95"/>
      <point x="139" y="75"/>
      <point x="130" y="56" type="curve"/>
      <point x="473" y="56" type="line"/>
      <point x="473" y="0" type="line"/>
      <point x="47" y="0" type="line"/>
      <point x="47" y="60"/>
      <point x="78" y="117"/>
      <point x="122" y="161" type="curve" smooth="yes"/>
      <point x="165" y="204"/>
      <point x="217" y="245"/>
      <point x="268" y="285" type="curve" smooth="yes"/>
      <point x="319" y="324"/>
      <point x="364" y="363"/>
      <point x="390" y="414" type="curve" smooth="yes"/>
      <point x="403" y="439"/>
      <point x="409" y="466"/>
      <point x="409" y="493" type="curve" smooth="yes"/>
      <point x="409" y="581"/>
      <point x="345" y="636"/>
      <point x="266" y="636" type="curve" smooth="yes"/>
      <point x="185" y="636"/>
      <point x="125" y="592"/>
      <point x="85" y="505" type="curve"/>
    </contour>
  </outline>
</glyph>
<glyph name="three" format="1">
  <advance width="505"/>
  <unicode hex="0033"/>
  <outline>
    <contour>
      <point x="78" y="69" type="line"/>
      <point x="78" y="68"/>
      <point x="78" y="68"/>
      <point x="79" y="68" type="curve" smooth="yes"/>
      <point x="81" y="68" type="line"/>
      <point x="80" y="68" type="line"/>
      <point x="81" y="67"/>
      <point x="81" y="67"/>
      <point x="82" y="67" type="curve"/>
      <point x="84" y="73" type="line"/>
    </contour>
    <contour>
      <point x="82" y="565" type="line"/>
      <point x="81" y="564"/>
      <point x="81" y="564"/>
      <point x="80" y="564" type="curve" smooth="yes"/>
      <point x="79" y="564"/>
      <point x="79" y="564"/>
      <point x="79" y="564" type="curve"/>
      <point x="79" y="563"/>
      <point x="79" y="563"/>
      <point x="78" y="563" type="curve"/>
      <point x="84" y="560" type="line"/>
    </contour>
    <contour>
      <point x="145" y="300" type="line"/>
      <point x="144" y="300" type="line" smooth="yes"/>
      <point x="143" y="300"/>
      <point x="143" y="300"/>
      <point x="142" y="300" type="curve"/>
      <point x="141" y="299"/>
      <point x="141" y="299"/>
      <point x="140" y="299" type="curve"/>
      <point x="146" y="293" type="line"/>
    </contour>
    <contour>
      <point x="69" y="14" type="line"/>
      <point x="70" y="19" type="line"/>
      <point x="69" y="19"/>
      <point x="68" y="20"/>
      <point x="65" y="21" type="curve"/>
      <point x="64" y="22"/>
      <point x="63" y="22"/>
      <point x="62" y="22" type="curve"/>
    </contour>
    <contour>
      <point x="69" y="610" type="line"/>
      <point x="70" y="610" type="line"/>
      <point x="69" y="617" type="line"/>
      <point x="62" y="609" type="line"/>
    </contour>
    <contour>
      <point x="165" y="-5"/>
      <point x="115" y="2"/>
      <point x="70" y="19" type="curve"/>
      <point x="82" y="67" type="line"/>
      <point x="125" y="51"/>
      <point x="172" y="44"/>
      <point x="228" y="44" type="curve" smooth="yes"/>
      <point x="336" y="44"/>
      <point x="390" y="88"/>
      <point x="390" y="176" type="curve" smooth="yes"/>
      <point x="390" y="260"/>
      <point x="320" y="310"/>
      <point x="235" y="310" type="curve" smooth="yes"/>
      <point x="204" y="310"/>
      <point x="173" y="307"/>
      <point x="145" y="300" type="curve"/>
      <point x="142" y="347" type="line"/>
      <point x="159" y="350"/>
      <point x="175" y="352"/>
      <point x="190" y="354" type="curve" smooth="yes"/>
      <point x="219" y="358"/>
      <point x="244" y="364"/>
      <point x="267" y="372" type="curve"/>
      <point x="278" y="375"/>
      <point x="289" y="380"/>
      <point x="300" y="385" type="curve" smooth="yes"/>
      <point x="343" y="404"/>
      <point x="364" y="436"/>
      <point x="364" y="482" type="curve" smooth="yes"/>
      <point x="364" y="555"/>
      <point x="315" y="590"/>
      <point x="230" y="590" type="curve" smooth="yes"/>
      <point x="183" y="590"/>
      <point x="129" y="580"/>
      <point x="82" y="565" type="curve"/>
      <point x="70" y="610" type="line"/>
      <point x="125" y="629"/>
      <point x="178" y="639"/>
      <point x="229" y="639" type="curve" smooth="yes"/>
      <point x="348" y="639"/>
      <point x="417" y="584"/>
      <point x="417" y="487" type="curve" smooth="yes"/>
      <point x="417" y="446"/>
      <point x="407" y="414"/>
      <point x="387" y="391" type="curve" smooth="yes"/>
      <point x="368" y="370"/>
      <point x="335" y="353"/>
      <point x="288" y="334" type="curve"/>
      <point x="337" y="323"/>
      <point x="374" y="308"/>
      <point x="399" y="279" type="curve"/>
      <point x="430" y="246"/>
      <point x="443" y="208"/>
      <point x="443" y="163" type="curve" smooth="yes"/>
      <point x="443" y="111"/>
      <point x="429" y="71"/>
      <point x="401" y="43" type="curve"/>
      <point x="401" y="44" type="line"/>
      <point x="360" y="9"/>
      <point x="296" y="-5"/>
      <point x="224" y="-5" type="curve" smooth="yes"/>
    </contour>
  </outline>
</glyph>
<glyph name="four" format="1">
  <advance width="505"/>
  <unicode hex="0034"/>
  <outline>
    <contour>
      <point x="315" y="0" type="line"/>
      <point x="315" y="126" type="line"/>
      <point x="35" y="126" type="line"/>
      <point x="35" y="170" type="line"/>
      <point x="210" y="631" type="line"/>
      <point x="271" y="631" type="line"/>
      <point x="98" y="172" type="line"/>
      <point x="315" y="172" type="line"/>
      <point x="315" y="282" type="line"/>
      <point x="314" y="299"/>
      <point x="314" y="335"/>
      <point x="314" y="391" type="curve"/>
      <point x="375" y="391" type="line"/>
      <point x="375" y="172" type="line"/>
      <point x="455" y="172" type="line"/>
      <point x="455" y="126" type="line"/>
      <point x="375" y="126" type="line"/>
      <point x="375" y="0" type="line"/>
    </contour>
  </outline>
</glyph>
<glyph name="five" format="1">
  <advance width="503"/>
  <unicode hex="0035"/>
  <outline>
    <contour>
      <point x="380" y="231"/>
      <point x="369" y="270"/>
      <point x="348" y="297" type="curve"/>
      <point x="325" y="324"/>
      <point x="294" y="337"/>
      <point x="254" y="337" type="curve" smooth="yes"/>
      <point x="202" y="337"/>
      <point x="160" y="326"/>
      <point x="127" y="303" type="curve"/>
      <point x="110" y="309" type="line"/>
      <point x="105" y="311"/>
      <point x="100" y="313"/>
      <point x="93" y="314" type="curve"/>
      <point x="93" y="631" type="line"/>
      <point x="406" y="631" type="line"/>
      <point x="406" y="593" type="line"/>
      <point x="146" y="593" type="line"/>
      <point x="138" y="354" type="line"/>
      <point x="175" y="375"/>
      <point x="214" y="386"/>
      <point x="255" y="386" type="curve" smooth="yes"/>
      <point x="371" y="386"/>
      <point x="440" y="308"/>
      <point x="440" y="180" type="curve" smooth="yes"/>
      <point x="440" y="61"/>
      <point x="362" y="-5"/>
      <point x="226" y="-5" type="curve" smooth="yes"/>
      <point x="174" y="-5"/>
      <point x="109" y="6"/>
      <point x="69" y="23" type="curve"/>
      <point x="81" y="75" type="line"/>
      <point x="121" y="58"/>
      <point x="184" y="44"/>
      <point x="229" y="44" type="curve" smooth="yes"/>
      <point x="328" y="44"/>
      <point x="380" y="93"/>
      <point x="380" y="182" type="curve" smooth="yes"/>
    </contour>
    <contour>
      <point x="69" y="23" type="line"/>
      <point x="66" y="25" type="line"/>
      <point x="62" y="27" type="line"/>
      <point x="68" y="20" type="line"/>
    </contour>
  </outline>
</glyph>
<glyph name="six" format="1">
  <advance width="503"/>
  <unicode hex="0036"/>
  <outline>
    <contour>
      <point x="369" y="588" type="line"/>
      <point x="366" y="588" type="line"/>
      <point x="368" y="580" type="line"/>
      <point x="374" y="588" type="line"/>
    </contour>
    <contour>
      <point x="281" y="630"/>
      <point x="315" y="635"/>
      <point x="354" y="639" type="curve"/>
      <point x="366" y="588" type="line"/>
      <point x="207" y="584"/>
      <point x="123" y="506"/>
      <point x="113" y="354" type="curve"/>
      <point x="142" y="373"/>
      <point x="166" y="387"/>
      <point x="189" y="394" type="curve" smooth="yes"/>
      <point x="213" y="401"/>
      <point x="237" y="404"/>
      <point x="264" y="404" type="curve" smooth="yes"/>
      <point x="364" y="404"/>
      <point x="432" y="335"/>
      <point x="432" y="202" type="curve" smooth="yes"/>
      <point x="432" y="134"/>
      <point x="414" y="82"/>
      <point x="383" y="43" type="curve"/>
      <point x="384" y="43" type="line"/>
      <point x="340" y="0"/>
      <point x="283" y="-5"/>
      <point x="244" y="-5" type="curve" smooth="yes"/>
      <point x="108" y="-5"/>
      <point x="51" y="88"/>
      <point x="51" y="271" type="curve" smooth="yes"/>
      <point x="51" y="379"/>
      <point x="69" y="457"/>
      <point x="101" y="513" type="curve"/>
      <point x="115" y="540"/>
      <point x="135" y="562"/>
      <point x="161" y="579" type="curve" smooth="yes"/>
      <point x="188" y="596"/>
      <point x="218" y="610"/>
      <point x="249" y="619" type="curve"/>
    </contour>
    <contour>
      <point x="111" y="259" type="line" smooth="yes"/>
      <point x="111" y="186"/>
      <point x="121" y="132"/>
      <point x="142" y="97" type="curve"/>
      <point x="161" y="62"/>
      <point x="195" y="44"/>
      <point x="242" y="44" type="curve" smooth="yes"/>
      <point x="287" y="44"/>
      <point x="321" y="57"/>
      <point x="342" y="83" type="curve"/>
      <point x="361" y="110"/>
      <point x="371" y="151"/>
      <point x="371" y="207" type="curve" smooth="yes"/>
      <point x="371" y="256"/>
      <point x="361" y="294"/>
      <point x="344" y="317" type="curve"/>
      <point x="324" y="340"/>
      <point x="295" y="354"/>
      <point x="255" y="354" type="curve" smooth="yes"/>
      <point x="232" y="354"/>
      <point x="210" y="350"/>
      <point x="188" y="343" type="curve"/>
      <point x="179" y="339"/>
      <point x="168" y="334"/>
      <point x="156" y="327" type="curve" smooth="yes"/>
      <point x="143" y="320"/>
      <point x="128" y="311"/>
      <point x="111" y="302" type="curve"/>
    </contour>
  </outline>
</glyph>
<glyph name="seven" format="1">
  <advance width="442"/>
  <unicode hex="0037"/>
  <outline>
    <contour>
      <point x="124" y="-2" type="line"/>
      <point x="124" y="0" type="line"/>
      <point x="118" y="0" type="line"/>
      <point x="124" y="-6" type="line"/>
    </contour>
    <contour>
      <point x="188" y="0" type="line"/>
      <point x="188" y="-2" type="line"/>
      <point x="188" y="-6" type="line"/>
      <point x="194" y="0" type="line"/>
    </contour>
    <contour>
      <point x="396" y="597" type="line"/>
      <point x="384" y="577"/>
      <point x="368" y="544"/>
      <point x="348" y="503" type="curve" smooth="yes"/>
      <point x="328" y="462"/>
      <point x="305" y="411"/>
      <point x="282" y="355" type="curve" smooth="yes"/>
      <point x="258" y="298"/>
      <point x="236" y="234"/>
      <point x="217" y="170" type="curve" smooth="yes"/>
      <point x="197" y="106"/>
      <point x="188" y="48"/>
      <point x="188" y="0" type="curve"/>
      <point x="124" y="0" type="line"/>
      <point x="127" y="81"/>
      <point x="147" y="172"/>
      <point x="179" y="264" type="curve"/>
      <point x="215" y="353"/>
      <point x="269" y="470"/>
      <point x="333" y="590" type="curve"/>
      <point x="57" y="590" type="line"/>
      <point x="57" y="639" type="line"/>
      <point x="392" y="639" type="line"/>
    </contour>
  </outline>
</glyph>
<glyph name="eight" format="1">
  <advance width="521"/>
  <unicode hex="0038"/>
  <outline>
    <contour>
      <point x="83" y="523"/>
      <point x="91" y="551"/>
      <point x="108" y="574" type="curve"/>
      <point x="137" y="617"/>
      <point x="191" y="639"/>
      <point x="268" y="639" type="curve" smooth="yes"/>
      <point x="339" y="639"/>
      <point x="398" y="615"/>
      <point x="431" y="570" type="curve" smooth="yes"/>
      <point x="447" y="547"/>
      <point x="455" y="521"/>
      <point x="455" y="491" type="curve" smooth="yes"/>
      <point x="455" y="426"/>
      <point x="412" y="366"/>
      <point x="332" y="326" type="curve"/>
      <point x="414" y="285"/>
      <point x="455" y="226"/>
      <point x="455" y="149" type="curve" smooth="yes"/>
      <point x="455" y="100"/>
      <point x="435" y="61"/>
      <point x="396" y="32" type="curve"/>
      <point x="373" y="18"/>
      <point x="352" y="9"/>
      <point x="335" y="5" type="curve"/>
      <point x="315" y="-2"/>
      <point x="290" y="-5"/>
      <point x="261" y="-5" type="curve" smooth="yes"/>
      <point x="144" y="-5"/>
      <point x="66" y="53"/>
      <point x="66" y="148" type="curve" smooth="yes"/>
      <point x="66" y="223"/>
      <point x="114" y="291"/>
      <point x="195" y="331" type="curve"/>
      <point x="126" y="368"/>
      <point x="83" y="413"/>
      <point x="83" y="489" type="curve" smooth="yes"/>
    </contour>
    <contour>
      <point x="396" y="552"/>
      <point x="354" y="590"/>
      <point x="271" y="590" type="curve" smooth="yes"/>
      <point x="190" y="590"/>
      <point x="143" y="560"/>
      <point x="143" y="484" type="curve" smooth="yes"/>
      <point x="143" y="447"/>
      <point x="156" y="418"/>
      <point x="183" y="397" type="curve"/>
      <point x="206" y="377"/>
      <point x="224" y="368"/>
      <point x="276" y="347" type="curve"/>
      <point x="280" y="347" type="line"/>
      <point x="347" y="370"/>
      <point x="396" y="430"/>
      <point x="396" y="483" type="curve" smooth="yes"/>
    </contour>
    <contour>
      <point x="346" y="44"/>
      <point x="396" y="82"/>
      <point x="396" y="158" type="curve" smooth="yes"/>
      <point x="396" y="205"/>
      <point x="375" y="239"/>
      <point x="332" y="271" type="curve"/>
      <point x="313" y="283"/>
      <point x="300" y="290"/>
      <point x="293" y="293" type="curve"/>
      <point x="266" y="307" type="line"/>
      <point x="267" y="307" type="line"/>
      <point x="251" y="313" type="line"/>
      <point x="168" y="272"/>
      <point x="127" y="220"/>
      <point x="127" y="156" type="curve" smooth="yes"/>
      <point x="127" y="79"/>
      <point x="177" y="44"/>
      <point x="261" y="44" type="curve" smooth="yes"/>
    </contour>
  </outline>
</glyph>
<glyph name="nine" format="1">
  <advance width="505"/>
  <unicode hex="0039"/>
  <outline>
    <contour>
      <point x="371" y="374" type="line" smooth="yes"/>
      <point x="371" y="521"/>
      <point x="333" y="590"/>
      <point x="240" y="590" type="curve" smooth="yes"/>
      <point x="148" y="590"/>
      <point x="111" y="541"/>
      <point x="111" y="428" type="curve" smooth="yes"/>
      <point x="111" y="327"/>
      <point x="146" y="280"/>
      <point x="227" y="280" type="curve" smooth="yes"/>
      <point x="272" y="280"/>
      <point x="312" y="293"/>
      <point x="371" y="332" type="curve"/>
    </contour>
    <contour>
      <point x="113" y="43" type="line"/>
      <point x="116" y="43" type="line"/>
      <point x="114" y="50" type="line"/>
      <point x="108" y="43" type="line"/>
    </contour>
    <contour>
      <point x="361" y="209"/>
      <point x="366" y="240"/>
      <point x="367" y="280" type="curve"/>
      <point x="338" y="260"/>
      <point x="312" y="247"/>
      <point x="292" y="240" type="curve"/>
      <point x="268" y="233"/>
      <point x="244" y="229"/>
      <point x="219" y="229" type="curve" smooth="yes"/>
      <point x="115" y="229"/>
      <point x="51" y="299"/>
      <point x="51" y="432" type="curve" smooth="yes"/>
      <point x="51" y="500"/>
      <point x="67" y="553"/>
      <point x="99" y="591" type="curve"/>
      <point x="98" y="591" type="line"/>
      <point x="130" y="623"/>
      <point x="176" y="639"/>
      <point x="237" y="639" type="curve" smooth="yes"/>
      <point x="308" y="639"/>
      <point x="355" y="615"/>
      <point x="386" y="570" type="curve"/>
      <point x="415" y="523"/>
      <point x="432" y="455"/>
      <point x="432" y="363" type="curve" smooth="yes"/>
      <point x="432" y="230"/>
      <point x="404" y="136"/>
      <point x="351" y="81" type="curve" smooth="yes"/>
      <point x="298" y="25"/>
      <point x="223" y="0"/>
      <point x="128" y="-5" type="curve"/>
      <point x="116" y="43" type="line"/>
      <point x="199" y="44"/>
      <point x="267" y="72"/>
      <point x="310" y="113" type="curve"/>
      <point x="329" y="136"/>
      <point x="345" y="159"/>
      <point x="354" y="187" type="curve" smooth="yes"/>
    </contour>
  </outline>
</glyph>
<glyph name="colon" format="1">
  <advance width="234"/>
  <unicode hex="003A"/>
  <outline>
    <contour>
      <point x="150" y="315" type="line"/>
      <point x="72" y="315" type="line"/>
      <point x="72" y="412" type="line"/>
      <point x="150" y="412" type="line"/>
    </contour>
    <contour>
      <point x="150" y="19" type="line"/>
      <point x="72" y="19" type="line"/>
      <point x="72" y="113" type="line"/>
      <point x="150" y="113" type="line"/>
    </contour>
  </outline>
</glyph>
<glyph name="semicolon" format="1">
  <advance width="221"/>
  <unicode hex="003B"/>
  <outline>
    <contour>
      <point x="154" y="475" type="line"/>
      <point x="154" y="375" type="line"/>
      <point x="74" y="375" type="line"/>
      <point x="74" y="475" type="line"/>
    </contour>
    <contour>
      <point x="69" y="102" type="line"/>
      <point x="162" y="102" type="line"/>
      <point x="162" y="62" type="line" smooth="yes"/>
      <point x="159" y="-33"/>
      <point x="155" y="-79"/>
      <point x="99" y="-118" type="curve"/>
      <point x="76" y="-89" type="line"/>
      <point x="92" y="-76"/>
      <point x="112" y="-41"/>
      <point x="113" y="8" type="curve"/>
      <point x="69" y="13" type="line"/>
    </contour>
  </outline>
</glyph>
<glyph name="less" format="1">
  <advance width="490"/>
  <unicode hex="003C"/>
  <outline>
    <contour>
      <point x="110" y="292" type="line"/>
      <point x="163" y="255"/>
      <point x="216" y="218"/>
      <point x="271" y="181" type="curve" smooth="yes"/>
      <point x="326" y="144"/>
      <point x="380" y="106"/>
      <point x="433" y="68" type="curve"/>
      <point x="428" y="60"/>
      <point x="424" y="53"/>
      <point x="419" y="47" type="curve"/>
      <point x="414" y="40"/>
      <point x="410" y="33"/>
      <point x="405" y="26" type="curve"/>
      <point x="53" y="276" type="line"/>
      <point x="53" y="308" type="line"/>
      <point x="406" y="551" type="line"/>
      <point x="434" y="511" type="line"/>
    </contour>
  </outline>
</glyph>
<glyph name="equal" format="1">
  <advance width="380"/>
  <unicode hex="003D"/>
  <outline>
    <contour>
      <point x="63" y="256" type="line"/>
      <point x="63" y="301" type="line"/>
      <point x="317" y="301" type="line"/>
      <point x="317" y="256" type="line"/>
    </contour>
    <contour>
      <point x="63" y="139" type="line"/>
      <point x="63" y="185" type="line"/>
      <point x="317" y="185" type="line"/>
      <point x="317" y="139" type="line"/>
    </contour>
  </outline>
</glyph>
<glyph name="greater" format="1">
  <advance width="492"/>
  <unicode hex="003E"/>
  <outline>
    <contour>
      <point x="63" y="511" type="line"/>
      <point x="90" y="551" type="line"/>
      <point x="444" y="308" type="line"/>
      <point x="444" y="276" type="line"/>
      <point x="91" y="27" type="line"/>
      <point x="78" y="48" type="line"/>
      <point x="63" y="68" type="line"/>
      <point x="388" y="292" type="line"/>
    </contour>
  </outline>
</glyph>
<glyph name="question" format="1">
  <advance width="430"/>
  <unicode hex="003F"/>
  <outline>
    <contour>
      <point x="172" y="59" type="line"/>
      <point x="230" y="59" type="line"/>
      <point x="230" y="-7" type="line"/>
      <point x="172" y="-7" type="line"/>
    </contour>
    <contour>
      <point x="180" y="140" type="line"/>
      <point x="179" y="140"/>
      <point x="179" y="140"/>
      <point x="179" y="141" type="curve" smooth="yes"/>
      <point x="179" y="143" type="line"/>
      <point x="175" y="143" type="line"/>
      <point x="181" y="136" type="line"/>
    </contour>
    <contour>
      <point x="76" y="531" type="line"/>
      <point x="75" y="530" type="line"/>
      <point x="71" y="527" type="line"/>
      <point x="80" y="526" type="line"/>
    </contour>
    <contour>
      <point x="170" y="223" type="line"/>
      <point x="170" y="238"/>
      <point x="174" y="254"/>
      <point x="181" y="272" type="curve"/>
      <point x="180" y="271" type="line"/>
      <point x="187" y="287"/>
      <point x="196" y="302"/>
      <point x="209" y="317" type="curve"/>
      <point x="208" y="317" type="line"/>
      <point x="217" y="328" type="line" smooth="yes"/>
      <point x="228" y="341"/>
      <point x="239" y="354"/>
      <point x="250" y="367" type="curve"/>
      <point x="261" y="379"/>
      <point x="272" y="391"/>
      <point x="282" y="402" type="curve" smooth="yes"/>
      <point x="295" y="417"/>
      <point x="304" y="430"/>
      <point x="311" y="445" type="curve"/>
      <point x="318" y="463"/>
      <point x="322" y="479"/>
      <point x="322" y="493" type="curve" smooth="yes"/>
      <point x="322" y="522"/>
      <point x="314" y="546"/>
      <point x="298" y="565" type="curve"/>
      <point x="280" y="584"/>
      <point x="256" y="594"/>
      <point x="227" y="594" type="curve" smooth="yes"/>
      <point x="163" y="594"/>
      <point x="121" y="575"/>
      <point x="76" y="531" type="curve"/>
      <point x="50" y="570" type="line"/>
      <point x="52" y="572" type="line"/>
      <point x="51" y="568" type="line"/>
      <point x="87" y="611"/>
      <point x="153" y="643"/>
      <point x="222" y="643" type="curve" smooth="yes"/>
      <point x="267" y="643"/>
      <point x="307" y="628"/>
      <point x="335" y="603" type="curve" smooth="yes"/>
      <point x="363" y="578"/>
      <point x="379" y="540"/>
      <point x="379" y="496" type="curve" smooth="yes"/>
      <point x="379" y="457"/>
      <point x="366" y="425"/>
      <point x="347" y="398" type="curve" smooth="yes"/>
      <point x="336" y="383"/>
      <point x="324" y="370"/>
      <point x="313" y="359" type="curve" smooth="yes"/>
      <point x="302" y="348"/>
      <point x="290" y="336"/>
      <point x="279" y="325" type="curve"/>
      <point x="273" y="318"/>
      <point x="267" y="312"/>
      <point x="261" y="306" type="curve"/>
      <point x="255" y="299"/>
      <point x="250" y="294"/>
      <point x="247" y="289" type="curve"/>
      <point x="225" y="265"/>
      <point x="214" y="235"/>
      <point x="214" y="200" type="curve" smooth="yes"/>
      <point x="214" y="197"/>
      <point x="214" y="190"/>
      <point x="215" y="179" type="curve" smooth="yes"/>
      <point x="216" y="168"/>
      <point x="217" y="154"/>
      <point x="218" y="139" type="curve"/>
      <point x="211" y="139"/>
      <point x="204" y="140"/>
      <point x="198" y="141" type="curve" smooth="yes"/>
      <point x="191" y="142"/>
      <point x="185" y="142"/>
      <point x="179" y="143" type="curve"/>
      <point x="176" y="166" type="line"/>
      <point x="172" y="199" type="line"/>
      <point x="172" y="204" type="line"/>
    </contour>
  </outline>
</glyph>
<glyph name="at" format="1">
  <advance width="790"/>
  <unicode hex="0040"/>
  <outline>
    <contour>
      <point x="521" y="354" type="line"/>
      <point x="483" y="379"/>
      <point x="446" y="391"/>
      <point x="411" y="391" type="curve" smooth="yes"/>
      <point x="354" y="391"/>
      <point x="306" y="353"/>
      <point x="282" y="294" type="curve" smooth="yes"/>
      <point x="270" y="264"/>
      <point x="264" y="231"/>
      <point x="264" y="196" type="curve" smooth="yes"/>
      <point x="264" y="164"/>
      <point x="272" y="136"/>
      <point x="287" y="113" type="curve" smooth="yes"/>
      <point x="302" y="90"/>
      <point x="328" y="76"/>
      <point x="361" y="76" type="curve" smooth="yes"/>
      <point x="380" y="76"/>
      <point x="400" y="81"/>
      <point x="424" y="96" type="curve" smooth="yes"/>
      <point x="447" y="111"/>
      <point x="467" y="133"/>
      <point x="483" y="171" type="curve" smooth="yes"/>
      <point x="491" y="190"/>
      <point x="497" y="211"/>
      <point x="501" y="234" type="curve" smooth="yes"/>
    </contour>
    <contour>
      <point x="436" y="50" type="curve" smooth="yes"/>
      <point x="411" y="37"/>
      <point x="386" y="31"/>
      <point x="354" y="31" type="curve" smooth="yes"/>
      <point x="323" y="31"/>
      <point x="293" y="40"/>
      <point x="272" y="55" type="curve" smooth="yes"/>
      <point x="251" y="70"/>
      <point x="234" y="92"/>
      <point x="223" y="117" type="curve" smooth="yes"/>
      <point x="212" y="141"/>
      <point x="206" y="169"/>
      <point x="206" y="198" type="curve" smooth="yes"/>
      <point x="206" y="255"/>
      <point x="228" y="316"/>
      <point x="261" y="360" type="curve" smooth="yes"/>
      <point x="293" y="404"/>
      <point x="345" y="435"/>
      <point x="402" y="435" type="curve" smooth="yes"/>
      <point x="444" y="435"/>
      <point x="487" y="420"/>
      <point x="531" y="391" type="curve"/>
      <point x="542" y="426" type="line"/>
      <point x="588" y="426" type="line"/>
      <point x="545" y="151" type="line" smooth="yes"/>
      <point x="545" y="132"/>
      <point x="556" y="114"/>
      <point x="569" y="103" type="curve" smooth="yes"/>
      <point x="576" y="98"/>
      <point x="583" y="95"/>
      <point x="592" y="95" type="curve" smooth="yes"/>
      <point x="604" y="95"/>
      <point x="617" y="101"/>
      <point x="629" y="111" type="curve" smooth="yes"/>
      <point x="641" y="121"/>
      <point x="653" y="136"/>
      <point x="662" y="157" type="curve" smooth="yes"/>
      <point x="671" y="177"/>
      <point x="676" y="201"/>
      <point x="680" y="233" type="curve" smooth="yes"/>
      <point x="682" y="248"/>
      <point x="683" y="265"/>
      <point x="683" y="282" type="curve" smooth="yes"/>
      <point x="683" y="343"/>
      <point x="663" y="399"/>
      <point x="628" y="439" type="curve" smooth="yes"/>
      <point x="593" y="478"/>
      <point x="548" y="508"/>
      <point x="494" y="523" type="curve" smooth="yes"/>
      <point x="467" y="530"/>
      <point x="439" y="534"/>
      <point x="411" y="534" type="curve" smooth="yes"/>
      <point x="371" y="534"/>
      <point x="331" y="526"/>
      <point x="299" y="512" type="curve" smooth="yes"/>
      <point x="266" y="498"/>
      <point x="235" y="476"/>
      <point x="210" y="452" type="curve" smooth="yes"/>
      <point x="185" y="427"/>
      <point x="164" y="398"/>
      <point x="149" y="367" type="curve" smooth="yes"/>
      <point x="133" y="335"/>
      <point x="122" y="303"/>
      <point x="116" y="268" type="curve" smooth="yes"/>
      <point x="113" y="251"/>
      <point x="111" y="234"/>
      <point x="111" y="217" type="curve" smooth="yes"/>
      <point x="111" y="69"/>
      <point x="200" y="-55"/>
      <point x="389" y="-56" type="curve" smooth="yes"/>
      <point x="446" y="-56"/>
      <point x="510" y="-42"/>
      <point x="579" y="-14" type="curve"/>
      <point x="598" y="-48" type="line"/>
      <point x="525" y="-85"/>
      <point x="455" y="-104"/>
      <point x="390" y="-104" type="curve" smooth="yes"/>
      <point x="301" y="-104"/>
      <point x="223" y="-77"/>
      <point x="171" y="-37" type="curve" smooth="yes"/>
      <point x="119" y="3"/>
      <point x="82" y="62"/>
      <point x="66" y="124" type="curve" smooth="yes"/>
      <point x="57" y="155"/>
      <point x="53" y="187"/>
      <point x="53" y="220" type="curve" smooth="yes"/>
      <point x="53" y="293"/>
      <point x="73" y="363"/>
      <point x="113" y="424" type="curve" smooth="yes"/>
      <point x="153" y="485"/>
      <point x="208" y="534"/>
      <point x="285" y="562" type="curve" smooth="yes"/>
      <point x="324" y="575"/>
      <point x="365" y="582"/>
      <point x="409" y="582" type="curve" smooth="yes"/>
      <point x="478" y="582"/>
      <point x="545" y="563"/>
      <point x="600" y="527" type="curve" smooth="yes"/>
      <point x="655" y="491"/>
      <point x="697" y="443"/>
      <point x="721" y="379" type="curve" smooth="yes"/>
      <point x="732" y="346"/>
      <point x="738" y="312"/>
      <point x="738" y="276" type="curve" smooth="yes"/>
      <point x="738" y="240"/>
      <point x="733" y="206"/>
      <point x="726" y="179" type="curve" smooth="yes"/>
      <point x="718" y="151"/>
      <point x="707" y="127"/>
      <point x="693" y="109" type="curve" smooth="yes"/>
      <point x="679" y="91"/>
      <point x="662" y="75"/>
      <point x="644" y="66" type="curve" smooth="yes"/>
      <point x="626" y="57"/>
      <point x="604" y="52"/>
      <point x="583" y="52" type="curve" smooth="yes"/>
      <point x="564" y="52"/>
      <point x="546" y="58"/>
      <point x="527" y="79" type="curve" smooth="yes"/>
      <point x="518" y="89"/>
      <point x="511" y="102"/>
      <point x="506" y="117" type="curve"/>
      <point x="485" y="84"/>
      <point x="461" y="62"/>
    </contour>
  </outline>
</glyph>
<glyph name="A" format="1">
  <advance width="543"/>
  <unicode hex="0041"/>
  <outline>
    <contour>
      <point x="161" y="201" type="line"/>
      <point x="395" y="201" type="line"/>
      <point x="280" y="586" type="line"/>
    </contour>
    <contour>
      <point x="519" y="0" type="line"/>
      <point x="458" y="0" type="line"/>
      <point x="409" y="163" type="line"/>
      <point x="147" y="163" type="line"/>
      <point x="96" y="0" type="line"/>
      <point x="32" y="0" type="line"/>
      <point x="233" y="627" type="line"/>
      <point x="327" y="627" type="line"/>
    </contour>
  </outline>
</glyph>
<glyph name="B" format="1">
  <advance width="600"/>
  <unicode hex="0042"/>
  <outline>
    <contour>
      <point x="136" y="630" type="line"/>
      <point x="136" y="389" type="line"/>
      <point x="241" y="389" type="line" smooth="yes"/>
      <point x="260" y="389"/>
      <point x="276" y="389"/>
      <point x="289" y="389" type="curve" smooth="yes"/>
      <point x="313" y="389"/>
      <point x="346" y="390"/>
      <point x="365" y="393" type="curve" smooth="yes"/>
      <point x="384" y="396"/>
      <point x="409" y="400"/>
      <point x="422" y="406" type="curve" smooth="yes"/>
      <point x="435" y="412"/>
      <point x="450" y="421"/>
      <point x="459" y="433" type="curve"/>
      <point x="467" y="445"/>
      <point x="473" y="460"/>
      <point x="476" y="479" type="curve"/>
      <point x="477" y="488"/>
      <point x="478" y="499"/>
      <point x="478" y="510" type="curve" smooth="yes"/>
      <point x="478" y="535"/>
      <point x="473" y="556"/>
      <point x="466" y="572" type="curve"/>
      <point x="458" y="587"/>
      <point x="443" y="599"/>
      <point x="430" y="608" type="curve"/>
      <point x="417" y="616"/>
      <point x="393" y="621"/>
      <point x="377" y="624" type="curve" smooth="yes"/>
      <point x="360" y="627"/>
      <point x="331" y="629"/>
      <point x="312" y="630" type="curve"/>
      <point x="302" y="630"/>
      <point x="290" y="630"/>
      <point x="275" y="630" type="curve" smooth="yes"/>
    </contour>
    <contour>
      <point x="137" y="338" type="line"/>
      <point x="137" y="49" type="line"/>
      <point x="282" y="49" type="line" smooth="yes"/>
      <point x="318" y="49"/>
      <point x="337" y="50"/>
      <point x="369" y="54" type="curve" smooth="yes"/>
      <point x="401" y="58"/>
      <point x="420" y="65"/>
      <point x="444" y="79" type="curve" smooth="yes"/>
      <point x="467" y="93"/>
      <point x="481" y="112"/>
      <point x="490" y="142" type="curve" smooth="yes"/>
      <point x="494" y="157"/>
      <point x="496" y="174"/>
      <point x="496" y="193" type="curve" smooth="yes"/>
      <point x="496" y="224"/>
      <point x="490" y="249"/>
      <point x="482" y="268" type="curve" smooth="yes"/>
      <point x="474" y="287"/>
      <point x="458" y="302"/>
      <point x="443" y="311" type="curve" smooth="yes"/>
      <point x="428" y="320"/>
      <point x="404" y="329"/>
      <point x="385" y="333" type="curve"/>
      <point x="365" y="336"/>
      <point x="335" y="337"/>
      <point x="313" y="338" type="curve"/>
      <point x="302" y="338"/>
      <point x="289" y="338"/>
      <point x="274" y="338" type="curve" smooth="yes"/>
    </contour>
    <contour>
      <point x="68" y="0" type="line"/>
      <point x="68" y="679" type="line"/>
      <point x="273" y="679" type="line" smooth="yes"/>
      <point x="316" y="679"/>
      <point x="349" y="676"/>
      <point x="387" y="671" type="curve" smooth="yes"/>
      <point x="425" y="666"/>
      <point x="453" y="655"/>
      <point x="481" y="638" type="curve" smooth="yes"/>
      <point x="508" y="621"/>
      <point x="525" y="599"/>
      <point x="535" y="565" type="curve" smooth="yes"/>
      <point x="540" y="548"/>
      <point x="542" y="529"/>
      <point x="542" y="508" type="curve" smooth="yes"/>
      <point x="542" y="429"/>
      <point x="500" y="382"/>
      <point x="417" y="367" type="curve"/>
      <point x="514" y="347"/>
      <point x="563" y="283"/>
      <point x="563" y="192" type="curve" smooth="yes"/>
      <point x="563" y="116"/>
      <point x="541" y="67"/>
      <point x="489" y="39" type="curve" smooth="yes"/>
      <point x="436" y="10"/>
      <point x="365" y="0"/>
      <point x="256" y="0" type="curve" smooth="yes"/>
    </contour>
  </outline>
</glyph>
<glyph name="C" format="1">
  <advance width="626"/>
  <unicode hex="0043"/>
  <outline>
    <contour>
      <point x="589" y="511" type="curve"/>
      <point x="526" y="497" type="line"/>
      <point x="505" y="582"/>
      <point x="443" y="637"/>
      <point x="340" y="637" type="curve" smooth="yes"/>
      <point x="185" y="637"/>
      <point x="124" y="535"/>
      <point x="124" y="342" type="curve" smooth="yes"/>
      <point x="124" y="259"/>
      <point x="132" y="201"/>
      <point x="152" y="152" type="curve" smooth="yes"/>
      <point x="172" y="103"/>
      <point x="205" y="71"/>
      <point x="254" y="55" type="curve" smooth="yes"/>
      <point x="279" y="47"/>
      <point x="308" y="43"/>
      <point x="341" y="43" type="curve" smooth="yes"/>
      <point x="437" y="43"/>
      <point x="501" y="87"/>
      <point x="533" y="175" type="curve"/>
      <point x="591" y="157" type="line"/>
      <point x="554" y="45"/>
      <point x="461" y="-11"/>
      <point x="337" y="-11" type="curve" smooth="yes"/>
      <point x="146" y="-11"/>
      <point x="53" y="95"/>
      <point x="53" y="342" type="curve" smooth="yes"/>
      <point x="53" y="582"/>
      <point x="158" y="692"/>
      <point x="342" y="692" type="curve" smooth="yes"/>
      <point x="466" y="692"/>
      <point x="556" y="630"/>
    </contour>
  </outline>
</glyph>
<glyph name="D" format="1">
  <advance width="650"/>
  <unicode hex="0044"/>
  <outline>
    <contour>
      <point x="68" y="679" type="line"/>
      <point x="302" y="679" type="line" smooth="yes"/>
      <point x="401" y="679"/>
      <point x="470" y="657"/>
      <point x="522" y="605" type="curve" smooth="yes"/>
      <point x="573" y="553"/>
      <point x="597" y="466"/>
      <point x="597" y="342" type="curve" smooth="yes"/>
      <point x="597" y="178"/>
      <point x="554" y="78"/>
      <point x="468" y="34" type="curve" smooth="yes"/>
      <point x="425" y="11"/>
      <point x="368" y="0"/>
      <point x="299" y="0" type="curve" smooth="yes"/>
      <point x="68" y="0" type="line"/>
    </contour>
    <contour>
      <point x="137" y="626" type="line"/>
      <point x="137" y="53" type="line"/>
      <point x="277" y="53" type="line" smooth="yes"/>
      <point x="373" y="53"/>
      <point x="436" y="72"/>
      <point x="476" y="120" type="curve" smooth="yes"/>
      <point x="515" y="168"/>
      <point x="531" y="235"/>
      <point x="531" y="342" type="curve" smooth="yes"/>
      <point x="531" y="437"/>
      <point x="518" y="501"/>
      <point x="484" y="552" type="curve" smooth="yes"/>
      <point x="450" y="603"/>
      <point x="391" y="626"/>
      <point x="303" y="626" type="curve" smooth="yes"/>
    </contour>
  </outline>
</glyph>
<glyph name="E" format="1">
  <advance width="465"/>
  <unicode hex="0045"/>
  <outline>
    <contour>
      <point x="137" y="308" type="line"/>
      <point x="137" y="38" type="line"/>
      <point x="417" y="38" type="line"/>
      <point x="421" y="18" type="line"/>
      <point x="425" y="0" type="line"/>
      <point x="77" y="0" type="line"/>
      <point x="77" y="627" type="line"/>
      <point x="422" y="627" type="line"/>
      <point x="412" y="589" type="line"/>
      <point x="137" y="589" type="line"/>
      <point x="137" y="352" type="line"/>
      <point x="395" y="352" type="line"/>
      <point x="395" y="308" type="line"/>
    </contour>
  </outline>
</glyph>
<glyph name="F" format="1">
  <advance width="507"/>
  <unicode hex="0046"/>
  <outline>
    <contour>
      <point x="518" y="627" type="line"/>
      <point x="137" y="627" type="line"/>
      <point x="137" y="385" type="line"/>
      <point x="468" y="385" type="line"/>
      <point x="468" y="332" type="line"/>
      <point x="137" y="332" type="line"/>
      <point x="137" y="0" type="line"/>
      <point x="68" y="0" type="line"/>
      <point x="68" y="679" type="line"/>
      <point x="518" y="679" type="line"/>
    </contour>
  </outline>
</glyph>
<glyph name="G" format="1">
  <advance width="550"/>
  <unicode hex="0047"/>
  <outline>
    <contour>
      <point x="478" y="39" type="line"/>
      <point x="453" y="28" type="line" smooth="yes"/>
      <point x="416" y="11"/>
      <point x="387" y="2"/>
      <point x="344" y="-2" type="curve" smooth="yes"/>
      <point x="323" y="-4"/>
      <point x="307" y="-5"/>
      <point x="297" y="-5" type="curve" smooth="yes"/>
      <point x="177" y="-5"/>
      <point x="113" y="38"/>
      <point x="82" y="130" type="curve" smooth="yes"/>
      <point x="67" y="176"/>
      <point x="59" y="238"/>
      <point x="59" y="317" type="curve" smooth="yes"/>
      <point x="59" y="537"/>
      <point x="136" y="635"/>
      <point x="304" y="635" type="curve" smooth="yes"/>
      <point x="360" y="635"/>
      <point x="414" y="623"/>
      <point x="467" y="600" type="curve"/>
      <point x="467" y="569"/>
      <point x="467" y="550"/>
      <point x="468" y="541" type="curve" smooth="yes"/>
      <point x="469" y="532"/>
      <point x="469" y="512"/>
      <point x="469" y="481" type="curve"/>
      <point x="419" y="481" type="line"/>
      <point x="419" y="566" type="line"/>
      <point x="386" y="579"/>
      <point x="350" y="586"/>
      <point x="311" y="586" type="curve" smooth="yes"/>
      <point x="258" y="586"/>
      <point x="222" y="579"/>
      <point x="190" y="555" type="curve" smooth="yes"/>
      <point x="173" y="543"/>
      <point x="160" y="528"/>
      <point x="151" y="509" type="curve"/>
      <point x="128" y="466"/>
      <point x="116" y="403"/>
      <point x="116" y="321" type="curve" smooth="yes"/>
      <point x="116" y="222"/>
      <point x="129" y="151"/>
      <point x="154" y="108" type="curve"/>
      <point x="182" y="65"/>
      <point x="231" y="44"/>
      <point x="300" y="44" type="curve" smooth="yes"/>
      <point x="351" y="44"/>
      <point x="396" y="52"/>
      <point x="434" y="68" type="curve"/>
      <point x="434" y="277" type="line"/>
      <point x="312" y="277" type="line"/>
      <point x="312" y="322" type="line"/>
      <point x="487" y="322" type="line"/>
      <point x="487" y="44" type="line"/>
    </contour>
  </outline>
</glyph>
<glyph name="H" format="1">
  <advance width="675"/>
  <unicode hex="0048"/>
  <outline>
    <contour>
      <point x="540" y="388" type="line"/>
      <point x="540" y="679" type="line"/>
      <point x="607" y="679" type="line"/>
      <point x="607" y="0" type="line"/>
      <point x="540" y="0" type="line"/>
      <point x="540" y="334" type="line"/>
      <point x="137" y="334" type="line"/>
      <point x="137" y="0" type="line"/>
      <point x="68" y="0" type="line"/>
      <point x="68" y="679" type="line"/>
      <point x="137" y="679" type="line"/>
      <point x="137" y="388" type="line"/>
    </contour>
  </outline>
</glyph>
<glyph name="I" format="1">
  <advance width="216"/>
  <unicode hex="0049"/>
  <outline>
    <contour>
      <point x="143" y="0" type="line"/>
      <point x="76" y="0" type="line"/>
      <point x="76" y="679" type="line"/>
      <point x="143" y="679" type="line"/>
    </contour>
  </outline>
</glyph>
<glyph name="J" format="1">
  <advance width="321"/>
  <unicode hex="004A"/>
  <outline>
    <contour>
      <point x="57" y="589" type="line"/>
      <point x="57" y="627" type="line"/>
      <point x="246" y="627" type="line"/>
      <point x="246" y="42" type="line" smooth="yes"/>
      <point x="246" y="-14"/>
      <point x="235" y="-55"/>
      <point x="214" y="-80" type="curve"/>
      <point x="191" y="-103"/>
      <point x="157" y="-115"/>
      <point x="113" y="-115" type="curve" smooth="yes"/>
      <point x="86" y="-115"/>
      <point x="58" y="-110"/>
      <point x="28" y="-101" type="curve"/>
      <point x="32" y="-77" type="line"/>
      <point x="35" y="-54" type="line"/>
      <point x="57" y="-63"/>
      <point x="82" y="-67"/>
      <point x="109" y="-67" type="curve" smooth="yes"/>
      <point x="166" y="-67"/>
      <point x="187" y="-37"/>
      <point x="187" y="43" type="curve" smooth="yes"/>
      <point x="187" y="589" type="line"/>
    </contour>
    <contour>
      <point x="21" y="-99" type="line"/>
      <point x="24" y="-99" type="line"/>
      <point x="28" y="-101" type="line"/>
      <point x="27" y="-102"/>
      <point x="27" y="-103"/>
      <point x="27" y="-105" type="curve"/>
    </contour>
  </outline>
</glyph>
<glyph name="K" format="1">
  <advance width="520"/>
  <unicode hex="004B"/>
  <outline>
    <contour>
      <point x="219" y="376" type="line"/>
      <point x="420" y="627" type="line"/>
      <point x="489" y="627" type="line"/>
      <point x="277" y="353" type="line"/>
      <point x="503" y="0" type="line"/>
      <point x="438" y="0" type="line"/>
      <point x="229" y="325" type="line"/>
      <point x="137" y="237" type="line"/>
      <point x="137" y="0" type="line"/>
      <point x="77" y="0" type="line"/>
      <point x="77" y="627" type="line"/>
      <point x="137" y="627" type="line"/>
      <point x="137" y="288" type="line"/>
    </contour>
  </outline>
</glyph>
<glyph name="L" format="1">
  <advance width="473"/>
  <unicode hex="004C"/>
  <outline>
    <contour>
      <point x="483" y="0" type="line"/>
      <point x="68" y="0" type="line"/>
      <point x="68" y="679" type="line"/>
      <point x="137" y="679" type="line"/>
      <point x="137" y="52" type="line"/>
      <point x="483" y="52" type="line"/>
    </contour>
  </outline>
</glyph>
<glyph name="M" format="1">
  <advance width="763"/>
  <unicode hex="004D"/>
  <outline>
    <contour>
      <point x="68" y="0" type="line"/>
      <point x="68" y="678" type="line"/>
      <point x="166" y="678" type="line"/>
      <point x="383" y="188" type="line"/>
      <point x="606" y="678" type="line"/>
      <point x="694" y="678" type="line"/>
      <point x="694" y="0" type="line"/>
      <point x="633" y="0" type="line"/>
      <point x="633" y="592" type="line"/>
      <point x="412" y="116" type="line"/>
      <point x="350" y="116" type="line"/>
      <point x="133" y="594" type="line"/>
      <point x="133" y="0" type="line"/>
    </contour>
  </outline>
</glyph>
<glyph name="N" format="1">
  <advance width="692"/>
  <unicode hex="004E"/>
  <outline>
    <contour>
      <point x="68" y="0" type="line"/>
      <point x="68" y="679" type="line"/>
      <point x="144" y="679" type="line"/>
      <point x="563" y="103" type="line"/>
      <point x="563" y="285" type="line"/>
      <point x="563" y="679" type="line"/>
      <point x="623" y="679" type="line"/>
      <point x="623" y="0" type="line"/>
      <point x="561" y="0" type="line"/>
      <point x="130" y="598" type="line"/>
      <point x="130" y="534"/>
      <point x="130" y="406" type="curve" smooth="yes"/>
      <point x="130" y="0" type="line"/>
    </contour>
  </outline>
</glyph>
<glyph name="O" format="1">
  <advance width="673"/>
  <unicode hex="004F"/>
  <outline>
    <contour>
      <point x="426" y="692"/>
      <point x="493" y="667"/>
      <point x="543" y="612" type="curve" smooth="yes"/>
      <point x="593" y="557"/>
      <point x="619" y="467"/>
      <point x="619" y="344" type="curve" smooth="yes"/>
      <point x="619" y="97"/>
      <point x="522" y="-11"/>
      <point x="335" y="-11" type="curve" smooth="yes"/>
      <point x="244" y="-11"/>
      <point x="176" y="14"/>
      <point x="127" y="70" type="curve" smooth="yes"/>
      <point x="78" y="125"/>
      <point x="53" y="216"/>
      <point x="53" y="343" type="curve" smooth="yes"/>
      <point x="53" y="467"/>
      <point x="79" y="557"/>
      <point x="128" y="612" type="curve" smooth="yes"/>
      <point x="177" y="667"/>
      <point x="246" y="692"/>
      <point x="335" y="692" type="curve" smooth="yes"/>
    </contour>
    <contour>
      <point x="271" y="637"/>
      <point x="222" y="619"/>
      <point x="190" y="586" type="curve" smooth="yes"/>
      <point x="158" y="553"/>
      <point x="139" y="502"/>
      <point x="131" y="444" type="curve" smooth="yes"/>
      <point x="126" y="415"/>
      <point x="124" y="381"/>
      <point x="124" y="344" type="curve" smooth="yes"/>
      <point x="124" y="135"/>
      <point x="182" y="43"/>
      <point x="335" y="43" type="curve" smooth="yes"/>
      <point x="490" y="43"/>
      <point x="547" y="134"/>
      <point x="547" y="343" type="curve" smooth="yes"/>
      <point x="547" y="418"/>
      <point x="540" y="475"/>
      <point x="520" y="524" type="curve" smooth="yes"/>
      <point x="499" y="573"/>
      <point x="468" y="607"/>
      <point x="420" y="624" type="curve" smooth="yes"/>
      <point x="396" y="633"/>
      <point x="368" y="637"/>
      <point x="335" y="637" type="curve" smooth="yes"/>
    </contour>
  </outline>
</glyph>
<glyph name="P" format="1">
  <advance width="581"/>
  <unicode hex="0050"/>
  <outline>
    <contour>
      <point x="141" y="626" type="line"/>
      <point x="141" y="347" type="line"/>
      <point x="267" y="347" type="line" smooth="yes"/>
      <point x="338" y="347"/>
      <point x="383" y="352"/>
      <point x="423" y="364" type="curve" smooth="yes"/>
      <point x="462" y="376"/>
      <point x="482" y="398"/>
      <point x="494" y="431" type="curve" smooth="yes"/>
      <point x="500" y="447"/>
      <point x="503" y="467"/>
      <point x="503" y="490" type="curve" smooth="yes"/>
      <point x="503" y="536"/>
      <point x="491" y="567"/>
      <point x="468" y="588" type="curve" smooth="yes"/>
      <point x="445" y="608"/>
      <point x="402" y="618"/>
      <point x="352" y="623" type="curve" smooth="yes"/>
      <point x="327" y="625"/>
      <point x="295" y="626"/>
      <point x="257" y="626" type="curve" smooth="yes"/>
    </contour>
    <contour>
      <point x="68" y="0" type="line"/>
      <point x="68" y="679" type="line"/>
      <point x="269" y="679" type="line" smooth="yes"/>
      <point x="490" y="679"/>
      <point x="571" y="630"/>
      <point x="571" y="493" type="curve" smooth="yes"/>
      <point x="571" y="430"/>
      <point x="555" y="386"/>
      <point x="524" y="355" type="curve" smooth="yes"/>
      <point x="492" y="324"/>
      <point x="436" y="308"/>
      <point x="367" y="300" type="curve" smooth="yes"/>
      <point x="332" y="296"/>
      <point x="290" y="294"/>
      <point x="241" y="294" type="curve" smooth="yes"/>
      <point x="139" y="294" type="line"/>
      <point x="139" y="0" type="line"/>
    </contour>
  </outline>
</glyph>
<glyph name="Q" format="1">
  <advance width="568"/>
  <unicode hex="0051"/>
  <outline>
    <contour>
      <point x="181" y="65"/>
      <point x="224" y="44"/>
      <point x="287" y="44" type="curve" smooth="yes"/>
      <point x="319" y="44"/>
      <point x="346" y="49"/>
      <point x="369" y="58" type="curve"/>
      <point x="306" y="143" type="line"/>
      <point x="311" y="147"/>
      <point x="317" y="151"/>
      <point x="323" y="155" type="curve"/>
      <point x="328" y="158"/>
      <point x="334" y="162"/>
      <point x="339" y="167" type="curve"/>
      <point x="401" y="83" type="line"/>
      <point x="420" y="106"/>
      <point x="434" y="137"/>
      <point x="441" y="172" type="curve" smooth="yes"/>
      <point x="448" y="209"/>
      <point x="452" y="255"/>
      <point x="452" y="314" type="curve" smooth="yes"/>
      <point x="452" y="411"/>
      <point x="440" y="481"/>
      <point x="416" y="523" type="curve" smooth="yes"/>
      <point x="393" y="566"/>
      <point x="350" y="587"/>
      <point x="286" y="587" type="curve" smooth="yes"/>
      <point x="162" y="587"/>
      <point x="122" y="510"/>
      <point x="122" y="314" type="curve" smooth="yes"/>
      <point x="122" y="217"/>
      <point x="133" y="147"/>
      <point x="156" y="106" type="curve"/>
    </contour>
    <contour>
      <point x="499" y="-54" type="line"/>
      <point x="493" y="-59"/>
      <point x="488" y="-62"/>
      <point x="483" y="-65" type="curve" smooth="yes"/>
      <point x="478" y="-68"/>
      <point x="473" y="-72"/>
      <point x="468" y="-77" type="curve"/>
      <point x="401" y="14" type="line"/>
      <point x="369" y="-2"/>
      <point x="332" y="-8"/>
      <point x="287" y="-8" type="curve" smooth="yes"/>
      <point x="212" y="-8"/>
      <point x="129" y="6"/>
      <point x="89" y="114" type="curve" smooth="yes"/>
      <point x="69" y="170"/>
      <point x="62" y="229"/>
      <point x="62" y="316" type="curve" smooth="yes"/>
      <point x="62" y="367"/>
      <point x="66" y="413"/>
      <point x="73" y="454" type="curve" smooth="yes"/>
      <point x="80" y="493"/>
      <point x="92" y="525"/>
      <point x="107" y="554" type="curve"/>
      <point x="142" y="611"/>
      <point x="197" y="639"/>
      <point x="286" y="639" type="curve" smooth="yes"/>
      <point x="374" y="639"/>
      <point x="429" y="613"/>
      <point x="465" y="554" type="curve" smooth="yes"/>
      <point x="482" y="526"/>
      <point x="493" y="490"/>
      <point x="501" y="453" type="curve"/>
      <point x="508" y="412"/>
      <point x="512" y="367"/>
      <point x="512" y="316" type="curve" smooth="yes"/>
      <point x="512" y="179"/>
      <point x="491" y="91"/>
      <point x="435" y="36" type="curve"/>
    </contour>
  </outline>
</glyph>
<glyph name="R" format="1">
  <advance width="597"/>
  <unicode hex="0052"/>
  <outline>
    <contour>
      <point x="136" y="629" type="line"/>
      <point x="136" y="365" type="line"/>
      <point x="298" y="365" type="line" smooth="yes"/>
      <point x="343" y="365"/>
      <point x="374" y="367"/>
      <point x="410" y="378" type="curve" smooth="yes"/>
      <point x="446" y="389"/>
      <point x="468" y="406"/>
      <point x="483" y="439" type="curve" smooth="yes"/>
      <point x="490" y="456"/>
      <point x="494" y="475"/>
      <point x="494" y="498" type="curve" smooth="yes"/>
      <point x="494" y="545"/>
      <point x="478" y="577"/>
      <point x="457" y="596" type="curve" smooth="yes"/>
      <point x="436" y="615"/>
      <point x="397" y="624"/>
      <point x="366" y="627" type="curve" smooth="yes"/>
      <point x="351" y="628"/>
      <point x="332" y="629"/>
      <point x="310" y="629" type="curve" smooth="yes"/>
    </contour>
    <contour>
      <point x="416" y="322" type="curve"/>
      <point x="574" y="0" type="line"/>
      <point x="502" y="0" type="line"/>
      <point x="348" y="313" type="line"/>
      <point x="136" y="313" type="line"/>
      <point x="136" y="0" type="line"/>
      <point x="68" y="0" type="line"/>
      <point x="68" y="679" type="line"/>
      <point x="314" y="679" type="line" smooth="yes"/>
      <point x="491" y="679"/>
      <point x="563" y="623"/>
      <point x="563" y="499" type="curve" smooth="yes"/>
      <point x="563" y="406"/>
      <point x="516" y="349"/>
    </contour>
  </outline>
</glyph>
<glyph name="S" format="1">
  <advance width="564"/>
  <unicode hex="0053"/>
  <outline>
    <contour>
      <point x="522" y="571" type="curve"/>
      <point x="473" y="534" type="line"/>
      <point x="437" y="598"/>
      <point x="371" y="633"/>
      <point x="296" y="633" type="curve" smooth="yes"/>
      <point x="199" y="633"/>
      <point x="132" y="598"/>
      <point x="132" y="523" type="curve" smooth="yes"/>
      <point x="132" y="495"/>
      <point x="146" y="470"/>
      <point x="165" y="454" type="curve" smooth="yes"/>
      <point x="184" y="438"/>
      <point x="218" y="422"/>
      <point x="243" y="414" type="curve" smooth="yes"/>
      <point x="267" y="406"/>
      <point x="311" y="392"/>
      <point x="331" y="385" type="curve" smooth="yes"/>
      <point x="352" y="376"/>
      <point x="369" y="369"/>
      <point x="382" y="364" type="curve" smooth="yes"/>
      <point x="409" y="353"/>
      <point x="445" y="335"/>
      <point x="465" y="322" type="curve" smooth="yes"/>
      <point x="485" y="309"/>
      <point x="507" y="286"/>
      <point x="518" y="265" type="curve" smooth="yes"/>
      <point x="529" y="244"/>
      <point x="537" y="215"/>
      <point x="537" y="182" type="curve" smooth="yes"/>
      <point x="537" y="61"/>
      <point x="438" y="-11"/>
      <point x="285" y="-11" type="curve" smooth="yes"/>
      <point x="242" y="-11"/>
      <point x="199" y="-4"/>
      <point x="155" y="14" type="curve" smooth="yes"/>
      <point x="111" y="32"/>
      <point x="75" y="56"/>
      <point x="49" y="100" type="curve" smooth="yes"/>
      <point x="36" y="121"/>
      <point x="26" y="146"/>
      <point x="21" y="173" type="curve"/>
      <point x="78" y="198" type="line"/>
      <point x="106" y="95"/>
      <point x="174" y="47"/>
      <point x="290" y="47" type="curve" smooth="yes"/>
      <point x="325" y="47"/>
      <point x="356" y="52"/>
      <point x="388" y="65" type="curve" smooth="yes"/>
      <point x="419" y="77"/>
      <point x="443" y="96"/>
      <point x="456" y="127" type="curve" smooth="yes"/>
      <point x="463" y="142"/>
      <point x="466" y="160"/>
      <point x="466" y="180" type="curve" smooth="yes"/>
      <point x="466" y="205"/>
      <point x="458" y="227"/>
      <point x="451" y="243" type="curve" smooth="yes"/>
      <point x="447" y="250"/>
      <point x="439" y="258"/>
      <point x="428" y="266" type="curve" smooth="yes"/>
      <point x="417" y="273"/>
      <point x="408" y="279"/>
      <point x="402" y="284" type="curve" smooth="yes"/>
      <point x="389" y="293"/>
      <point x="341" y="311"/>
      <point x="323" y="318" type="curve" smooth="yes"/>
      <point x="314" y="321"/>
      <point x="297" y="327"/>
      <point x="272" y="336" type="curve" smooth="yes"/>
      <point x="267" y="337"/>
      <point x="264" y="338"/>
      <point x="262" y="339" type="curve" smooth="yes"/>
      <point x="153" y="378"/>
      <point x="75" y="406"/>
      <point x="62" y="495" type="curve" smooth="yes"/>
      <point x="61" y="502"/>
      <point x="61" y="509"/>
      <point x="61" y="518" type="curve" smooth="yes"/>
      <point x="61" y="574"/>
      <point x="88" y="620"/>
      <point x="131" y="647" type="curve" smooth="yes"/>
      <point x="174" y="674"/>
      <point x="227" y="688"/>
      <point x="287" y="688" type="curve" smooth="yes"/>
      <point x="396" y="688"/>
      <point x="470" y="654"/>
    </contour>
  </outline>
</glyph>
<glyph name="T" format="1">
  <advance width="519"/>
  <unicode hex="0054"/>
  <outline>
    <contour>
      <point x="4" y="627" type="line"/>
      <point x="4" y="679" type="line"/>
      <point x="515" y="679" type="line"/>
      <point x="515" y="627" type="line"/>
      <point x="295" y="627" type="line"/>
      <point x="295" y="0" type="line"/>
      <point x="224" y="0" type="line"/>
      <point x="224" y="627" type="line"/>
    </contour>
  </outline>
</glyph>
<glyph name="U" format="1">
  <advance width="624"/>
  <unicode hex="0055"/>
  <outline>
    <contour>
      <point x="57" y="679" type="line"/>
      <point x="131" y="679" type="line"/>
      <point x="131" y="277" type="line" smooth="yes"/>
      <point x="131" y="220"/>
      <point x="136" y="178"/>
      <point x="152" y="138" type="curve" smooth="yes"/>
      <point x="167" y="97"/>
      <point x="192" y="72"/>
      <point x="236" y="57" type="curve" smooth="yes"/>
      <point x="258" y="50"/>
      <point x="284" y="46"/>
      <point x="314" y="46" type="curve" smooth="yes"/>
      <point x="373" y="46"/>
      <point x="416" y="62"/>
      <point x="443" y="88" type="curve" smooth="yes"/>
      <point x="470" y="114"/>
      <point x="485" y="157"/>
      <point x="491" y="201" type="curve" smooth="yes"/>
      <point x="494" y="223"/>
      <point x="495" y="248"/>
      <point x="495" y="277" type="curve" smooth="yes"/>
      <point x="495" y="679" type="line"/>
      <point x="567" y="679" type="line"/>
      <point x="567" y="270" type="line" smooth="yes"/>
      <point x="567" y="75"/>
      <point x="486" y="-11"/>
      <point x="311" y="-11" type="curve" smooth="yes"/>
      <point x="139" y="-11"/>
      <point x="57" y="74"/>
      <point x="57" y="266" type="curve" smooth="yes"/>
    </contour>
  </outline>
</glyph>
<glyph name="V" format="1">
  <advance width="540"/>
  <unicode hex="0056"/>
  <outline>
    <contour>
      <point x="238" y="0" type="line"/>
      <point x="6" y="679" type="line"/>
      <point x="78" y="679" type="line"/>
      <point x="214" y="276" type="line" smooth="yes"/>
      <point x="217" y="266"/>
      <point x="226" y="240"/>
      <point x="240" y="198" type="curve" smooth="yes"/>
      <point x="253" y="155"/>
      <point x="264" y="123"/>
      <point x="272" y="100" type="curve"/>
      <point x="287" y="145"/>
      <point x="323" y="249"/>
      <point x="332" y="276" type="curve" smooth="yes"/>
      <point x="466" y="679" type="line"/>
      <point x="534" y="679" type="line"/>
      <point x="302" y="0" type="line"/>
    </contour>
  </outline>
</glyph>
<glyph name="W" format="1">
  <advance width="833"/>
  <unicode hex="0057"/>
  <outline>
    <contour>
      <point x="198" y="0" type="line"/>
      <point x="6" y="678" type="line"/>
      <point x="76" y="678" type="line"/>
      <point x="143" y="437"/>
      <point x="187" y="269"/>
      <point x="207" y="189" type="curve" smooth="yes"/>
      <point x="216" y="149"/>
      <point x="223" y="122"/>
      <point x="227" y="108" type="curve"/>
      <point x="234" y="128"/>
      <point x="242" y="155"/>
      <point x="253" y="190" type="curve" smooth="yes"/>
      <point x="263" y="225"/>
      <point x="281" y="286"/>
      <point x="308" y="373" type="curve" smooth="yes"/>
      <point x="335" y="460"/>
      <point x="366" y="562"/>
      <point x="401" y="678" type="curve"/>
      <point x="449" y="678" type="line"/>
      <point x="481" y="562"/>
      <point x="574" y="233"/>
      <point x="611" y="101" type="curve"/>
      <point x="626" y="155"/>
      <point x="650" y="248"/>
      <point x="684" y="379" type="curve" smooth="yes"/>
      <point x="717" y="510"/>
      <point x="744" y="610"/>
      <point x="764" y="677" type="curve"/>
      <point x="828" y="678" type="line"/>
      <point x="636" y="0" type="line"/>
      <point x="577" y="0" type="line"/>
      <point x="478" y="351"/>
      <point x="426" y="534"/>
      <point x="421" y="551" type="curve"/>
      <point x="417" y="538"/>
      <point x="411" y="519"/>
      <point x="403" y="494" type="curve" smooth="yes"/>
      <point x="395" y="469"/>
      <point x="378" y="412"/>
      <point x="351" y="325" type="curve" smooth="yes"/>
      <point x="324" y="237"/>
      <point x="290" y="129"/>
      <point x="251" y="0" type="curve"/>
    </contour>
  </outline>
</glyph>
<glyph name="X" format="1">
  <advance width="578"/>
  <unicode hex="0058"/>
  <outline>
    <contour>
      <point x="291" y="412" type="line"/>
      <point x="477" y="679" type="line"/>
      <point x="554" y="679" type="line"/>
      <point x="328" y="356" type="line"/>
      <point x="575" y="0" type="line"/>
      <point x="495" y="0" type="line"/>
      <point x="288" y="297" type="line"/>
      <point x="80" y="0" type="line"/>
      <point x="3" y="0" type="line"/>
      <point x="251" y="354" type="line"/>
      <point x="24" y="679" type="line"/>
      <point x="105" y="679" type="line"/>
    </contour>
  </outline>
</glyph>
<glyph name="Y" format="1">
  <advance width="539"/>
  <unicode hex="0059"/>
  <outline>
    <contour>
      <point x="236" y="255" type="line"/>
      <point x="-2" y="679" type="line"/>
      <point x="71" y="679" type="line"/>
      <point x="270" y="316" type="line"/>
      <point x="468" y="679" type="line"/>
      <point x="541" y="679" type="line"/>
      <point x="303" y="255" type="line"/>
      <point x="303" y="0" type="line"/>
      <point x="236" y="0" type="line"/>
    </contour>
  </outline>
</glyph>
<glyph name="Z" format="1">
  <advance width="468"/>
  <unicode hex="005A"/>
  <outline>
    <contour>
      <point x="426" y="38" type="line"/>
      <point x="426" y="0" type="line"/>
      <point x="65" y="0" type="line"/>
      <point x="56" y="47" type="line"/>
      <point x="348" y="589" type="line"/>
      <point x="70" y="589" type="line"/>
      <point x="70" y="627" type="line"/>
      <point x="408" y="627" type="line"/>
      <point x="412" y="605" type="line"/>
      <point x="416" y="584" type="line"/>
      <point x="124" y="38" type="line"/>
    </contour>
  </outline>
</glyph>
<glyph name="bracketleft" format="1">
  <advance width="295"/>
  <unicode hex="005B"/>
  <outline>
    <contour>
      <point x="269" y="-8" type="line"/>
      <point x="269" y="-56" type="line"/>
      <point x="80" y="-56" type="line"/>
      <point x="80" y="672" type="line"/>
      <point x="269" y="672" type="line"/>
      <point x="269" y="624" type="line"/>
      <point x="140" y="624" type="line"/>
      <point x="140" y="-8" type="line"/>
    </contour>
  </outline>
</glyph>
<glyph name="backslash" format="1">
  <advance width="432"/>
  <unicode hex="005C"/>
  <outline>
    <contour>
      <point x="387" y="-33" type="line"/>
      <point x="370" y="-43" type="line"/>
      <point x="367" y="-44"/>
      <point x="362" y="-47"/>
      <point x="353" y="-52" type="curve"/>
      <point x="41" y="710" type="line"/>
      <point x="75" y="729" type="line"/>
    </contour>
  </outline>
</glyph>
<glyph name="bracketright" format="1">
  <advance width="328"/>
  <unicode hex="005D"/>
  <outline>
    <contour>
      <point x="55" y="637" type="line"/>
      <point x="55" y="687" type="line"/>
      <point x="267" y="687" type="line"/>
      <point x="267" y="-24" type="line"/>
      <point x="55" y="-24" type="line"/>
      <point x="55" y="26" type="line"/>
      <point x="199" y="26" type="line"/>
      <point x="199" y="637" type="line"/>
    </contour>
  </outline>
</glyph>
<glyph name="asciicircum" format="1">
  <advance width="488"/>
  <unicode hex="005E"/>
  <outline>
    <contour>
      <point x="112" y="47" type="line"/>
      <point x="47" y="47" type="line"/>
      <point x="218" y="464" type="line"/>
      <point x="276" y="464" type="line"/>
      <point x="441" y="47" type="line"/>
      <point x="370" y="47" type="line"/>
      <point x="243" y="389" type="line"/>
    </contour>
  </outline>
</glyph>
<glyph name="underscore" format="1">
  <advance width="521"/>
  <unicode hex="005F"/>
  <outline>
    <contour>
      <point x="49" y="-114" type="line"/>
      <point x="49" y="-71" type="line"/>
      <point x="479" y="-71" type="line"/>
      <point x="479" y="-114" type="line"/>
    </contour>
  </outline>
</glyph>
<glyph name="grave" format="1">
  <advance width="230"/>
  <unicode hex="0060"/>
  <outline>
    <contour>
      <point x="22" y="693" type="line"/>
      <point x="112" y="693" type="line"/>
      <point x="207" y="544" type="line"/>
      <point x="163" y="543" type="line"/>
    </contour>
  </outline>
</glyph>
<glyph name="a" format="1">
  <advance width="473"/>
  <unicode hex="0061"/>
  <outline>
    <contour>
      <point x="346" y="235" type="line"/>
      <point x="300" y="227" type="line" smooth="yes"/>
      <point x="252" y="219"/>
      <point x="227" y="215"/>
      <point x="193" y="207" type="curve" smooth="yes"/>
      <point x="159" y="198"/>
      <point x="143" y="189"/>
      <point x="127" y="176" type="curve" smooth="yes"/>
      <point x="110" y="163"/>
      <point x="104" y="146"/>
      <point x="104" y="123" type="curve" smooth="yes"/>
      <point x="104" y="64"/>
      <point x="133" y="34"/>
      <point x="192" y="34" type="curve" smooth="yes"/>
      <point x="241" y="34"/>
      <point x="293" y="57"/>
      <point x="346" y="102" type="curve"/>
    </contour>
    <contour>
      <point x="350" y="54" type="line"/>
      <point x="297" y="11"/>
      <point x="241" y="-11"/>
      <point x="180" y="-11" type="curve" smooth="yes"/>
      <point x="101" y="-11"/>
      <point x="42" y="34"/>
      <point x="42" y="114" type="curve" smooth="yes"/>
      <point x="42" y="147"/>
      <point x="54" y="174"/>
      <point x="68" y="193" type="curve" smooth="yes"/>
      <point x="82" y="212"/>
      <point x="116" y="229"/>
      <point x="138" y="238" type="curve"/>
      <point x="160" y="246"/>
      <point x="212" y="257"/>
      <point x="239" y="262" type="curve"/>
      <point x="252" y="265"/>
      <point x="273" y="268"/>
      <point x="300" y="272" type="curve" smooth="yes"/>
      <point x="346" y="278" type="line"/>
      <point x="346" y="298" type="line" smooth="yes"/>
      <point x="346" y="402"/>
      <point x="315" y="434"/>
      <point x="234" y="434" type="curve" smooth="yes"/>
      <point x="181" y="434"/>
      <point x="132" y="413"/>
      <point x="101" y="374" type="curve"/>
      <point x="101" y="375"/>
      <point x="88" y="387"/>
      <point x="61" y="412" type="curve"/>
      <point x="100" y="461"/>
      <point x="159" y="485"/>
      <point x="238" y="485" type="curve" smooth="yes"/>
      <point x="354" y="485"/>
      <point x="412" y="428"/>
      <point x="412" y="313" type="curve" smooth="yes"/>
      <point x="412" y="0" type="line"/>
      <point x="357" y="0" type="line"/>
    </contour>
  </outline>
</glyph>
<glyph name="b" format="1">
  <advance width="500"/>
  <unicode hex="0062"/>
  <outline>
    <contour>
      <point x="234" y="436"/>
      <point x="211" y="430"/>
      <point x="186" y="411" type="curve" smooth="yes"/>
      <point x="161" y="392"/>
      <point x="143" y="367"/>
      <point x="131" y="321" type="curve" smooth="yes"/>
      <point x="125" y="298"/>
      <point x="122" y="271"/>
      <point x="122" y="242" type="curve" smooth="yes"/>
      <point x="122" y="105"/>
      <point x="169" y="36"/>
      <point x="262" y="36" type="curve" smooth="yes"/>
      <point x="341" y="36"/>
      <point x="389" y="116"/>
      <point x="389" y="241" type="curve" smooth="yes"/>
      <point x="389" y="353"/>
      <point x="338" y="436"/>
      <point x="261" y="436" type="curve" smooth="yes"/>
    </contour>
    <contour>
      <point x="58" y="693" type="line"/>
      <point x="124" y="693" type="line"/>
      <point x="124" y="511" type="line"/>
      <point x="124" y="401" type="line"/>
      <point x="151" y="456"/>
      <point x="206" y="485"/>
      <point x="274" y="485" type="curve" smooth="yes"/>
      <point x="387" y="485"/>
      <point x="456" y="390"/>
      <point x="456" y="233" type="curve" smooth="yes"/>
      <point x="456" y="85"/>
      <point x="388" y="-11"/>
      <point x="269" y="-11" type="curve" smooth="yes"/>
      <point x="201" y="-11"/>
      <point x="143" y="19"/>
      <point x="119" y="75" type="curve"/>
      <point x="110" y="0" type="line"/>
      <point x="58" y="0" type="line"/>
    </contour>
  </outline>
</glyph>
<glyph name="c" format="1">
  <advance width="455"/>
  <unicode hex="0063"/>
  <outline>
    <contour>
      <point x="43" y="333"/>
      <point x="72" y="408"/>
      <point x="135" y="452" type="curve" smooth="yes"/>
      <point x="166" y="474"/>
      <point x="205" y="485"/>
      <point x="250" y="485" type="curve" smooth="yes"/>
      <point x="287" y="485"/>
      <point x="321" y="475"/>
      <point x="353" y="455" type="curve"/>
      <point x="384" y="434"/>
      <point x="410" y="393"/>
      <point x="423" y="340" type="curve"/>
      <point x="368" y="325" type="line"/>
      <point x="347" y="401"/>
      <point x="312" y="436"/>
      <point x="253" y="436" type="curve" smooth="yes"/>
      <point x="156" y="436"/>
      <point x="110" y="361"/>
      <point x="110" y="238" type="curve" smooth="yes"/>
      <point x="110" y="178"/>
      <point x="120" y="130"/>
      <point x="142" y="94" type="curve" smooth="yes"/>
      <point x="164" y="57"/>
      <point x="199" y="38"/>
      <point x="246" y="38" type="curve" smooth="yes"/>
      <point x="307" y="38"/>
      <point x="349" y="74"/>
      <point x="370" y="146" type="curve"/>
      <point x="421" y="131" type="line"/>
      <point x="410" y="80"/>
      <point x="384" y="43"/>
      <point x="352" y="21" type="curve" smooth="yes"/>
      <point x="320" y="-1"/>
      <point x="284" y="-11"/>
      <point x="245" y="-11" type="curve" smooth="yes"/>
      <point x="113" y="-11"/>
      <point x="43" y="86"/>
      <point x="43" y="237" type="curve" smooth="yes"/>
    </contour>
  </outline>
</glyph>
<glyph name="d" format="1">
  <advance width="509"/>
  <unicode hex="0064"/>
  <outline>
    <contour>
      <point x="382" y="668" type="line"/>
      <point x="442" y="668" type="line"/>
      <point x="442" y="0" type="line"/>
      <point x="395" y="0" type="line"/>
      <point x="389" y="26" type="line"/>
      <point x="350" y="5"/>
      <point x="308" y="-5"/>
      <point x="263" y="-5" type="curve" smooth="yes"/>
      <point x="202" y="-5"/>
      <point x="151" y="14"/>
      <point x="114" y="52" type="curve" smooth="yes"/>
      <point x="77" y="90"/>
      <point x="57" y="155"/>
      <point x="57" y="240" type="curve" smooth="yes"/>
      <point x="57" y="376"/>
      <point x="112" y="455"/>
      <point x="187" y="479" type="curve" smooth="yes"/>
      <point x="206" y="485"/>
      <point x="226" y="488"/>
      <point x="247" y="488" type="curve" smooth="yes"/>
      <point x="271" y="488"/>
      <point x="293" y="485"/>
      <point x="314" y="480" type="curve"/>
      <point x="313" y="480" type="line"/>
      <point x="334" y="476"/>
      <point x="357" y="464"/>
      <point x="382" y="448" type="curve"/>
    </contour>
    <contour>
      <point x="287" y="44" type="line" smooth="yes"/>
      <point x="320" y="44"/>
      <point x="351" y="51"/>
      <point x="382" y="64" type="curve"/>
      <point x="382" y="396" type="line"/>
      <point x="326" y="428"/>
      <point x="291" y="439"/>
      <point x="255" y="439" type="curve" smooth="yes"/>
      <point x="167" y="439"/>
      <point x="117" y="375"/>
      <point x="117" y="239" type="curve" smooth="yes"/>
      <point x="117" y="109"/>
      <point x="169" y="44"/>
      <point x="272" y="44" type="curve" smooth="yes"/>
    </contour>
  </outline>
</glyph>
<glyph name="e" format="1">
  <advance width="476"/>
  <unicode hex="0065"/>
  <outline>
    <contour>
      <point x="311" y="485"/>
      <point x="362" y="460"/>
      <point x="391" y="420" type="curve" smooth="yes"/>
      <point x="420" y="379"/>
      <point x="435" y="326"/>
      <point x="435" y="261" type="curve" smooth="yes"/>
      <point x="435" y="251"/>
      <point x="435" y="242"/>
      <point x="434" y="234" type="curve"/>
      <point x="110" y="234" type="line"/>
      <point x="110" y="181"/>
      <point x="120" y="133"/>
      <point x="142" y="97" type="curve" smooth="yes"/>
      <point x="164" y="60"/>
      <point x="201" y="38"/>
      <point x="249" y="38" type="curve" smooth="yes"/>
      <point x="312" y="38"/>
      <point x="352" y="68"/>
      <point x="369" y="120" type="curve"/>
      <point x="420" y="108" type="line"/>
      <point x="405" y="56"/>
      <point x="366" y="18"/>
      <point x="322" y="2" type="curve" smooth="yes"/>
      <point x="300" y="-6"/>
      <point x="276" y="-10"/>
      <point x="251" y="-11" type="curve"/>
      <point x="249" y="-11" type="line" smooth="yes"/>
      <point x="180" y="-11"/>
      <point x="124" y="17"/>
      <point x="91" y="65" type="curve" smooth="yes"/>
      <point x="58" y="112"/>
      <point x="43" y="170"/>
      <point x="43" y="238" type="curve" smooth="yes"/>
      <point x="43" y="386"/>
      <point x="119" y="485"/>
      <point x="247" y="485" type="curve" smooth="yes"/>
    </contour>
    <contour>
      <point x="372" y="277" type="line"/>
      <point x="371" y="378"/>
      <point x="332" y="436"/>
      <point x="245" y="436" type="curve" smooth="yes"/>
      <point x="204" y="436"/>
      <point x="169" y="418"/>
      <point x="149" y="389" type="curve" smooth="yes"/>
      <point x="128" y="360"/>
      <point x="115" y="322"/>
      <point x="111" y="277" type="curve"/>
    </contour>
  </outline>
</glyph>
<glyph name="f" format="1">
  <advance width="289"/>
  <unicode hex="0066"/>
  <outline>
    <contour>
      <point x="197" y="634"/>
      <point x="187" y="630"/>
      <point x="181" y="620" type="curve" smooth="yes"/>
      <point x="175" y="610"/>
      <point x="171" y="603"/>
      <point x="169" y="583" type="curve" smooth="yes"/>
      <point x="167" y="563"/>
      <point x="166" y="555"/>
      <point x="166" y="527" type="curve" smooth="yes"/>
      <point x="166" y="475" type="line"/>
      <point x="259" y="475" type="line"/>
      <point x="259" y="426" type="line"/>
      <point x="166" y="426" type="line"/>
      <point x="166" y="0" type="line"/>
      <point x="101" y="0" type="line"/>
      <point x="101" y="426" type="line"/>
      <point x="20" y="426" type="line"/>
      <point x="20" y="475" type="line"/>
      <point x="101" y="475" type="line"/>
      <point x="101" y="529" type="line" smooth="yes"/>
      <point x="101" y="634"/>
      <point x="130" y="682"/>
      <point x="209" y="682" type="curve" smooth="yes"/>
      <point x="234" y="682"/>
      <point x="258" y="676"/>
      <point x="281" y="663" type="curve"/>
      <point x="266" y="620" type="line"/>
      <point x="244" y="629"/>
      <point x="227" y="634"/>
      <point x="214" y="634" type="curve" smooth="yes"/>
    </contour>
  </outline>
</glyph>
<glyph name="g" format="1">
  <advance width="500"/>
  <unicode hex="0067"/>
  <outline>
    <contour>
      <point x="379" y="252" type="line" smooth="yes"/>
      <point x="379" y="312"/>
      <point x="365" y="361"/>
      <point x="346" y="386" type="curve" smooth="yes"/>
      <point x="327" y="411"/>
      <point x="299" y="427"/>
      <point x="276" y="432" type="curve" smooth="yes"/>
      <point x="264" y="435"/>
      <point x="252" y="436"/>
      <point x="240" y="436" type="curve" smooth="yes"/>
      <point x="195" y="436"/>
      <point x="160" y="413"/>
      <point x="140" y="377" type="curve" smooth="yes"/>
      <point x="119" y="341"/>
      <point x="109" y="295"/>
      <point x="109" y="246" type="curve" smooth="yes"/>
      <point x="109" y="113"/>
      <point x="159" y="38"/>
      <point x="238" y="38" type="curve" smooth="yes"/>
      <point x="265" y="38"/>
      <point x="289" y="43"/>
      <point x="315" y="60" type="curve" smooth="yes"/>
      <point x="341" y="76"/>
      <point x="358" y="103"/>
      <point x="370" y="152" type="curve" smooth="yes"/>
      <point x="376" y="176"/>
      <point x="379" y="204"/>
      <point x="379" y="237" type="curve" smooth="yes"/>
    </contour>
    <contour>
      <point x="162" y="-199"/>
      <point x="106" y="-174"/>
      <point x="76" y="-124" type="curve"/>
      <point x="115" y="-87" type="line"/>
      <point x="140" y="-128"/>
      <point x="185" y="-148"/>
      <point x="248" y="-148" type="curve" smooth="yes"/>
      <point x="336" y="-148"/>
      <point x="379" y="-90"/>
      <point x="379" y="13" type="curve" smooth="yes"/>
      <point x="379" y="60" type="line"/>
      <point x="343" y="13"/>
      <point x="295" y="-11"/>
      <point x="236" y="-11" type="curve" smooth="yes"/>
      <point x="113" y="-11"/>
      <point x="44" y="91"/>
      <point x="44" y="244" type="curve" smooth="yes"/>
      <point x="44" y="337"/>
      <point x="71" y="410"/>
      <point x="129" y="453" type="curve" smooth="yes"/>
      <point x="158" y="474"/>
      <point x="192" y="485"/>
      <point x="233" y="485" type="curve" smooth="yes"/>
      <point x="294" y="485"/>
      <point x="345" y="461"/>
      <point x="385" y="413" type="curve"/>
      <point x="389" y="475" type="line"/>
      <point x="441" y="475" type="line"/>
      <point x="441" y="9" type="line" smooth="yes"/>
      <point x="441" y="-114"/>
      <point x="371" y="-199"/>
      <point x="244" y="-199" type="curve" smooth="yes"/>
    </contour>
  </outline>
</glyph>
<glyph name="h" format="1">
  <advance width="490"/>
  <unicode hex="0068"/>
  <outline>
    <contour>
      <point x="133" y="0" type="line"/>
      <point x="73" y="0" type="line"/>
      <point x="73" y="668" type="line"/>
      <point x="133" y="668" type="line"/>
      <point x="133" y="442" type="line"/>
      <point x="190" y="473"/>
      <point x="242" y="488"/>
      <point x="289" y="488" type="curve" smooth="yes"/>
      <point x="388" y="488"/>
      <point x="430" y="437"/>
      <point x="430" y="324" type="curve" smooth="yes"/>
      <point x="430" y="0" type="line"/>
      <point x="369" y="0" type="line"/>
      <point x="369" y="326" type="line" smooth="yes"/>
      <point x="369" y="410"/>
      <point x="348" y="439"/>
      <point x="285" y="439" type="curve" smooth="yes"/>
      <point x="248" y="439"/>
      <point x="197" y="423"/>
      <point x="133" y="392" type="curve"/>
    </contour>
  </outline>
</glyph>
<glyph name="i" format="1">
  <advance width="190"/>
  <unicode hex="0069"/>
  <outline>
    <contour>
      <point x="63" y="576" type="line"/>
      <point x="63" y="659" type="line"/>
      <point x="128" y="659" type="line"/>
      <point x="128" y="576" type="line"/>
    </contour>
    <contour>
      <point x="64" y="0" type="line"/>
      <point x="64" y="475" type="line"/>
      <point x="129" y="475" type="line"/>
      <point x="129" y="0" type="line"/>
    </contour>
  </outline>
</glyph>
<glyph name="j" format="1">
  <advance width="223"/>
  <unicode hex="006A"/>
  <outline>
    <contour>
      <point x="100" y="576" type="line"/>
      <point x="100" y="659" type="line"/>
      <point x="165" y="659" type="line"/>
      <point x="165" y="576" type="line"/>
    </contour>
    <contour>
      <point x="99" y="475" type="line"/>
      <point x="165" y="475" type="line"/>
      <point x="165" y="-6" type="line" smooth="yes"/>
      <point x="165" y="-58"/>
      <point x="163" y="-86"/>
      <point x="149" y="-113" type="curve" smooth="yes"/>
      <point x="135" y="-140"/>
      <point x="108" y="-151"/>
      <point x="64" y="-151" type="curve" smooth="yes"/>
      <point x="35" y="-151"/>
      <point x="10" y="-145"/>
      <point x="-11" y="-132" type="curve"/>
      <point x="0" y="-82" type="line"/>
      <point x="26" y="-92"/>
      <point x="44" y="-97"/>
      <point x="55" y="-97" type="curve" smooth="yes"/>
      <point x="84" y="-97"/>
      <point x="99" y="-82"/>
      <point x="99" y="-42" type="curve" smooth="yes"/>
    </contour>
  </outline>
</glyph>
<glyph name="k" format="1">
  <advance width="467"/>
  <unicode hex="006B"/>
  <outline>
    <contour>
      <point x="370" y="475" type="line"/>
      <point x="445" y="475" type="line"/>
      <point x="268" y="302" type="line"/>
      <point x="472" y="0" type="line"/>
      <point x="398" y="0" type="line"/>
      <point x="225" y="262" type="line"/>
      <point x="126" y="171" type="line"/>
      <point x="126" y="0" type="line"/>
      <point x="60" y="0" type="line"/>
      <point x="60" y="685" type="line"/>
      <point x="125" y="685" type="line"/>
      <point x="125" y="238" type="line"/>
    </contour>
  </outline>
</glyph>
<glyph name="l" format="1">
  <advance width="299"/>
  <unicode hex="006C"/>
  <outline>
    <contour>
      <point x="87" y="626" type="line"/>
      <point x="87" y="668" type="line"/>
      <point x="191" y="668" type="line"/>
      <point x="191" y="41" type="line"/>
      <point x="245" y="41" type="line"/>
      <point x="245" y="0" type="line"/>
      <point x="79" y="0" type="line"/>
      <point x="79" y="41" type="line"/>
      <point x="131" y="41" type="line"/>
      <point x="131" y="626" type="line"/>
    </contour>
  </outline>
</glyph>
<glyph name="m" format="1">
  <advance width="756"/>
  <unicode hex="006D"/>
  <outline>
    <contour>
      <point x="396" y="449" type="line"/>
      <point x="447" y="476"/>
      <point x="498" y="488"/>
      <point x="553" y="488" type="curve" smooth="yes"/>
      <point x="649" y="488"/>
      <point x="700" y="435"/>
      <point x="700" y="328" type="curve" smooth="yes"/>
      <point x="700" y="0" type="line"/>
      <point x="640" y="0" type="line"/>
      <point x="640" y="328" type="line" smooth="yes"/>
      <point x="640" y="402"/>
      <point x="612" y="439"/>
      <point x="555" y="439" type="curve" smooth="yes"/>
      <point x="499" y="439"/>
      <point x="452" y="429"/>
      <point x="413" y="406" type="curve"/>
      <point x="414" y="397"/>
      <point x="416" y="386"/>
      <point x="417" y="371" type="curve"/>
      <point x="419" y="353"/>
      <point x="420" y="337"/>
      <point x="420" y="324" type="curve" smooth="yes"/>
      <point x="420" y="0" type="line"/>
      <point x="359" y="0" type="line"/>
      <point x="359" y="326" type="line" smooth="yes"/>
      <point x="359" y="367"/>
      <point x="353" y="396"/>
      <point x="342" y="412" type="curve" smooth="yes"/>
      <point x="329" y="431"/>
      <point x="307" y="439"/>
      <point x="275" y="440" type="curve" smooth="yes"/>
      <point x="255" y="440"/>
      <point x="232" y="437"/>
      <point x="207" y="432" type="curve" smooth="yes"/>
      <point x="184" y="427"/>
      <point x="159" y="415"/>
      <point x="132" y="402" type="curve"/>
      <point x="132" y="0" type="line"/>
      <point x="71" y="0" type="line"/>
      <point x="71" y="480" type="line"/>
      <point x="126" y="480" type="line"/>
      <point x="128" y="447" type="line"/>
      <point x="183" y="476"/>
      <point x="233" y="488"/>
      <point x="284" y="488" type="curve" smooth="yes"/>
      <point x="336" y="488"/>
      <point x="369" y="477"/>
      <point x="389" y="450" type="curve"/>
    </contour>
  </outline>
</glyph>
<glyph name="n" format="1">
  <advance width="504"/>
  <unicode hex="006E"/>
  <outline>
    <contour>
      <point x="59" y="0" type="line"/>
      <point x="59" y="475" type="line"/>
      <point x="123" y="475" type="line"/>
      <point x="123" y="471"/>
      <point x="123" y="466"/>
      <point x="123" y="460" type="curve" smooth="yes"/>
      <point x="123" y="453"/>
      <point x="123" y="444"/>
      <point x="123" y="431" type="curve" smooth="yes"/>
      <point x="123" y="418"/>
      <point x="123" y="407"/>
      <point x="123" y="398" type="curve" smooth="yes"/>
      <point x="123" y="385" type="line"/>
      <point x="135" y="418"/>
      <point x="161" y="446"/>
      <point x="193" y="462" type="curve" smooth="yes"/>
      <point x="224" y="477"/>
      <point x="257" y="485"/>
      <point x="289" y="485" type="curve" smooth="yes"/>
      <point x="325" y="485"/>
      <point x="356" y="477"/>
      <point x="377" y="464" type="curve" smooth="yes"/>
      <point x="398" y="451"/>
      <point x="415" y="436"/>
      <point x="425" y="413" type="curve" smooth="yes"/>
      <point x="435" y="390"/>
      <point x="441" y="372"/>
      <point x="445" y="344" type="curve"/>
      <point x="446" y="330"/>
      <point x="447" y="318"/>
      <point x="447" y="308" type="curve" smooth="yes"/>
      <point x="447" y="297"/>
      <point x="447" y="285"/>
      <point x="447" y="271" type="curve" smooth="yes"/>
      <point x="447" y="0" type="line"/>
      <point x="382" y="0" type="line"/>
      <point x="382" y="279" type="line" smooth="yes"/>
      <point x="382" y="320"/>
      <point x="378" y="348"/>
      <point x="370" y="374" type="curve" smooth="yes"/>
      <point x="361" y="400"/>
      <point x="346" y="415"/>
      <point x="322" y="424" type="curve"/>
      <point x="310" y="429"/>
      <point x="296" y="431"/>
      <point x="279" y="431" type="curve" smooth="yes"/>
      <point x="232" y="431"/>
      <point x="196" y="417"/>
      <point x="173" y="394" type="curve" smooth="yes"/>
      <point x="149" y="370"/>
      <point x="136" y="334"/>
      <point x="129" y="296" type="curve" smooth="yes"/>
      <point x="126" y="277"/>
      <point x="124" y="255"/>
      <point x="124" y="232" type="curve" smooth="yes"/>
      <point x="124" y="0" type="line"/>
    </contour>
  </outline>
</glyph>
<glyph name="o" format="1">
  <advance width="494"/>
  <unicode hex="006F"/>
  <outline>
    <contour>
      <point x="368" y="485"/>
      <point x="451" y="398"/>
      <point x="451" y="238" type="curve" smooth="yes"/>
      <point x="451" y="79"/>
      <point x="372" y="-11"/>
      <point x="247" y="-11" type="curve" smooth="yes"/>
      <point x="122" y="-11"/>
      <point x="43" y="78"/>
      <point x="43" y="237" type="curve" smooth="yes"/>
      <point x="43" y="398"/>
      <point x="124" y="485"/>
      <point x="247" y="485" type="curve" smooth="yes"/>
    </contour>
    <contour>
      <point x="195" y="436"/>
      <point x="157" y="412"/>
      <point x="138" y="373" type="curve" smooth="yes"/>
      <point x="118" y="333"/>
      <point x="110" y="290"/>
      <point x="110" y="238" type="curve" smooth="yes"/>
      <point x="110" y="197"/>
      <point x="115" y="161"/>
      <point x="128" y="126" type="curve" smooth="yes"/>
      <point x="140" y="90"/>
      <point x="159" y="65"/>
      <point x="192" y="50" type="curve"/>
      <point x="208" y="42"/>
      <point x="226" y="38"/>
      <point x="247" y="38" type="curve" smooth="yes"/>
      <point x="288" y="38"/>
      <point x="322" y="55"/>
      <point x="342" y="80" type="curve" smooth="yes"/>
      <point x="362" y="105"/>
      <point x="375" y="142"/>
      <point x="380" y="179" type="curve" smooth="yes"/>
      <point x="383" y="197"/>
      <point x="384" y="217"/>
      <point x="384" y="238" type="curve" smooth="yes"/>
      <point x="384" y="278"/>
      <point x="379" y="313"/>
      <point x="366" y="349" type="curve" smooth="yes"/>
      <point x="353" y="384"/>
      <point x="335" y="409"/>
      <point x="302" y="425" type="curve"/>
      <point x="285" y="432"/>
      <point x="267" y="436"/>
      <point x="247" y="436" type="curve" smooth="yes"/>
    </contour>
  </outline>
</glyph>
<glyph name="p" format="1">
  <advance width="492"/>
  <unicode hex="0070"/>
  <outline>
    <contour>
      <point x="122" y="398" type="line"/>
      <point x="153" y="456"/>
      <point x="201" y="485"/>
      <point x="266" y="485" type="curve" smooth="yes"/>
      <point x="329" y="485"/>
      <point x="377" y="458"/>
      <point x="406" y="414" type="curve" smooth="yes"/>
      <point x="435" y="369"/>
      <point x="449" y="312"/>
      <point x="449" y="241" type="curve" smooth="yes"/>
      <point x="449" y="145"/>
      <point x="425" y="69"/>
      <point x="370" y="24" type="curve" smooth="yes"/>
      <point x="315" y="-21"/>
      <point x="232" y="-18"/>
      <point x="184" y="10" type="curve" smooth="yes"/>
      <point x="159" y="24"/>
      <point x="140" y="44"/>
      <point x="126" y="71" type="curve"/>
      <point x="126" y="9" type="line"/>
      <point x="126" y="-162" type="line"/>
      <point x="61" y="-162" type="line"/>
      <point x="61" y="475" type="line"/>
      <point x="118" y="475" type="line"/>
    </contour>
    <contour>
      <point x="258" y="436" type="curve" smooth="yes"/>
      <point x="214" y="436"/>
      <point x="181" y="420"/>
      <point x="162" y="397" type="curve" smooth="yes"/>
      <point x="142" y="373"/>
      <point x="131" y="335"/>
      <point x="128" y="301" type="curve" smooth="yes"/>
      <point x="126" y="284"/>
      <point x="125" y="263"/>
      <point x="125" y="240" type="curve" smooth="yes"/>
      <point x="125" y="105"/>
      <point x="170" y="38"/>
      <point x="259" y="38" type="curve" smooth="yes"/>
      <point x="335" y="38"/>
      <point x="383" y="113"/>
      <point x="383" y="241" type="curve" smooth="yes"/>
      <point x="383" y="358"/>
      <point x="335" y="436"/>
    </contour>
  </outline>
</glyph>
<glyph name="q" format="1">
  <advance width="496"/>
  <unicode hex="0071"/>
  <outline>
    <contour>
      <point x="368" y="21" type="line"/>
      <point x="329" y="4"/>
      <point x="288" y="-5"/>
      <point x="244" y="-5" type="curve" smooth="yes"/>
      <point x="116" y="-5"/>
      <point x="57" y="72"/>
      <point x="57" y="240" type="curve" smooth="yes"/>
      <point x="57" y="405"/>
      <point x="116" y="488"/>
      <point x="234" y="488" type="curve" smooth="yes"/>
      <point x="255" y="488"/>
      <point x="277" y="485"/>
      <point x="298" y="479" type="curve"/>
      <point x="321" y="475"/>
      <point x="344" y="465"/>
      <point x="368" y="448" type="curve"/>
      <point x="374" y="463" type="line"/>
      <point x="380" y="480" type="line"/>
      <point x="430" y="480" type="line"/>
      <point x="430" y="-195" type="line"/>
      <point x="368" y="-195" type="line"/>
    </contour>
    <contour>
      <point x="292" y="44"/>
      <point x="332" y="51"/>
      <point x="368" y="64" type="curve"/>
      <point x="368" y="401" type="line"/>
      <point x="328" y="421" type="line"/>
      <point x="317" y="427"/>
      <point x="308" y="431"/>
      <point x="299" y="433" type="curve" smooth="yes"/>
      <point x="280" y="437"/>
      <point x="260" y="439"/>
      <point x="241" y="439" type="curve" smooth="yes"/>
      <point x="158" y="439"/>
      <point x="117" y="372"/>
      <point x="117" y="239" type="curve" smooth="yes"/>
      <point x="117" y="99"/>
      <point x="152" y="44"/>
      <point x="247" y="44" type="curve" smooth="yes"/>
    </contour>
  </outline>
</glyph>
<glyph name="r" format="1">
  <advance width="271"/>
  <unicode hex="0072"/>
  <outline>
    <contour>
      <point x="121" y="475" type="line"/>
      <point x="121" y="386" type="line"/>
      <point x="138" y="427"/>
      <point x="173" y="458"/>
      <point x="209" y="468" type="curve" smooth="yes"/>
      <point x="226" y="473"/>
      <point x="244" y="475"/>
      <point x="262" y="475" type="curve"/>
      <point x="262" y="415" type="line"/>
      <point x="211" y="415"/>
      <point x="173" y="396"/>
      <point x="153" y="363" type="curve" smooth="yes"/>
      <point x="132" y="330"/>
      <point x="123" y="291"/>
      <point x="123" y="247" type="curve" smooth="yes"/>
      <point x="123" y="0" type="line"/>
      <point x="57" y="0" type="line"/>
      <point x="57" y="475" type="line"/>
    </contour>
  </outline>
</glyph>
<glyph name="s" format="1">
  <advance width="431"/>
  <unicode hex="0073"/>
  <outline>
    <contour>
      <point x="345" y="367" type="curve"/>
      <point x="325" y="415"/>
      <point x="289" y="435"/>
      <point x="226" y="435" type="curve" smooth="yes"/>
      <point x="150" y="435"/>
      <point x="109" y="407"/>
      <point x="109" y="352" type="curve" smooth="yes"/>
      <point x="109" y="331"/>
      <point x="119" y="314"/>
      <point x="132" y="303" type="curve" smooth="yes"/>
      <point x="145" y="291"/>
      <point x="172" y="282"/>
      <point x="193" y="278" type="curve" smooth="yes"/>
      <point x="203" y="275"/>
      <point x="216" y="272"/>
      <point x="233" y="269" type="curve" smooth="yes"/>
      <point x="340" y="250"/>
      <point x="394" y="212"/>
      <point x="394" y="133" type="curve" smooth="yes"/>
      <point x="394" y="40"/>
      <point x="331" y="-11"/>
      <point x="206" y="-11" type="curve" smooth="yes"/>
      <point x="169" y="-11"/>
      <point x="133" y="-4"/>
      <point x="101" y="13" type="curve" smooth="yes"/>
      <point x="69" y="30"/>
      <point x="43" y="62"/>
      <point x="31" y="105" type="curve"/>
      <point x="81" y="124" type="line"/>
      <point x="104" y="64"/>
      <point x="140" y="39"/>
      <point x="213" y="39" type="curve" smooth="yes"/>
      <point x="294" y="39"/>
      <point x="334" y="66"/>
      <point x="334" y="120" type="curve" smooth="yes"/>
      <point x="334" y="149"/>
      <point x="325" y="170"/>
      <point x="306" y="183" type="curve" smooth="yes"/>
      <point x="287" y="195"/>
      <point x="248" y="207"/>
      <point x="189" y="219" type="curve" smooth="yes"/>
      <point x="153" y="227"/>
      <point x="132" y="235"/>
      <point x="106" y="248" type="curve" smooth="yes"/>
      <point x="80" y="260"/>
      <point x="66" y="277"/>
      <point x="55" y="305" type="curve" smooth="yes"/>
      <point x="50" y="319"/>
      <point x="47" y="335"/>
      <point x="47" y="353" type="curve" smooth="yes"/>
      <point x="47" y="436"/>
      <point x="118" y="485"/>
      <point x="222" y="485" type="curve" smooth="yes"/>
      <point x="307" y="485"/>
      <point x="358" y="460"/>
      <point x="390" y="392" type="curve"/>
      <point x="360" y="375"/>
      <point x="345" y="367"/>
    </contour>
  </outline>
</glyph>
<glyph name="t" format="1">
  <advance width="298"/>
  <unicode hex="0074"/>
  <outline>
    <contour>
      <point x="287" y="15" type="line"/>
      <point x="264" y="0"/>
      <point x="236" y="-8"/>
      <point x="205" y="-8" type="curve" smooth="yes"/>
      <point x="122" y="-8"/>
      <point x="88" y="39"/>
      <point x="88" y="151" type="curve" smooth="yes"/>
      <point x="88" y="428" type="line"/>
      <point x="18" y="428" type="line"/>
      <point x="18" y="475" type="line"/>
      <point x="93" y="475" type="line"/>
      <point x="93" y="626" type="line"/>
      <point x="155" y="643" type="line"/>
      <point x="155" y="475" type="line"/>
      <point x="258" y="475" type="line"/>
      <point x="258" y="428" type="line"/>
      <point x="155" y="428" type="line"/>
      <point x="155" y="121" type="line" smooth="yes"/>
      <point x="155" y="68"/>
      <point x="176" y="42"/>
      <point x="219" y="42" type="curve" smooth="yes"/>
      <point x="232" y="42"/>
      <point x="251" y="47"/>
      <point x="275" y="58" type="curve"/>
    </contour>
  </outline>
</glyph>
<glyph name="u" format="1">
  <advance width="519"/>
  <unicode hex="0075"/>
  <outline>
    <contour>
      <point x="377" y="475" type="line"/>
      <point x="443" y="475" type="line"/>
      <point x="443" y="0" type="line"/>
      <point x="379" y="0" type="line"/>
      <point x="379" y="89" type="line"/>
      <point x="354" y="24"/>
      <point x="282" y="-11"/>
      <point x="213" y="-11" type="curve" smooth="yes"/>
      <point x="172" y="-11"/>
      <point x="139" y="-1"/>
      <point x="118" y="15" type="curve" smooth="yes"/>
      <point x="97" y="30"/>
      <point x="80" y="56"/>
      <point x="72" y="79" type="curve" smooth="yes"/>
      <point x="64" y="102"/>
      <point x="58" y="136"/>
      <point x="57" y="161" type="curve"/>
      <point x="56" y="173"/>
      <point x="56" y="187"/>
      <point x="56" y="202" type="curve" smooth="yes"/>
      <point x="56" y="475" type="line"/>
      <point x="122" y="475" type="line"/>
      <point x="122" y="188" type="line" smooth="yes"/>
      <point x="122" y="91"/>
      <point x="148" y="40"/>
      <point x="224" y="40" type="curve" smooth="yes"/>
      <point x="269" y="40"/>
      <point x="308" y="58"/>
      <point x="331" y="82" type="curve" smooth="yes"/>
      <point x="354" y="105"/>
      <point x="369" y="136"/>
      <point x="374" y="163" type="curve" smooth="yes"/>
      <point x="376" y="176"/>
      <point x="377" y="189"/>
      <point x="377" y="202" type="curve" smooth="yes"/>
    </contour>
  </outline>
</glyph>
<glyph name="v" format="1">
  <advance width="461"/>
  <unicode hex="0076"/>
  <outline>
    <contour>
      <point x="238" y="51" type="line"/>
      <point x="371" y="480" type="line"/>
      <point x="431" y="480" type="line"/>
      <point x="271" y="0" type="line"/>
      <point x="205" y="0" type="line"/>
      <point x="38" y="480" type="line"/>
      <point x="98" y="480" type="line"/>
    </contour>
  </outline>
</glyph>
<glyph name="w" format="1">
  <advance width="690"/>
  <unicode hex="0077"/>
  <outline>
    <contour>
      <point x="162" y="0" type="line"/>
      <point x="9" y="475" type="line"/>
      <point x="80" y="475" type="line"/>
      <point x="196" y="82" type="line"/>
      <point x="247" y="238" type="line"/>
      <point x="325" y="475" type="line"/>
      <point x="369" y="475" type="line"/>
      <point x="441" y="239" type="line"/>
      <point x="490" y="83" type="line"/>
      <point x="614" y="475" type="line"/>
      <point x="678" y="475" type="line"/>
      <point x="517" y="0" type="line"/>
      <point x="458" y="0" type="line"/>
      <point x="344" y="371" type="line"/>
      <point x="221" y="0" type="line"/>
    </contour>
  </outline>
</glyph>
<glyph name="x" format="1">
  <advance width="448"/>
  <unicode hex="0078"/>
  <outline>
    <contour>
      <point x="188" y="238" type="line"/>
      <point x="16" y="475" type="line"/>
      <point x="87" y="475" type="line"/>
      <point x="223" y="281" type="line"/>
      <point x="360" y="475" type="line"/>
      <point x="429" y="475" type="line"/>
      <point x="258" y="240" type="line"/>
      <point x="435" y="0" type="line"/>
      <point x="364" y="0" type="line"/>
      <point x="223" y="195" type="line"/>
      <point x="84" y="0" type="line"/>
      <point x="14" y="0" type="line"/>
    </contour>
  </outline>
</glyph>
<glyph name="y" format="1">
  <advance width="457"/>
  <unicode hex="0079"/>
  <outline>
    <contour>
      <point x="198" y="29" type="line"/>
      <point x="16" y="475" type="line"/>
      <point x="84" y="475" type="line"/>
      <point x="93" y="452"/>
      <point x="110" y="407" type="curve" smooth="yes"/>
      <point x="128" y="361"/>
      <point x="149" y="306"/>
      <point x="174" y="243" type="curve" smooth="yes"/>
      <point x="199" y="180"/>
      <point x="218" y="131"/>
      <point x="231" y="98" type="curve"/>
      <point x="258" y="167"/>
      <point x="307" y="292"/>
      <point x="378" y="475" type="curve"/>
      <point x="443" y="475" type="line"/>
      <point x="422" y="420"/>
      <point x="391" y="344"/>
      <point x="351" y="245" type="curve" smooth="yes"/>
      <point x="311" y="146"/>
      <point x="284" y="79"/>
      <point x="271" y="45" type="curve" smooth="yes"/>
      <point x="250" y="-11"/>
      <point x="236" y="-40"/>
      <point x="213" y="-76" type="curve" smooth="yes"/>
      <point x="190" y="-112"/>
      <point x="169" y="-128"/>
      <point x="135" y="-139" type="curve" smooth="yes"/>
      <point x="118" y="-145"/>
      <point x="99" y="-148"/>
      <point x="79" y="-148" type="curve" smooth="yes"/>
      <point x="62" y="-148"/>
      <point x="46" y="-146"/>
      <point x="29" y="-142" type="curve"/>
      <point x="37" y="-89" type="line"/>
      <point x="51" y="-92"/>
      <point x="65" y="-93"/>
      <point x="78" y="-93" type="curve" smooth="yes"/>
      <point x="130" y="-93"/>
      <point x="166" y="-62"/>
      <point x="187" y="-1" type="curve" smooth="yes"/>
    </contour>
  </outline>
</glyph>
<glyph name="z" format="1">
  <advance width="408"/>
  <unicode hex="007A"/>
  <outline>
    <contour>
      <point x="40" y="427" type="line"/>
      <point x="40" y="475" type="line"/>
      <point x="388" y="475" type="line"/>
      <point x="388" y="430" type="line"/>
      <point x="105" y="47" type="line"/>
      <point x="387" y="47" type="line"/>
      <point x="387" y="0" type="line"/>
      <point x="30" y="0" type="line"/>
      <point x="30" y="44" type="line"/>
      <point x="310" y="427" type="line"/>
    </contour>
  </outline>
</glyph>
<glyph name="braceleft" format="1">
  <advance width="303"/>
  <unicode hex="007B"/>
  <outline>
    <contour>
      <point x="271" y="-82" type="line"/>
      <point x="274" y="-82" type="line"/>
      <point x="269" y="-88" type="line"/>
      <point x="269" y="-82" type="line"/>
    </contour>
    <contour>
      <point x="274" y="734" type="line"/>
      <point x="271" y="734" type="line"/>
      <point x="269" y="734" type="line"/>
      <point x="269" y="740" type="line"/>
    </contour>
    <contour>
      <point x="32" y="349" type="line"/>
      <point x="105" y="394" type="line"/>
      <point x="108" y="419"/>
      <point x="108" y="451"/>
      <point x="108" y="486" type="curve" smooth="yes"/>
      <point x="108" y="503" type="line"/>
      <point x="107" y="567" type="line"/>
      <point x="107" y="606"/>
      <point x="109" y="636"/>
      <point x="114" y="657" type="curve"/>
      <point x="113" y="655" type="line"/>
      <point x="114" y="658"/>
      <point x="116" y="662"/>
      <point x="116" y="665" type="curve"/>
      <point x="121" y="687" type="line"/>
      <point x="144" y="726"/>
      <point x="185" y="735"/>
      <point x="269" y="734" type="curve"/>
      <point x="272" y="692" type="line"/>
      <point x="242" y="692" type="line" smooth="yes"/>
      <point x="231" y="692"/>
      <point x="223" y="692"/>
      <point x="216" y="692" type="curve" smooth="yes"/>
      <point x="203" y="692"/>
      <point x="187" y="686"/>
      <point x="177" y="675" type="curve" smooth="yes"/>
      <point x="167" y="664"/>
      <point x="161" y="647"/>
      <point x="158" y="617" type="curve" smooth="yes"/>
      <point x="157" y="602"/>
      <point x="156" y="583"/>
      <point x="156" y="562" type="curve" smooth="yes"/>
      <point x="156" y="369" type="line"/>
      <point x="81" y="326" type="line"/>
      <point x="92" y="319"/>
      <point x="105" y="312"/>
      <point x="119" y="304" type="curve"/>
      <point x="132" y="295"/>
      <point x="145" y="288"/>
      <point x="156" y="281" type="curve"/>
      <point x="156" y="90" type="line" smooth="yes"/>
      <point x="156" y="80"/>
      <point x="156" y="70"/>
      <point x="156" y="61" type="curve" smooth="yes"/>
      <point x="156" y="42"/>
      <point x="156" y="23"/>
      <point x="164" y="1" type="curve"/>
      <point x="167" y="-10"/>
      <point x="171" y="-18"/>
      <point x="174" y="-23" type="curve"/>
      <point x="179" y="-27"/>
      <point x="187" y="-32"/>
      <point x="195" y="-35" type="curve"/>
      <point x="199" y="-36"/>
      <point x="203" y="-37"/>
      <point x="208" y="-38" type="curve" smooth="yes"/>
      <point x="213" y="-39"/>
      <point x="217" y="-39"/>
      <point x="222" y="-40" type="curve"/>
      <point x="272" y="-40" type="line"/>
      <point x="269" y="-82" type="line"/>
      <point x="198" y="-82"/>
      <point x="160" y="-79"/>
      <point x="137" y="-56" type="curve"/>
      <point x="112" y="-33"/>
      <point x="107" y="9"/>
      <point x="107" y="85" type="curve" smooth="yes"/>
      <point x="108" y="149" type="line"/>
      <point x="108" y="165" type="line" smooth="yes"/>
      <point x="108" y="200"/>
      <point x="108" y="231"/>
      <point x="105" y="258" type="curve"/>
      <point x="32" y="304" type="line"/>
    </contour>
  </outline>
</glyph>
<glyph name="bar" format="1">
  <advance width="206"/>
  <unicode hex="007C"/>
  <outline>
    <contour>
      <point x="82" y="657" type="line"/>
      <point x="131" y="657" type="line"/>
      <point x="131" y="-37" type="line"/>
      <point x="82" y="-37" type="line"/>
    </contour>
  </outline>
</glyph>
<glyph name="braceright" format="1">
  <advance width="303"/>
  <unicode hex="007D"/>
  <outline>
    <contour>
      <point x="39" y="740" type="line"/>
      <point x="38" y="734" type="line"/>
      <point x="33" y="734" type="line"/>
    </contour>
    <contour>
      <point x="199" y="85" type="line" smooth="yes"/>
      <point x="199" y="22"/>
      <point x="196" y="-8"/>
      <point x="185" y="-35" type="curve"/>
      <point x="182" y="-44"/>
      <point x="178" y="-51"/>
      <point x="171" y="-56" type="curve"/>
      <point x="148" y="-76"/>
      <point x="114" y="-82"/>
      <point x="38" y="-82" type="curve"/>
      <point x="35" y="-40" type="line"/>
      <point x="91" y="-40" type="line" smooth="yes"/>
      <point x="102" y="-40"/>
      <point x="125" y="-32"/>
      <point x="133" y="-23" type="curve"/>
      <point x="136" y="-19"/>
      <point x="140" y="-11"/>
      <point x="144" y="1" type="curve" smooth="yes"/>
      <point x="149" y="15"/>
      <point x="151" y="35"/>
      <point x="151" y="60" type="curve" smooth="yes"/>
      <point x="151" y="281" type="line"/>
      <point x="225" y="326" type="line"/>
      <point x="151" y="369" type="line"/>
      <point x="151" y="562" type="line" smooth="yes"/>
      <point x="151" y="599"/>
      <point x="150" y="623"/>
      <point x="147" y="636" type="curve"/>
      <point x="142" y="668"/>
      <point x="136" y="689"/>
      <point x="84" y="692" type="curve"/>
      <point x="35" y="692" type="line"/>
      <point x="38" y="734" type="line"/>
      <point x="105" y="734"/>
      <point x="138" y="730"/>
      <point x="161" y="715" type="curve" smooth="yes"/>
      <point x="185" y="699"/>
      <point x="195" y="671"/>
      <point x="198" y="618" type="curve"/>
      <point x="199" y="615"/>
      <point x="199" y="607"/>
      <point x="199" y="595" type="curve" smooth="yes"/>
      <point x="199" y="486" type="line" smooth="yes"/>
      <point x="199" y="442"/>
      <point x="200" y="411"/>
      <point x="202" y="394" type="curve"/>
      <point x="239" y="371" type="line" smooth="yes"/>
      <point x="258" y="360"/>
      <point x="270" y="352"/>
      <point x="275" y="349" type="curve"/>
      <point x="275" y="304" type="line"/>
      <point x="202" y="258" type="line"/>
      <point x="200" y="240"/>
      <point x="199" y="209"/>
      <point x="199" y="165" type="curve" smooth="yes"/>
    </contour>
    <contour>
      <point x="33" y="-82" type="line"/>
      <point x="38" y="-82" type="line"/>
      <point x="39" y="-88" type="line"/>
    </contour>
  </outline>
</glyph>
<glyph name="asciitilde" format="1">
  <advance width="507"/>
  <unicode hex="007E"/>
  <outline>
    <contour>
      <point x="53" y="259" type="line"/>
      <point x="97" y="324"/>
      <point x="125" y="351"/>
      <point x="164" y="351" type="curve" smooth="yes"/>
      <point x="175" y="351"/>
      <point x="187" y="348"/>
      <point x="201" y="343" type="curve"/>
      <point x="273" y="304" type="line"/>
      <point x="292" y="291"/>
      <point x="308" y="282"/>
      <point x="323" y="277" type="curve" smooth="yes"/>
      <point x="338" y="272"/>
      <point x="347" y="269"/>
      <point x="351" y="269" type="curve" smooth="yes"/>
      <point x="368" y="269"/>
      <point x="386" y="280"/>
      <point x="403" y="302" type="curve" smooth="yes"/>
      <point x="425" y="329" type="line"/>
      <point x="459" y="304" type="line"/>
      <point x="451" y="289" type="line"/>
      <point x="440" y="273" type="line" smooth="yes"/>
      <point x="435" y="266"/>
      <point x="427" y="256"/>
      <point x="416" y="245" type="curve" smooth="yes"/>
      <point x="395" y="224"/>
      <point x="373" y="214"/>
      <point x="349" y="214" type="curve" smooth="yes"/>
      <point x="333" y="214"/>
      <point x="320" y="217"/>
      <point x="309" y="224" type="curve"/>
      <point x="288" y="233"/>
      <point x="265" y="246"/>
      <point x="239" y="262" type="curve" smooth="yes"/>
      <point x="203" y="284"/>
      <point x="179" y="295"/>
      <point x="166" y="295" type="curve" smooth="yes"/>
      <point x="148" y="295"/>
      <point x="129" y="283"/>
      <point x="110" y="260" type="curve" smooth="yes"/>
      <point x="103" y="251"/>
      <point x="100" y="247"/>
      <point x="99" y="246" type="curve"/>
      <point x="87" y="231" type="line"/>
    </contour>
    <contour>
      <point x="428" y="333" type="line"/>
      <point x="428" y="334"/>
      <point x="428" y="335"/>
      <point x="429" y="336" type="curve" smooth="yes"/>
      <point x="430" y="337"/>
      <point x="430" y="338"/>
      <point x="430" y="339" type="curve"/>
      <point x="419" y="334" type="line"/>
      <point x="425" y="329" type="line"/>
    </contour>
    <contour>
      <point x="53" y="259" type="line"/>
      <point x="42" y="269" type="line"/>
      <point x="38" y="257" type="line"/>
      <point x="52" y="257" type="line"/>
    </contour>
    <contour>
      <point x="85" y="229" type="line"/>
      <point x="85" y="228"/>
      <point x="85" y="227"/>
      <point x="84" y="226" type="curve" smooth="yes"/>
      <point x="83" y="225"/>
      <point x="83" y="224"/>
      <point x="83" y="223" type="curve"/>
      <point x="93" y="228" type="line"/>
      <point x="87" y="231" type="line"/>
    </contour>
  </outline>
</glyph>
<glyph name="exclamdown" format="1">
  <advance width="218"/>
  <unicode hex="00A1"/>
  <outline>
    <contour>
      <point x="74" y="493" type="line"/>
      <point x="74" y="566" type="line"/>
      <point x="139" y="566" type="line"/>
      <point x="139" y="493" type="line"/>
    </contour>
    <contour>
      <point x="77" y="-73" type="line"/>
      <point x="96" y="396" type="line"/>
      <point x="122" y="396" type="line"/>
      <point x="142" y="-73" type="line"/>
    </contour>
  </outline>
</glyph>
<glyph name="cent" format="1">
  <advance width="429"/>
  <unicode hex="00A2"/>
  <outline>
    <contour>
      <point x="62" y="388"/>
      <point x="115" y="470"/>
      <point x="220" y="484" type="curve"/>
      <point x="220" y="555" type="line"/>
      <point x="265" y="555" type="line"/>
      <point x="265" y="484" type="line"/>
      <point x="306" y="479"/>
      <point x="335" y="473"/>
      <point x="354" y="466" type="curve"/>
      <point x="344" y="419" type="line"/>
      <point x="312" y="431"/>
      <point x="278" y="437"/>
      <point x="243" y="437" type="curve" smooth="yes"/>
      <point x="196" y="437"/>
      <point x="160" y="415"/>
      <point x="140" y="378" type="curve"/>
      <point x="119" y="343"/>
      <point x="109" y="296"/>
      <point x="109" y="237" type="curve" smooth="yes"/>
      <point x="109" y="174"/>
      <point x="121" y="124"/>
      <point x="144" y="89" type="curve"/>
      <point x="165" y="54"/>
      <point x="200" y="35"/>
      <point x="243" y="35" type="curve" smooth="yes"/>
      <point x="274" y="35"/>
      <point x="311" y="44"/>
      <point x="356" y="62" type="curve"/>
      <point x="370" y="15" type="line"/>
      <point x="341" y="2"/>
      <point x="307" y="-7"/>
      <point x="267" y="-13" type="curve"/>
      <point x="267" y="-78" type="line"/>
      <point x="222" y="-78" type="line"/>
      <point x="222" y="-13" type="line"/>
      <point x="115" y="2"/>
      <point x="62" y="85"/>
      <point x="62" y="237" type="curve" smooth="yes"/>
    </contour>
    <contour>
      <point x="358" y="466" type="line"/>
      <point x="359" y="465"/>
      <point x="360" y="465"/>
      <point x="361" y="465" type="curve"/>
      <point x="355" y="472" type="line"/>
      <point x="354" y="466" type="line"/>
    </contour>
    <contour>
      <point x="343" y="412" type="line"/>
      <point x="349" y="417" type="line"/>
      <point x="348" y="417"/>
      <point x="348" y="417"/>
      <point x="348" y="418" type="curve"/>
      <point x="347" y="418" type="line" smooth="yes"/>
      <point x="346" y="418"/>
      <point x="345" y="418"/>
      <point x="344" y="419" type="curve"/>
    </contour>
    <contour>
      <point x="356" y="62" type="line"/>
      <point x="357" y="62"/>
      <point x="358" y="62"/>
      <point x="359" y="63" type="curve"/>
      <point x="358" y="63" type="line"/>
      <point x="360" y="64" type="line"/>
      <point x="361" y="64" type="line"/>
      <point x="355" y="68" type="line"/>
    </contour>
    <contour>
      <point x="372" y="10" type="line"/>
      <point x="378" y="18" type="line"/>
      <point x="373" y="16" type="line"/>
      <point x="372" y="15"/>
      <point x="371" y="15"/>
      <point x="370" y="15" type="curve"/>
    </contour>
  </outline>
</glyph>
<glyph name="sterling" format="1">
  <advance width="445"/>
  <unicode hex="00A3"/>
  <outline>
    <contour>
      <point x="376" y="561" type="line"/>
      <point x="375" y="561"/>
      <point x="375" y="561"/>
      <point x="374" y="562" type="curve"/>
      <point x="372" y="556" type="line"/>
      <point x="381" y="557" type="line"/>
    </contour>
    <contour>
      <point x="393" y="603" type="line"/>
      <point x="394" y="602"/>
      <point x="394" y="602"/>
      <point x="395" y="602" type="curve" smooth="yes"/>
      <point x="396" y="602"/>
      <point x="397" y="602"/>
      <point x="398" y="601" type="curve" smooth="yes"/>
      <point x="399" y="600"/>
      <point x="399" y="600"/>
      <point x="400" y="600" type="curve"/>
      <point x="396" y="608" type="line"/>
    </contour>
    <contour>
      <point x="77" y="-5" type="line"/>
      <point x="58" y="52" type="line"/>
      <point x="107" y="105"/>
      <point x="129" y="159"/>
      <point x="129" y="222" type="curve" smooth="yes"/>
      <point x="129" y="248"/>
      <point x="126" y="276"/>
      <point x="119" y="305" type="curve"/>
      <point x="41" y="305" type="line"/>
      <point x="41" y="349" type="line"/>
      <point x="109" y="349" type="line"/>
      <point x="96" y="396"/>
      <point x="88" y="437"/>
      <point x="88" y="472" type="curve" smooth="yes"/>
      <point x="88" y="585"/>
      <point x="154" y="644"/>
      <point x="271" y="644" type="curve" smooth="yes"/>
      <point x="314" y="644"/>
      <point x="354" y="630"/>
      <point x="393" y="603" type="curve"/>
      <point x="374" y="562" type="line"/>
      <point x="343" y="583"/>
      <point x="309" y="594"/>
      <point x="272" y="594" type="curve" smooth="yes"/>
      <point x="185" y="594"/>
      <point x="141" y="551"/>
      <point x="141" y="464" type="curve" smooth="yes"/>
      <point x="141" y="433"/>
      <point x="146" y="396"/>
      <point x="159" y="349" type="curve"/>
      <point x="327" y="349" type="line"/>
      <point x="327" y="305" type="line"/>
      <point x="170" y="305" type="line"/>
      <point x="179" y="258"/>
      <point x="183" y="227"/>
      <point x="183" y="200" type="curve" smooth="yes"/>
      <point x="183" y="143"/>
      <point x="161" y="89"/>
      <point x="118" y="40" type="curve"/>
      <point x="406" y="40" type="line"/>
      <point x="406" y="-4" type="line"/>
    </contour>
  </outline>
</glyph>
<glyph name="currency" format="1">
  <advance width="495"/>
  <unicode hex="00A4"/>
  <outline>
    <contour>
      <point x="356" y="373"/>
      <point x="313" y="429"/>
      <point x="248" y="429" type="curve" smooth="yes"/>
      <point x="183" y="429"/>
      <point x="141" y="372"/>
      <point x="141" y="304" type="curve" smooth="yes"/>
      <point x="141" y="236"/>
      <point x="182" y="179"/>
      <point x="249" y="179" type="curve" smooth="yes"/>
      <point x="312" y="179"/>
      <point x="356" y="238"/>
      <point x="356" y="305" type="curve" smooth="yes"/>
    </contour>
    <contour>
      <point x="362" y="177" type="line"/>
      <point x="332" y="147"/>
      <point x="294" y="132"/>
      <point x="248" y="132" type="curve" smooth="yes"/>
      <point x="211" y="132"/>
      <point x="178" y="142"/>
      <point x="150" y="162" type="curve"/>
      <point x="88" y="91" type="line"/>
      <point x="59" y="118" type="line"/>
      <point x="123" y="190" type="line"/>
      <point x="98" y="222"/>
      <point x="85" y="260"/>
      <point x="85" y="304" type="curve" smooth="yes"/>
      <point x="85" y="339"/>
      <point x="93" y="371"/>
      <point x="109" y="398" type="curve"/>
      <point x="36" y="463" type="line"/>
      <point x="62" y="492" type="line"/>
      <point x="133" y="429" type="line"/>
      <point x="163" y="460"/>
      <point x="201" y="475"/>
      <point x="248" y="475" type="curve" smooth="yes"/>
      <point x="287" y="475"/>
      <point x="319" y="465"/>
      <point x="346" y="444" type="curve"/>
      <point x="408" y="514" type="line"/>
      <point x="437" y="488" type="line"/>
      <point x="373" y="415" type="line"/>
      <point x="397" y="384"/>
      <point x="409" y="347"/>
      <point x="409" y="303" type="curve" smooth="yes"/>
      <point x="409" y="268"/>
      <point x="401" y="237"/>
      <point x="386" y="208" type="curve"/>
      <point x="459" y="143" type="line"/>
      <point x="433" y="114" type="line"/>
    </contour>
  </outline>
</glyph>
<glyph name="yen" format="1">
  <advance width="553"/>
  <unicode hex="00A5"/>
  <outline>
    <contour>
      <point x="117" y="275" type="line"/>
      <point x="117" y="319" type="line"/>
      <point x="235" y="319" type="line"/>
      <point x="58" y="635" type="line"/>
      <point x="125" y="635" type="line"/>
      <point x="279" y="343" type="line"/>
      <point x="431" y="635" type="line"/>
      <point x="500" y="635" type="line"/>
      <point x="322" y="319" type="line"/>
      <point x="437" y="319" type="line"/>
      <point x="437" y="275" type="line"/>
      <point x="309" y="275" type="line"/>
      <point x="309" y="218" type="line"/>
      <point x="437" y="218" type="line"/>
      <point x="437" y="173" type="line"/>
      <point x="309" y="173" type="line"/>
      <point x="309" y="-4" type="line"/>
      <point x="249" y="-4" type="line"/>
      <point x="249" y="173" type="line"/>
      <point x="117" y="173" type="line"/>
      <point x="117" y="218" type="line"/>
      <point x="249" y="218" type="line"/>
      <point x="249" y="275" type="line"/>
    </contour>
  </outline>
</glyph>
<glyph name="brokenbar" format="1">
  <advance width="193"/>
  <unicode hex="00A6"/>
  <outline>
    <contour>
      <point x="130" y="409" type="line"/>
      <point x="63" y="409" type="line"/>
      <point x="63" y="697" type="line"/>
      <point x="130" y="697" type="line"/>
    </contour>
    <contour>
      <point x="63" y="-92" type="line"/>
      <point x="63" y="200" type="line"/>
      <point x="130" y="200" type="line"/>
      <point x="130" y="-92" type="line"/>
    </contour>
  </outline>
</glyph>
<glyph name="section" format="1">
  <advance width="456"/>
  <unicode hex="00A7"/>
  <outline>
    <contour>
      <point x="382" y="47"/>
      <point x="369" y="11"/>
      <point x="343" y="-12" type="curve"/>
      <point x="314" y="-35"/>
      <point x="276" y="-46"/>
      <point x="227" y="-46" type="curve" smooth="yes"/>
      <point x="150" y="-46"/>
      <point x="105" y="-32"/>
      <point x="69" y="4" type="curve"/>
      <point x="69" y="6" type="line"/>
      <point x="68" y="6"/>
      <point x="68" y="7"/>
      <point x="68" y="8" type="curve"/>
      <point x="67" y="6" type="line"/>
      <point x="90" y="54" type="line"/>
      <point x="91" y="52" type="line"/>
      <point x="134" y="22"/>
      <point x="180" y="7"/>
      <point x="228" y="7" type="curve" smooth="yes"/>
      <point x="293" y="7"/>
      <point x="325" y="34"/>
      <point x="325" y="87" type="curve" smooth="yes"/>
      <point x="325" y="109"/>
      <point x="321" y="125"/>
      <point x="313" y="135" type="curve"/>
      <point x="308" y="144"/>
      <point x="294" y="153"/>
      <point x="272" y="162" type="curve"/>
      <point x="202" y="194" type="line"/>
      <point x="203" y="193" type="line"/>
      <point x="195" y="196" type="line"/>
      <point x="168" y="208" type="line"/>
      <point x="140" y="223" type="line"/>
      <point x="113" y="236" type="line"/>
      <point x="114" y="236" type="line"/>
      <point x="98" y="250" type="line"/>
      <point x="89" y="260" type="line"/>
      <point x="82" y="267" type="line" smooth="yes"/>
      <point x="81" y="268"/>
      <point x="79" y="271"/>
      <point x="78" y="275" type="curve"/>
      <point x="75" y="285" type="line"/>
      <point x="70" y="298"/>
      <point x="67" y="314"/>
      <point x="67" y="335" type="curve" smooth="yes"/>
      <point x="67" y="380"/>
      <point x="90" y="417"/>
      <point x="137" y="445" type="curve"/>
      <point x="98" y="474"/>
      <point x="79" y="511"/>
      <point x="79" y="557" type="curve" smooth="yes"/>
      <point x="79" y="649"/>
      <point x="135" y="697"/>
      <point x="235" y="697" type="curve" smooth="yes"/>
      <point x="298" y="697"/>
      <point x="347" y="682"/>
      <point x="382" y="651" type="curve"/>
      <point x="382" y="650" type="line"/>
      <point x="357" y="606" type="line"/>
      <point x="356" y="605" type="line"/>
      <point x="317" y="632"/>
      <point x="277" y="646"/>
      <point x="236" y="646" type="curve" smooth="yes"/>
      <point x="201" y="646"/>
      <point x="176" y="640"/>
      <point x="159" y="627" type="curve"/>
      <point x="144" y="612"/>
      <point x="136" y="590"/>
      <point x="136" y="561" type="curve" smooth="yes"/>
      <point x="136" y="517"/>
      <point x="154" y="495"/>
      <point x="206" y="474" type="curve" smooth="yes"/>
      <point x="265" y="449" type="line"/>
      <point x="290" y="438" type="line"/>
      <point x="290" y="439" type="line"/>
      <point x="323" y="425" type="line" smooth="yes"/>
      <point x="335" y="420"/>
      <point x="343" y="415"/>
      <point x="348" y="411" type="curve" smooth="yes"/>
      <point x="389" y="380"/>
      <point x="398" y="351"/>
      <point x="398" y="303" type="curve" smooth="yes"/>
      <point x="398" y="263"/>
      <point x="380" y="226"/>
      <point x="343" y="191" type="curve"/>
      <point x="369" y="166"/>
      <point x="382" y="134"/>
      <point x="382" y="94" type="curve" smooth="yes"/>
    </contour>
    <contour>
      <point x="345" y="336"/>
      <point x="318" y="362"/>
      <point x="278" y="378" type="curve"/>
      <point x="228" y="401" type="line"/>
      <point x="174" y="425" type="line"/>
      <point x="140" y="400"/>
      <point x="123" y="373"/>
      <point x="123" y="344" type="curve" smooth="yes"/>
      <point x="123" y="321"/>
      <point x="128" y="305"/>
      <point x="139" y="294" type="curve"/>
      <point x="148" y="282"/>
      <point x="163" y="273"/>
      <point x="183" y="267" type="curve"/>
      <point x="236" y="244" type="line"/>
      <point x="235" y="245" type="line"/>
      <point x="260" y="235" type="line"/>
      <point x="260" y="236" type="line"/>
      <point x="261" y="235"/>
      <point x="263" y="235"/>
      <point x="265" y="235" type="curve"/>
      <point x="264" y="236"/>
      <point x="264" y="236"/>
      <point x="265" y="236" type="curve"/>
      <point x="273" y="233" type="line"/>
      <point x="302" y="216" type="line"/>
      <point x="313" y="234" type="line"/>
      <point x="332" y="253"/>
      <point x="335" y="254"/>
      <point x="341" y="274" type="curve" smooth="yes"/>
      <point x="344" y="284"/>
      <point x="345" y="294"/>
      <point x="345" y="303" type="curve" smooth="yes"/>
    </contour>
  </outline>
</glyph>
<glyph name="dieresis" format="1">
  <advance width="220"/>
  <unicode hex="00A8"/>
  <outline>
    <contour>
      <point x="65" y="496" type="line"/>
      <point x="1" y="496" type="line"/>
      <point x="1" y="556" type="line"/>
      <point x="65" y="556" type="line"/>
    </contour>
    <contour>
      <point x="222" y="496" type="line"/>
      <point x="158" y="496" type="line"/>
      <point x="158" y="556" type="line"/>
      <point x="222" y="556" type="line"/>
    </contour>
  </outline>
</glyph>
<glyph name="copyright" format="1">
  <advance width="772"/>
  <unicode hex="00A9"/>
  <outline>
    <contour>
      <point x="291" y="45"/>
      <point x="340" y="34"/>
      <point x="388" y="34" type="curve" smooth="yes"/>
      <point x="436" y="34"/>
      <point x="485" y="48"/>
      <point x="529" y="73" type="curve" smooth="yes"/>
      <point x="572" y="97"/>
      <point x="608" y="132"/>
      <point x="632" y="175" type="curve"/>
      <point x="657" y="216"/>
      <point x="670" y="267"/>
      <point x="670" y="314" type="curve" smooth="yes"/>
      <point x="670" y="363"/>
      <point x="657" y="413"/>
      <point x="633" y="457" type="curve" smooth="yes"/>
      <point x="609" y="500"/>
      <point x="574" y="538"/>
      <point x="530" y="562" type="curve"/>
      <point x="489" y="589"/>
      <point x="441" y="601"/>
      <point x="394" y="601" type="curve" smooth="yes"/>
      <point x="346" y="601"/>
      <point x="297" y="587"/>
      <point x="253" y="562" type="curve" smooth="yes"/>
      <point x="209" y="537"/>
      <point x="172" y="502"/>
      <point x="148" y="458" type="curve" smooth="yes"/>
      <point x="124" y="417"/>
      <point x="111" y="367"/>
      <point x="111" y="320" type="curve" smooth="yes"/>
      <point x="111" y="269"/>
      <point x="124" y="220"/>
      <point x="148" y="176" type="curve" smooth="yes"/>
      <point x="171" y="132"/>
      <point x="206" y="96"/>
      <point x="250" y="72" type="curve"/>
    </contour>
    <contour>
      <point x="75" y="229"/>
      <point x="67" y="270"/>
      <point x="67" y="313" type="curve" smooth="yes"/>
      <point x="67" y="377"/>
      <point x="86" y="442"/>
      <point x="121" y="495" type="curve" smooth="yes"/>
      <point x="156" y="548"/>
      <point x="205" y="591"/>
      <point x="265" y="614" type="curve"/>
      <point x="305" y="632"/>
      <point x="347" y="641"/>
      <point x="391" y="641" type="curve" smooth="yes"/>
      <point x="432" y="641"/>
      <point x="477" y="631"/>
      <point x="517" y="614" type="curve" smooth="yes"/>
      <point x="593" y="579"/>
      <point x="655" y="522"/>
      <point x="687" y="442" type="curve"/>
      <point x="706" y="403"/>
      <point x="715" y="361"/>
      <point x="715" y="317" type="curve" smooth="yes"/>
      <point x="715" y="272"/>
      <point x="706" y="230"/>
      <point x="687" y="191" type="curve"/>
      <point x="655" y="112"/>
      <point x="593" y="53"/>
      <point x="517" y="18" type="curve"/>
      <point x="476" y="1"/>
      <point x="434" y="-7"/>
      <point x="391" y="-7" type="curve" smooth="yes"/>
      <point x="347" y="-7"/>
      <point x="304" y="1"/>
      <point x="265" y="18" type="curve" smooth="yes"/>
      <point x="185" y="53"/>
      <point x="127" y="110"/>
      <point x="92" y="190" type="curve" smooth="yes"/>
    </contour>
    <contour>
      <point x="504" y="164" type="line"/>
      <point x="507" y="166" type="line"/>
      <point x="504" y="165" type="line"/>
    </contour>
    <contour>
      <point x="523" y="132" type="line"/>
      <point x="520" y="131"/>
      <point x="519" y="130"/>
      <point x="520" y="130" type="curve"/>
      <point x="521" y="126" type="line"/>
      <point x="527" y="134" type="line"/>
    </contour>
    <contour>
      <point x="438" y="138"/>
      <point x="472" y="147"/>
      <point x="504" y="164" type="curve"/>
      <point x="505" y="165" type="line"/>
      <point x="520" y="130" type="line"/>
      <point x="480" y="110"/>
      <point x="439" y="102"/>
      <point x="398" y="102" type="curve" smooth="yes"/>
      <point x="334" y="102"/>
      <point x="285" y="120"/>
      <point x="249" y="160" type="curve" smooth="yes"/>
      <point x="214" y="201"/>
      <point x="196" y="252"/>
      <point x="196" y="314" type="curve" smooth="yes"/>
      <point x="196" y="373"/>
      <point x="213" y="423"/>
      <point x="244" y="466" type="curve" smooth="yes"/>
      <point x="275" y="509"/>
      <point x="327" y="534"/>
      <point x="395" y="534" type="curve" smooth="yes"/>
      <point x="432" y="534"/>
      <point x="470" y="525"/>
      <point x="508" y="506" type="curve"/>
      <point x="508" y="489"/>
      <point x="508" y="473"/>
      <point x="509" y="457" type="curve" smooth="yes"/>
      <point x="510" y="441"/>
      <point x="510" y="425"/>
      <point x="510" y="408" type="curve"/>
      <point x="469" y="408" type="line"/>
      <point x="469" y="484" type="line"/>
      <point x="442" y="493"/>
      <point x="420" y="498"/>
      <point x="393" y="498" type="curve" smooth="yes"/>
      <point x="329" y="498"/>
      <point x="281" y="455"/>
      <point x="261" y="402" type="curve" smooth="yes"/>
      <point x="250" y="375"/>
      <point x="245" y="345"/>
      <point x="245" y="313" type="curve" smooth="yes"/>
      <point x="245" y="262"/>
      <point x="259" y="218"/>
      <point x="286" y="187" type="curve" smooth="yes"/>
      <point x="313" y="156"/>
      <point x="353" y="138"/>
      <point x="402" y="138" type="curve" smooth="yes"/>
    </contour>
  </outline>
</glyph>
<glyph name="ordfeminine" format="1">
  <advance width="439"/>
  <unicode hex="00AA"/>
  <outline>
    <contour>
      <point x="313" y="45" type="line"/>
      <point x="273" y="8"/>
      <point x="229" y="-10"/>
      <point x="182" y="-10" type="curve" smooth="yes"/>
      <point x="121" y="-10"/>
      <point x="70" y="28"/>
      <point x="70" y="93" type="curve" smooth="yes"/>
      <point x="70" y="114"/>
      <point x="76" y="135"/>
      <point x="84" y="149" type="curve" smooth="yes"/>
      <point x="91" y="163"/>
      <point x="106" y="176"/>
      <point x="119" y="185" type="curve" smooth="yes"/>
      <point x="131" y="194"/>
      <point x="156" y="203"/>
      <point x="173" y="208" type="curve" smooth="yes"/>
      <point x="189" y="213"/>
      <point x="219" y="219"/>
      <point x="239" y="223" type="curve" smooth="yes"/>
      <point x="249" y="225"/>
      <point x="261" y="227"/>
      <point x="275" y="230" type="curve" smooth="yes"/>
      <point x="312" y="236" type="line"/>
      <point x="312" y="266" type="line" smooth="yes"/>
      <point x="312" y="329"/>
      <point x="277" y="357"/>
      <point x="229" y="357" type="curve" smooth="yes"/>
      <point x="190" y="357"/>
      <point x="149" y="337"/>
      <point x="121" y="309" type="curve"/>
      <point x="121" y="310"/>
      <point x="109" y="321"/>
      <point x="85" y="342" type="curve"/>
      <point x="117" y="379"/>
      <point x="181" y="404"/>
      <point x="228" y="404" type="curve" smooth="yes"/>
      <point x="319" y="404"/>
      <point x="369" y="353"/>
      <point x="369" y="253" type="curve" smooth="yes"/>
      <point x="369" y="0" type="line"/>
      <point x="320" y="0" type="line"/>
    </contour>
    <contour>
      <point x="312" y="195" type="line"/>
      <point x="276" y="188" type="line" smooth="yes"/>
      <point x="223" y="180"/>
      <point x="185" y="170"/>
      <point x="161" y="159" type="curve" smooth="yes"/>
      <point x="136" y="147"/>
      <point x="124" y="129"/>
      <point x="124" y="106" type="curve" smooth="yes"/>
      <point x="124" y="56"/>
      <point x="144" y="31"/>
      <point x="183" y="31" type="curve" smooth="yes"/>
      <point x="226" y="31"/>
      <point x="269" y="50"/>
      <point x="312" y="89" type="curve"/>
    </contour>
  </outline>
</glyph>
<glyph name="guillemotleft" format="1">
  <advance width="472"/>
  <unicode hex="00AB"/>
  <outline>
    <contour>
      <point x="412" y="403" type="line"/>
      <point x="275" y="267" type="line"/>
      <point x="411" y="132" type="line"/>
      <point x="409" y="123"/>
      <point x="407" y="114"/>
      <point x="405" y="105" type="curve"/>
      <point x="402" y="96"/>
      <point x="400" y="87"/>
      <point x="398" y="78" type="curve"/>
      <point x="223" y="255" type="line"/>
      <point x="224" y="262"/>
      <point x="226" y="269"/>
      <point x="228" y="275" type="curve" smooth="yes"/>
      <point x="230" y="281"/>
      <point x="232" y="287"/>
      <point x="233" y="294" type="curve"/>
      <point x="398" y="458" type="line"/>
    </contour>
    <contour>
      <point x="241" y="403" type="line"/>
      <point x="104" y="267" type="line"/>
      <point x="240" y="132" type="line"/>
      <point x="238" y="123"/>
      <point x="236" y="114"/>
      <point x="233" y="105" type="curve" smooth="yes"/>
      <point x="230" y="96"/>
      <point x="228" y="87"/>
      <point x="227" y="78" type="curve"/>
      <point x="52" y="255" type="line"/>
      <point x="54" y="262"/>
      <point x="56" y="269"/>
      <point x="58" y="275" type="curve" smooth="yes"/>
      <point x="60" y="281"/>
      <point x="62" y="287"/>
      <point x="63" y="294" type="curve"/>
      <point x="227" y="458" type="line"/>
    </contour>
  </outline>
</glyph>
<glyph name="logicalnot" format="1">
  <advance width="475"/>
  <unicode hex="00AC"/>
  <outline>
    <contour>
      <point x="372" y="311" type="line"/>
      <point x="63" y="311" type="line"/>
      <point x="63" y="351" type="line"/>
      <point x="412" y="351" type="line"/>
      <point x="412" y="156" type="line"/>
      <point x="372" y="156" type="line"/>
    </contour>
  </outline>
</glyph>
<glyph name="uni00AD" format="1">
  <advance width="508"/>
  <unicode hex="00AD"/>
  <outline>
    <contour>
      <point x="75" y="407" type="line"/>
      <point x="438" y="407" type="line"/>
      <point x="438" y="358" type="line"/>
      <point x="75" y="358" type="line"/>
    </contour>
  </outline>
</glyph>
<glyph name="registered" format="1">
  <advance width="772"/>
  <unicode hex="00AE"/>
  <outline>
    <contour>
      <point x="511" y="433"/>
      <point x="510" y="443"/>
      <point x="507" y="449" type="curve"/>
      <point x="503" y="456"/>
      <point x="498" y="464"/>
      <point x="491" y="471" type="curve"/>
      <point x="478" y="482"/>
      <point x="464" y="486"/>
      <point x="436" y="490" type="curve"/>
      <point x="407" y="493"/>
      <point x="387" y="493"/>
      <point x="344" y="493" type="curve" smooth="yes"/>
      <point x="311" y="493" type="line"/>
      <point x="311" y="344" type="line"/>
      <point x="330" y="344" type="line" smooth="yes"/>
      <point x="402" y="344"/>
      <point x="449" y="349"/>
      <point x="474" y="357" type="curve"/>
      <point x="499" y="367"/>
      <point x="511" y="388"/>
      <point x="511" y="420" type="curve" smooth="yes"/>
    </contour>
    <contour>
      <point x="500" y="106" type="line"/>
      <point x="497" y="109"/>
      <point x="496" y="109"/>
      <point x="496" y="109" type="curve"/>
      <point x="495" y="108"/>
      <point x="495" y="108"/>
      <point x="494" y="108" type="curve"/>
      <point x="502" y="103" type="line"/>
    </contour>
    <contour>
      <point x="545" y="131" type="line"/>
      <point x="498" y="109" type="line"/>
      <point x="461" y="184"/>
      <point x="431" y="251"/>
      <point x="409" y="311" type="curve"/>
      <point x="388" y="309"/>
      <point x="365" y="308"/>
      <point x="340" y="308" type="curve" smooth="yes"/>
      <point x="311" y="308" type="line"/>
      <point x="311" y="109" type="line"/>
      <point x="261" y="109" type="line"/>
      <point x="261" y="531" type="line"/>
      <point x="356" y="531" type="line" smooth="yes"/>
      <point x="436" y="531"/>
      <point x="487" y="527"/>
      <point x="526" y="502" type="curve"/>
      <point x="525" y="502" type="line"/>
      <point x="549" y="484"/>
      <point x="561" y="456"/>
      <point x="561" y="419" type="curve" smooth="yes"/>
      <point x="561" y="387"/>
      <point x="552" y="364"/>
      <point x="535" y="349" type="curve"/>
      <point x="519" y="332"/>
      <point x="491" y="321"/>
      <point x="455" y="313" type="curve"/>
      <point x="458" y="304"/>
      <point x="463" y="294"/>
      <point x="469" y="281" type="curve" smooth="yes"/>
      <point x="475" y="268"/>
      <point x="482" y="253"/>
      <point x="491" y="234" type="curve"/>
      <point x="503" y="211" type="line"/>
      <point x="529" y="159" type="line"/>
    </contour>
    <contour>
      <point x="291" y="45"/>
      <point x="340" y="34"/>
      <point x="388" y="34" type="curve" smooth="yes"/>
      <point x="436" y="34"/>
      <point x="485" y="48"/>
      <point x="529" y="73" type="curve" smooth="yes"/>
      <point x="572" y="97"/>
      <point x="608" y="132"/>
      <point x="632" y="175" type="curve"/>
      <point x="657" y="216"/>
      <point x="670" y="267"/>
      <point x="670" y="314" type="curve" smooth="yes"/>
      <point x="670" y="363"/>
      <point x="657" y="413"/>
      <point x="633" y="457" type="curve" smooth="yes"/>
      <point x="609" y="500"/>
      <point x="574" y="538"/>
      <point x="530" y="562" type="curve"/>
      <point x="489" y="589"/>
      <point x="441" y="601"/>
      <point x="394" y="601" type="curve" smooth="yes"/>
      <point x="346" y="601"/>
      <point x="297" y="587"/>
      <point x="253" y="562" type="curve" smooth="yes"/>
      <point x="209" y="537"/>
      <point x="172" y="502"/>
      <point x="148" y="458" type="curve" smooth="yes"/>
      <point x="124" y="417"/>
      <point x="111" y="367"/>
      <point x="111" y="320" type="curve" smooth="yes"/>
      <point x="111" y="269"/>
      <point x="124" y="220"/>
      <point x="148" y="176" type="curve" smooth="yes"/>
      <point x="171" y="132"/>
      <point x="206" y="96"/>
      <point x="250" y="72" type="curve"/>
    </contour>
    <contour>
      <point x="75" y="229"/>
      <point x="67" y="270"/>
      <point x="67" y="313" type="curve" smooth="yes"/>
      <point x="67" y="377"/>
      <point x="86" y="442"/>
      <point x="121" y="495" type="curve" smooth="yes"/>
      <point x="156" y="548"/>
      <point x="205" y="591"/>
      <point x="265" y="614" type="curve"/>
      <point x="305" y="632"/>
      <point x="347" y="641"/>
      <point x="391" y="641" type="curve" smooth="yes"/>
      <point x="432" y="641"/>
      <point x="477" y="631"/>
      <point x="517" y="614" type="curve" smooth="yes"/>
      <point x="593" y="579"/>
      <point x="655" y="522"/>
      <point x="687" y="442" type="curve"/>
      <point x="706" y="403"/>
      <point x="715" y="361"/>
      <point x="715" y="317" type="curve" smooth="yes"/>
      <point x="715" y="272"/>
      <point x="706" y="230"/>
      <point x="687" y="191" type="curve"/>
      <point x="655" y="112"/>
      <point x="593" y="53"/>
      <point x="517" y="18" type="curve"/>
      <point x="476" y="1"/>
      <point x="434" y="-7"/>
      <point x="391" y="-7" type="curve" smooth="yes"/>
      <point x="347" y="-7"/>
      <point x="304" y="1"/>
      <point x="265" y="18" type="curve" smooth="yes"/>
      <point x="185" y="53"/>
      <point x="127" y="110"/>
      <point x="92" y="190" type="curve" smooth="yes"/>
    </contour>
  </outline>
</glyph>
<glyph name="macron" format="1">
  <advance width="336"/>
  <unicode hex="00AF"/>
  <outline>
    <contour>
      <point x="63" y="565" type="line"/>
      <point x="63" y="617" type="line"/>
      <point x="274" y="617" type="line"/>
      <point x="274" y="565" type="line"/>
    </contour>
  </outline>
</glyph>
<glyph name="degree" format="1">
  <advance width="341"/>
  <unicode hex="00B0"/>
  <outline>
    <contour>
      <point x="243" y="603"/>
      <point x="236" y="623"/>
      <point x="223" y="638" type="curve"/>
      <point x="224" y="638" type="line"/>
      <point x="211" y="653"/>
      <point x="194" y="660"/>
      <point x="171" y="660" type="curve" smooth="yes"/>
      <point x="128" y="660"/>
      <point x="102" y="631"/>
      <point x="102" y="578" type="curve" smooth="yes"/>
      <point x="102" y="554"/>
      <point x="108" y="533"/>
      <point x="120" y="520" type="curve"/>
      <point x="132" y="505"/>
      <point x="152" y="497"/>
      <point x="171" y="497" type="curve" smooth="yes"/>
      <point x="192" y="497"/>
      <point x="210" y="505"/>
      <point x="224" y="521" type="curve"/>
      <point x="223" y="521" type="line"/>
      <point x="236" y="534"/>
      <point x="243" y="553"/>
      <point x="243" y="578" type="curve" smooth="yes"/>
    </contour>
    <contour>
      <point x="173" y="454" type="line"/>
      <point x="104" y="454"/>
      <point x="56" y="506"/>
      <point x="56" y="578" type="curve" smooth="yes"/>
      <point x="56" y="654"/>
      <point x="103" y="703"/>
      <point x="174" y="703" type="curve" smooth="yes"/>
      <point x="242" y="703"/>
      <point x="289" y="651"/>
      <point x="289" y="578" type="curve" smooth="yes"/>
      <point x="289" y="503"/>
      <point x="240" y="456"/>
      <point x="177" y="455" type="curve"/>
    </contour>
  </outline>
</glyph>
<glyph name="plusminus" format="1">
  <advance width="574"/>
  <unicode hex="00B1"/>
  <outline>
    <contour>
      <point x="314" y="514" type="line"/>
      <point x="314" y="352" type="line"/>
      <point x="507" y="352" type="line"/>
      <point x="507" y="302" type="line"/>
      <point x="314" y="302" type="line"/>
      <point x="314" y="146" type="line"/>
      <point x="266" y="146" type="line"/>
      <point x="266" y="302" type="line"/>
      <point x="73" y="302" type="line"/>
      <point x="73" y="352" type="line"/>
      <point x="266" y="352" type="line"/>
      <point x="266" y="514" type="line"/>
    </contour>
    <contour>
      <point x="73" y="37" type="line"/>
      <point x="73" y="86" type="line"/>
      <point x="507" y="86" type="line"/>
      <point x="507" y="37" type="line"/>
    </contour>
  </outline>
</glyph>
<glyph name="twosuperior" format="1">
  <advance width="571"/>
  <unicode hex="00B2"/>
  <outline>
    <contour>
      <point x="399" y="361" type="line"/>
      <point x="179" y="361" type="line"/>
      <point x="180" y="394"/>
      <point x="199" y="427"/>
      <point x="224" y="451" type="curve" smooth="yes"/>
      <point x="248" y="474"/>
      <point x="280" y="500"/>
      <point x="305" y="521" type="curve" smooth="yes"/>
      <point x="329" y="541"/>
      <point x="348" y="566"/>
      <point x="348" y="587" type="curve" smooth="yes"/>
      <point x="348" y="589" type="line" smooth="yes"/>
      <point x="348" y="626"/>
      <point x="322" y="648"/>
      <point x="287" y="648" type="curve" smooth="yes"/>
      <point x="251" y="648"/>
      <point x="219" y="626"/>
      <point x="211" y="590" type="curve"/>
      <point x="201" y="594" type="line" smooth="yes"/>
      <point x="190" y="599"/>
      <point x="173" y="608"/>
      <point x="169" y="611" type="curve"/>
      <point x="188" y="664"/>
      <point x="235" y="692"/>
      <point x="287" y="692" type="curve" smooth="yes"/>
      <point x="347" y="692"/>
      <point x="398" y="653"/>
      <point x="398" y="592" type="curve" smooth="yes"/>
      <point x="398" y="553"/>
      <point x="381" y="523"/>
      <point x="356" y="501" type="curve" smooth="yes"/>
      <point x="343" y="490"/>
      <point x="331" y="479"/>
      <point x="318" y="470" type="curve" smooth="yes"/>
      <point x="292" y="450"/>
      <point x="261" y="423"/>
      <point x="246" y="398" type="curve"/>
      <point x="399" y="398" type="line"/>
    </contour>
  </outline>
</glyph>
<glyph name="uni00B2" format="1">
  <advance width="378"/>
  <unicode hex="00B2"/>
  <outline>
    <contour>
      <point x="61" y="126" type="line"/>
      <point x="61" y="128" type="line"/>
      <point x="55" y="128" type="line"/>
      <point x="61" y="122" type="line"/>
    </contour>
    <contour>
      <point x="48" y="554" type="line"/>
      <point x="49" y="554"/>
      <point x="50" y="555"/>
      <point x="51" y="556" type="curve"/>
      <point x="50" y="560" type="line"/>
      <point x="44" y="552" type="line"/>
    </contour>
    <contour>
      <point x="69" y="509" type="line"/>
      <point x="68" y="508"/>
      <point x="67" y="508"/>
      <point x="67" y="508" type="curve"/>
      <point x="62" y="504" type="line"/>
      <point x="73" y="502" type="line"/>
    </contour>
    <contour>
      <point x="325" y="445"/>
      <point x="318" y="420"/>
      <point x="307" y="401" type="curve"/>
      <point x="294" y="382"/>
      <point x="278" y="359"/>
      <point x="262" y="344" type="curve" smooth="yes"/>
      <point x="227" y="311" type="line" smooth="yes"/>
      <point x="200" y="286"/>
      <point x="173" y="259"/>
      <point x="154" y="238" type="curve"/>
      <point x="139" y="219"/>
      <point x="128" y="198"/>
      <point x="120" y="176" type="curve"/>
      <point x="314" y="176" type="line"/>
      <point x="314" y="128" type="line"/>
      <point x="61" y="128" type="line"/>
      <point x="61" y="140"/>
      <point x="62" y="154"/>
      <point x="65" y="167" type="curve"/>
      <point x="75" y="203" type="line"/>
      <point x="75" y="202" type="line"/>
      <point x="78" y="213"/>
      <point x="83" y="223"/>
      <point x="92" y="234" type="curve"/>
      <point x="98" y="245" type="line" smooth="yes"/>
      <point x="107" y="262"/>
      <point x="115" y="271"/>
      <point x="134" y="290" type="curve" smooth="yes"/>
      <point x="139" y="295"/>
      <point x="142" y="299"/>
      <point x="145" y="302" type="curve" smooth="yes"/>
      <point x="148" y="305"/>
      <point x="151" y="308"/>
      <point x="154" y="310" type="curve"/>
      <point x="185" y="338" type="line" smooth="yes"/>
      <point x="214" y="365"/>
      <point x="228" y="378"/>
      <point x="243" y="397" type="curve" smooth="yes"/>
      <point x="259" y="417"/>
      <point x="267" y="439"/>
      <point x="267" y="464" type="curve" smooth="yes"/>
      <point x="267" y="520"/>
      <point x="242" y="547"/>
      <point x="181" y="547" type="curve" smooth="yes"/>
      <point x="142" y="547"/>
      <point x="104" y="533"/>
      <point x="69" y="509" type="curve"/>
      <point x="51" y="556" type="line"/>
      <point x="96" y="577"/>
      <point x="129" y="591"/>
      <point x="184" y="591" type="curve" smooth="yes"/>
      <point x="276" y="591"/>
      <point x="325" y="540"/>
      <point x="325" y="468" type="curve" smooth="yes"/>
    </contour>
  </outline>
</glyph>
<glyph name="threesuperior" format="1">
  <advance width="358"/>
  <unicode hex="00B3"/>
  <outline>
    <contour>
      <point x="270" y="607" type="curve" smooth="yes"/>
      <point x="270" y="574"/>
      <point x="248" y="544"/>
      <point x="213" y="531" type="curve"/>
      <point x="304" y="504"/>
      <point x="298" y="415"/>
      <point x="257" y="376" type="curve" smooth="yes"/>
      <point x="236" y="356"/>
      <point x="208" y="346"/>
      <point x="171" y="346" type="curve" smooth="yes"/>
      <point x="122" y="346"/>
      <point x="72" y="371"/>
      <point x="60" y="422" type="curve"/>
      <point x="97" y="441" type="line"/>
      <point x="108" y="405"/>
      <point x="134" y="387"/>
      <point x="175" y="387" type="curve" smooth="yes"/>
      <point x="208" y="387"/>
      <point x="235" y="414"/>
      <point x="235" y="442" type="curve" smooth="yes"/>
      <point x="235" y="486"/>
      <point x="206" y="508"/>
      <point x="147" y="508" type="curve"/>
      <point x="147" y="548" type="line"/>
      <point x="200" y="549"/>
      <point x="219" y="569"/>
      <point x="219" y="602" type="curve" smooth="yes"/>
      <point x="219" y="630"/>
      <point x="202" y="648"/>
      <point x="169" y="648" type="curve" smooth="yes"/>
      <point x="142" y="648"/>
      <point x="116" y="634"/>
      <point x="104" y="606" type="curve"/>
      <point x="69" y="630" type="line"/>
      <point x="82" y="665"/>
      <point x="128" y="687"/>
      <point x="168" y="687" type="curve" smooth="yes"/>
      <point x="232" y="687"/>
      <point x="270" y="650"/>
    </contour>
  </outline>
</glyph>
<glyph name="uni00B3" format="1">
  <advance width="359"/>
  <unicode hex="00B3"/>
  <outline>
    <contour>
      <point x="49" y="193" type="line"/>
      <point x="49" y="192"/>
      <point x="49" y="192"/>
      <point x="50" y="192" type="curve" smooth="yes"/>
      <point x="52" y="192" type="line"/>
      <point x="51" y="192" type="line"/>
      <point x="52" y="191"/>
      <point x="52" y="191"/>
      <point x="53" y="191" type="curve"/>
      <point x="55" y="197" type="line"/>
    </contour>
    <contour>
      <point x="93" y="387" type="line"/>
      <point x="94" y="387" type="line"/>
      <point x="94" y="392" type="line"/>
      <point x="88" y="386" type="line"/>
    </contour>
    <contour>
      <point x="53" y="529" type="line"/>
      <point x="52" y="529"/>
      <point x="52" y="529"/>
      <point x="52" y="529" type="curve"/>
      <point x="52" y="528"/>
      <point x="52" y="528"/>
      <point x="51" y="528" type="curve" smooth="yes"/>
      <point x="50" y="528"/>
      <point x="50" y="528"/>
      <point x="50" y="528" type="curve"/>
      <point x="50" y="527"/>
      <point x="50" y="527"/>
      <point x="49" y="527" type="curve"/>
      <point x="55" y="523" type="line"/>
    </contour>
    <contour>
      <point x="99" y="335" type="line"/>
      <point x="99" y="336"/>
      <point x="99" y="338"/>
      <point x="99" y="339" type="curve"/>
      <point x="98" y="340"/>
      <point x="98" y="342"/>
      <point x="98" y="343" type="curve"/>
      <point x="97" y="343" type="line" smooth="yes"/>
      <point x="96" y="343"/>
      <point x="96" y="343"/>
      <point x="95" y="343" type="curve"/>
      <point x="94" y="342"/>
      <point x="94" y="342"/>
      <point x="93" y="342" type="curve"/>
    </contour>
    <contour>
      <point x="39" y="571" type="line"/>
      <point x="40" y="571"/>
      <point x="40" y="571"/>
      <point x="41" y="572" type="curve"/>
      <point x="40" y="578" type="line"/>
      <point x="34" y="570" type="line"/>
    </contour>
    <contour>
      <point x="40" y="142" type="line"/>
      <point x="41" y="147" type="line"/>
      <point x="40" y="148" type="line"/>
      <point x="39" y="148"/>
      <point x="38" y="148"/>
      <point x="37" y="149" type="curve"/>
      <point x="36" y="149"/>
      <point x="35" y="149"/>
      <point x="34" y="149" type="curve"/>
    </contour>
    <contour>
      <point x="132" y="549"/>
      <point x="92" y="540"/>
      <point x="53" y="529" type="curve"/>
      <point x="41" y="572" type="line"/>
      <point x="88" y="586"/>
      <point x="128" y="593"/>
      <point x="163" y="593" type="curve" smooth="yes"/>
      <point x="205" y="593"/>
      <point x="239" y="583"/>
      <point x="265" y="563" type="curve"/>
      <point x="291" y="545"/>
      <point x="304" y="518"/>
      <point x="304" y="481" type="curve" smooth="yes"/>
      <point x="304" y="433"/>
      <point x="286" y="406"/>
      <point x="225" y="378" type="curve"/>
      <point x="257" y="366"/>
      <point x="282" y="351"/>
      <point x="297" y="332" type="curve" smooth="yes"/>
      <point x="313" y="312"/>
      <point x="323" y="285"/>
      <point x="323" y="257" type="curve" smooth="yes"/>
      <point x="323" y="209"/>
      <point x="303" y="177"/>
      <point x="272" y="157" type="curve" smooth="yes"/>
      <point x="241" y="137"/>
      <point x="200" y="129"/>
      <point x="160" y="129" type="curve" smooth="yes"/>
      <point x="117" y="129"/>
      <point x="78" y="135"/>
      <point x="41" y="147" type="curve"/>
      <point x="53" y="191" type="line"/>
      <point x="88" y="178"/>
      <point x="123" y="173"/>
      <point x="162" y="173" type="curve" smooth="yes"/>
      <point x="194" y="173"/>
      <point x="221" y="178"/>
      <point x="241" y="191" type="curve" smooth="yes"/>
      <point x="260" y="204"/>
      <point x="272" y="227"/>
      <point x="272" y="262" type="curve" smooth="yes"/>
      <point x="272" y="317"/>
      <point x="227" y="351"/>
      <point x="167" y="351" type="curve" smooth="yes"/>
      <point x="146" y="351"/>
      <point x="123" y="348"/>
      <point x="98" y="343" type="curve"/>
      <point x="94" y="387" type="line"/>
      <point x="145" y="394"/>
      <point x="178" y="397"/>
      <point x="209" y="413" type="curve" smooth="yes"/>
      <point x="237" y="428"/>
      <point x="253" y="447"/>
      <point x="253" y="478" type="curve" smooth="yes"/>
      <point x="253" y="522"/>
      <point x="222" y="549"/>
      <point x="165" y="549" type="curve" smooth="yes"/>
    </contour>
  </outline>
</glyph>
<glyph name="acute" format="1">
  <advance width="200"/>
  <unicode hex="00B4"/>
  <outline>
    <contour>
      <point x="146" y="545" type="line"/>
      <point x="101" y="500" type="line"/>
      <point x="80" y="482" type="line"/>
      <point x="69" y="494" type="line"/>
      <point x="58" y="506" type="line"/>
      <point x="178" y="673" type="line"/>
      <point x="228" y="636" type="line"/>
      <point x="180" y="583" type="line"/>
      <point x="179" y="582"/>
      <point x="174" y="575"/>
      <point x="164" y="564" type="curve" smooth="yes"/>
    </contour>
  </outline>
</glyph>
<glyph name="mu" format="1">
  <advance width="492"/>
  <unicode hex="00B5"/>
  <outline>
    <contour>
      <point x="357" y="484" type="line"/>
      <point x="417" y="484" type="line"/>
      <point x="417" y="-49" type="line"/>
      <point x="369" y="-49" type="line"/>
      <point x="364" y="29" type="line"/>
      <point x="332" y="14"/>
      <point x="304" y="3"/>
      <point x="281" y="-2" type="curve" smooth="yes"/>
      <point x="260" y="-7"/>
      <point x="233" y="-9"/>
      <point x="208" y="-9" type="curve" smooth="yes"/>
      <point x="171" y="-9"/>
      <point x="138" y="0"/>
      <point x="111" y="17" type="curve"/>
      <point x="123" y="-133" type="line"/>
      <point x="62" y="-133" type="line"/>
      <point x="62" y="155" type="line" smooth="yes"/>
      <point x="62" y="211"/>
      <point x="62" y="266"/>
      <point x="63" y="320" type="curve" smooth="yes"/>
      <point x="63" y="374"/>
      <point x="63" y="429"/>
      <point x="63" y="484" type="curve"/>
      <point x="123" y="484" type="line"/>
      <point x="123" y="152" type="line" smooth="yes"/>
      <point x="123" y="112"/>
      <point x="129" y="82"/>
      <point x="144" y="65" type="curve"/>
      <point x="156" y="50"/>
      <point x="182" y="40"/>
      <point x="214" y="40" type="curve" smooth="yes"/>
      <point x="223" y="40" type="line" smooth="yes"/>
      <point x="250" y="40"/>
      <point x="270" y="41"/>
      <point x="301" y="50" type="curve"/>
      <point x="317" y="54"/>
      <point x="334" y="62"/>
      <point x="357" y="73" type="curve"/>
    </contour>
  </outline>
</glyph>
<glyph name="paragraph" format="1">
  <advance width="507"/>
  <unicode hex="00B6"/>
  <outline>
    <contour>
      <point x="281" y="617" type="line"/>
      <point x="273" y="617"/>
      <point x="265" y="617"/>
      <point x="256" y="617" type="curve" smooth="yes"/>
      <point x="239" y="617"/>
      <point x="229" y="616"/>
      <point x="216" y="614" type="curve" smooth="yes"/>
      <point x="209" y="613"/>
      <point x="203" y="611"/>
      <point x="197" y="610" type="curve" smooth="yes"/>
      <point x="170" y="605"/>
      <point x="151" y="596"/>
      <point x="131" y="577" type="curve"/>
      <point x="104" y="554"/>
      <point x="88" y="514"/>
      <point x="88" y="446" type="curve" smooth="yes"/>
      <point x="88" y="367"/>
      <point x="114" y="320"/>
      <point x="158" y="295" type="curve" smooth="yes"/>
      <point x="174" y="286"/>
      <point x="194" y="279"/>
      <point x="211" y="274" type="curve"/>
      <point x="220" y="273"/>
      <point x="231" y="271"/>
      <point x="243" y="270" type="curve"/>
      <point x="254" y="268"/>
      <point x="267" y="266"/>
      <point x="281" y="265" type="curve"/>
    </contour>
    <contour>
      <point x="439" y="-4" type="line"/>
      <point x="411" y="-4" type="line"/>
      <point x="411" y="616" type="line"/>
      <point x="310" y="616" type="line"/>
      <point x="310" y="-4" type="line"/>
      <point x="281" y="-4" type="line"/>
      <point x="281" y="237" type="line"/>
      <point x="204" y="244"/>
      <point x="163" y="254"/>
      <point x="120" y="286" type="curve"/>
      <point x="80" y="319"/>
      <point x="59" y="370"/>
      <point x="59" y="447" type="curve" smooth="yes"/>
      <point x="59" y="523"/>
      <point x="81" y="576"/>
      <point x="117" y="603" type="curve"/>
      <point x="137" y="616"/>
      <point x="159" y="627"/>
      <point x="187" y="634" type="curve"/>
      <point x="186" y="634" type="line"/>
      <point x="211" y="640"/>
      <point x="242" y="643"/>
      <point x="279" y="643" type="curve" smooth="yes"/>
      <point x="439" y="643" type="line"/>
    </contour>
  </outline>
</glyph>
<glyph name="periodcentered" format="1">
  <advance width="201"/>
  <unicode hex="00B7"/>
  <outline>
    <contour>
      <point x="63" y="351" type="line"/>
      <point x="139" y="351" type="line"/>
      <point x="139" y="252" type="line"/>
      <point x="63" y="252" type="line"/>
    </contour>
  </outline>
</glyph>
<glyph name="cedilla" format="1">
  <advance width="457"/>
  <unicode hex="00B8"/>
  <outline>
    <contour>
      <point x="179" y="-184" type="line"/>
      <point x="180" y="-184"/>
      <point x="180" y="-184"/>
      <point x="181" y="-184" type="curve"/>
      <point x="181" y="-185"/>
      <point x="181" y="-185"/>
      <point x="182" y="-185" type="curve"/>
    </contour>
    <contour>
      <point x="192" y="-103" type="line"/>
      <point x="192" y="-97" type="line"/>
      <point x="189" y="-97" type="line"/>
      <point x="188" y="-96"/>
      <point x="187" y="-96"/>
      <point x="187" y="-96" type="curve"/>
    </contour>
    <contour>
      <point x="173" y="-220" type="line"/>
      <point x="172" y="-220" type="line" smooth="yes"/>
      <point x="171" y="-220"/>
      <point x="171" y="-220"/>
      <point x="170" y="-219" type="curve" smooth="yes"/>
      <point x="169" y="-218"/>
      <point x="168" y="-218"/>
      <point x="167" y="-218" type="curve"/>
      <point x="173" y="-226" type="line"/>
    </contour>
    <contour>
      <point x="235" y="-77" type="line"/>
      <point x="266" y="-78"/>
      <point x="289" y="-84"/>
      <point x="305" y="-95" type="curve"/>
      <point x="320" y="-108"/>
      <point x="328" y="-125"/>
      <point x="328" y="-146" type="curve" smooth="yes"/>
      <point x="328" y="-203"/>
      <point x="291" y="-235"/>
      <point x="238" y="-235" type="curve" smooth="yes"/>
      <point x="217" y="-235"/>
      <point x="196" y="-230"/>
      <point x="173" y="-220" type="curve"/>
      <point x="174" y="-215"/>
      <point x="176" y="-209"/>
      <point x="178" y="-202" type="curve"/>
      <point x="179" y="-196"/>
      <point x="181" y="-190"/>
      <point x="182" y="-185" type="curve"/>
      <point x="200" y="-192"/>
      <point x="216" y="-196"/>
      <point x="229" y="-196" type="curve" smooth="yes"/>
      <point x="257" y="-196"/>
      <point x="276" y="-180"/>
      <point x="276" y="-148" type="curve" smooth="yes"/>
      <point x="276" y="-139"/>
      <point x="275" y="-132"/>
      <point x="274" y="-129" type="curve" smooth="yes"/>
      <point x="273" y="-126"/>
      <point x="271" y="-123"/>
      <point x="269" y="-120" type="curve"/>
      <point x="262" y="-113"/>
      <point x="257" y="-109"/>
      <point x="256" y="-109" type="curve"/>
      <point x="255" y="-110"/>
      <point x="253" y="-109"/>
      <point x="251" y="-108" type="curve"/>
      <point x="242" y="-104" type="line"/>
      <point x="240" y="-104"/>
      <point x="238" y="-104"/>
      <point x="236" y="-103" type="curve"/>
      <point x="233" y="-103"/>
      <point x="231" y="-103"/>
      <point x="229" y="-103" type="curve"/>
      <point x="192" y="-97" type="line"/>
      <point x="192" y="-43" type="line"/>
      <point x="240" y="-43" type="line"/>
    </contour>
  </outline>
</glyph>
<glyph name="onesuperior" format="1">
  <advance width="254"/>
  <unicode hex="00B9"/>
  <outline>
    <contour>
      <point x="122" y="634" type="line"/>
      <point x="67" y="606" type="line"/>
      <point x="58" y="648" type="line"/>
      <point x="126" y="679" type="line"/>
      <point x="174" y="679" type="line"/>
      <point x="174" y="356" type="line"/>
      <point x="122" y="356" type="line"/>
    </contour>
  </outline>
</glyph>
<glyph name="uni00B9" format="1">
  <advance width="318"/>
  <unicode hex="00B9"/>
  <outline>
    <contour>
      <point x="201" y="178" type="line"/>
      <point x="274" y="178" type="line"/>
      <point x="274" y="136" type="line"/>
      <point x="64" y="136" type="line"/>
      <point x="64" y="178" type="line"/>
      <point x="149" y="178" type="line"/>
      <point x="149" y="539" type="line"/>
      <point x="65" y="505" type="line"/>
      <point x="44" y="543" type="line"/>
      <point x="63" y="552"/>
      <point x="82" y="560"/>
      <point x="101" y="567" type="curve" smooth="yes"/>
      <point x="119" y="574"/>
      <point x="138" y="582"/>
      <point x="157" y="591" type="curve"/>
      <point x="201" y="591" type="line"/>
    </contour>
  </outline>
</glyph>
<glyph name="ordmasculine" format="1">
  <advance width="368"/>
  <unicode hex="00BA"/>
  <outline>
    <contour>
      <point x="309" y="391"/>
      <point x="269" y="335"/>
      <point x="184" y="335" type="curve" smooth="yes"/>
      <point x="102" y="335"/>
      <point x="61" y="391"/>
      <point x="61" y="502" type="curve" smooth="yes"/>
      <point x="61" y="613"/>
      <point x="102" y="668"/>
      <point x="184" y="668" type="curve" smooth="yes"/>
      <point x="187" y="668" type="line"/>
      <point x="182" y="667" type="line"/>
      <point x="270" y="666"/>
      <point x="309" y="615"/>
      <point x="309" y="503" type="curve" smooth="yes"/>
    </contour>
    <contour>
      <point x="156" y="629"/>
      <point x="132" y="617"/>
      <point x="120" y="600" type="curve"/>
      <point x="109" y="583"/>
      <point x="103" y="550"/>
      <point x="103" y="503" type="curve" smooth="yes"/>
      <point x="103" y="414"/>
      <point x="124" y="376"/>
      <point x="184" y="376" type="curve" smooth="yes"/>
      <point x="247" y="376"/>
      <point x="267" y="410"/>
      <point x="267" y="503" type="curve" smooth="yes"/>
      <point x="267" y="595"/>
      <point x="245" y="629"/>
      <point x="184" y="629" type="curve" smooth="yes"/>
    </contour>
  </outline>
</glyph>
<glyph name="guillemotright" format="1">
  <advance width="439"/>
  <unicode hex="00BB"/>
  <outline>
    <contour>
      <point x="415" y="347" type="line"/>
      <point x="415" y="256" type="line"/>
      <point x="209" y="116" type="line"/>
      <point x="209" y="181" type="line"/>
      <point x="370" y="301" type="line"/>
      <point x="209" y="421" type="line"/>
      <point x="209" y="486" type="line"/>
    </contour>
    <contour>
      <point x="25" y="486" type="line"/>
      <point x="231" y="347" type="line"/>
      <point x="231" y="256" type="line"/>
      <point x="25" y="116" type="line"/>
      <point x="25" y="181" type="line"/>
      <point x="185" y="301" type="line"/>
      <point x="25" y="421" type="line"/>
    </contour>
  </outline>
</glyph>
<glyph name="onequarter" format="1">
  <advance width="651"/>
  <unicode hex="00BC"/>
  <outline>
    <contour>
      <point x="605" y="687" type="line"/>
      <point x="640" y="656" type="line"/>
      <point x="67" y="-7" type="line"/>
      <point x="31" y="24" type="line"/>
    </contour>
    <contour>
      <point x="85" y="606" type="line"/>
      <point x="76" y="648" type="line"/>
      <point x="144" y="679" type="line"/>
      <point x="193" y="679" type="line"/>
      <point x="193" y="356" type="line"/>
      <point x="140" y="356" type="line"/>
      <point x="140" y="634" type="line"/>
    </contour>
    <contour>
      <point x="328" y="102" type="line"/>
      <point x="476" y="321" type="line"/>
      <point x="544" y="321" type="line"/>
      <point x="544" y="108" type="line"/>
      <point x="591" y="108" type="line"/>
      <point x="591" y="70" type="line"/>
      <point x="544" y="70" type="line"/>
      <point x="544" y="0" type="line"/>
      <point x="491" y="0" type="line"/>
      <point x="491" y="70" type="line"/>
      <point x="328" y="70" type="line"/>
    </contour>
    <contour>
      <point x="491" y="272" type="line"/>
      <point x="381" y="108" type="line"/>
      <point x="491" y="108" type="line"/>
    </contour>
  </outline>
</glyph>
<glyph name="onehalf" format="1">
  <advance width="823"/>
  <unicode hex="00BD"/>
  <outline>
    <contour>
      <point x="289" y="-61" type="line"/>
      <point x="243" y="-58" type="line"/>
      <point x="503" y="662" type="line"/>
      <point x="548" y="662" type="line"/>
    </contour>
    <contour>
      <point x="262" y="178" type="line"/>
      <point x="262" y="136" type="line"/>
      <point x="52" y="136" type="line"/>
      <point x="52" y="178" type="line"/>
      <point x="137" y="178" type="line"/>
      <point x="137" y="539" type="line"/>
      <point x="53" y="505" type="line"/>
      <point x="32" y="543" type="line"/>
      <point x="51" y="552"/>
      <point x="70" y="560"/>
      <point x="89" y="567" type="curve"/>
      <point x="111" y="576"/>
      <point x="130" y="584"/>
      <point x="145" y="591" type="curve"/>
      <point x="189" y="591" type="line"/>
      <point x="189" y="178" type="line"/>
    </contour>
    <contour>
      <point x="755" y="239"/>
      <point x="740" y="220"/>
      <point x="729" y="209" type="curve" smooth="yes"/>
      <point x="694" y="176" type="line" smooth="yes"/>
      <point x="665" y="149"/>
      <point x="641" y="125"/>
      <point x="621" y="103" type="curve"/>
      <point x="608" y="86"/>
      <point x="596" y="66"/>
      <point x="587" y="41" type="curve"/>
      <point x="781" y="41" type="line"/>
      <point x="781" y="-7" type="line"/>
      <point x="528" y="-7" type="line"/>
      <point x="528" y="9"/>
      <point x="529" y="22"/>
      <point x="532" y="32" type="curve" smooth="yes"/>
      <point x="542" y="68" type="line"/>
      <point x="542" y="67" type="line"/>
      <point x="545" y="78"/>
      <point x="550" y="88"/>
      <point x="559" y="99" type="curve"/>
      <point x="565" y="110" type="line"/>
      <point x="572" y="124"/>
      <point x="584" y="139"/>
      <point x="601" y="155" type="curve"/>
      <point x="612" y="167" type="line"/>
      <point x="621" y="175" type="line"/>
      <point x="652" y="203" type="line" smooth="yes"/>
      <point x="717" y="263"/>
      <point x="734" y="284"/>
      <point x="734" y="329" type="curve" smooth="yes"/>
      <point x="734" y="386"/>
      <point x="708" y="412"/>
      <point x="648" y="412" type="curve" smooth="yes"/>
      <point x="611" y="412"/>
      <point x="573" y="399"/>
      <point x="536" y="374" type="curve"/>
      <point x="518" y="421" type="line"/>
      <point x="574" y="448"/>
      <point x="603" y="456"/>
      <point x="651" y="456" type="curve" smooth="yes"/>
      <point x="739" y="456"/>
      <point x="792" y="409"/>
      <point x="792" y="333" type="curve" smooth="yes"/>
      <point x="792" y="310"/>
      <point x="786" y="287"/>
      <point x="774" y="266" type="curve"/>
    </contour>
    <contour>
      <point x="517" y="425" type="line"/>
      <point x="511" y="417" type="line"/>
      <point x="515" y="419" type="line"/>
      <point x="516" y="419"/>
      <point x="517" y="420"/>
      <point x="518" y="421" type="curve"/>
    </contour>
    <contour>
      <point x="534" y="373" type="line"/>
      <point x="529" y="369" type="line"/>
      <point x="540" y="367" type="line"/>
      <point x="536" y="374" type="line"/>
    </contour>
    <contour>
      <point x="522" y="-7" type="line"/>
      <point x="528" y="-13" type="line"/>
      <point x="528" y="-7" type="line"/>
    </contour>
  </outline>
</glyph>
